<svg width="393" height="28" viewBox="0 0 393 28" fill="none" xmlns="http://www.w3.org/2000/svg">
<circle cx="100.5" cy="24" r="4" fill="#B0BCC4"/>
<circle cx="132.5" cy="24" r="4" fill="#B0BCC4"/>
<circle cx="164.5" cy="24" r="4" fill="#B0BCC4"/>
<circle cx="196.5" cy="24" r="4" fill="#B0BCC4"/>
<circle cx="228.5" cy="24" r="4" fill="#B0BCC4"/>
<circle cx="260.5" cy="24" r="4" fill="#B0BCC4"/>
<circle cx="292.5" cy="24" r="4" fill="#114469"/>
<path d="M297.756 7.73206L297.756 8.23206H297.756L297.756 7.73206ZM296.555 7.73207L296.555 7.23207H296.555L296.555 7.73207ZM294.795 6.28806L294.306 6.39144L294.795 6.28806ZM294.405 4.44402L294.894 4.34064L294.405 4.44402ZM292.645 3L292.645 2.5L292.645 3ZM289.666 3.00001L289.666 3.50001L289.666 3.00001ZM288.211 3.84363L288.652 4.07903V4.07903L288.211 3.84363ZM287 7.7321H287.5H287ZM298.4 7.90216L298.687 7.49301L298.687 7.49301L298.4 7.90216ZM288.861 8.43512L289.078 8.88545L289.071 8.88921L289.063 8.8927L288.861 8.43512ZM290.784 8.13944L290.709 8.63374L290.784 8.13944ZM293.452 10.7022L292.963 10.8065L293.452 10.7022ZM293.298 12.6969L292.83 12.5209L293.298 12.6969ZM292.108 14.2898L291.808 13.8897L292.108 14.2898ZM290.266 14.9651L290.292 15.4644L290.266 14.9651ZM288.376 8.64874L288.578 9.10632L288.578 9.10632L288.376 8.64874ZM298.017 15.1537C297.781 15.297 297.474 15.2218 297.33 14.9857C297.187 14.7497 297.262 14.4422 297.498 14.2989L298.017 15.1537ZM291.155 3L291.155 2.5L291.155 3ZM287.5 11.6912C287.5 12.2632 287.955 12.714 288.5 12.714V13.714C287.388 13.714 286.5 12.8012 286.5 11.6912H287.5ZM288.5 12.714C289.045 12.714 289.5 12.2632 289.5 11.6912H290.5C290.5 12.8012 289.612 13.714 288.5 13.714V12.714ZM289.5 11.6912C289.5 11.1192 289.045 10.6685 288.5 10.6685V9.66847C289.612 9.66847 290.5 10.5812 290.5 11.6912H289.5ZM288.5 10.6685C287.955 10.6685 287.5 11.1192 287.5 11.6912H286.5C286.5 10.5812 287.388 9.66847 288.5 9.66847V10.6685ZM295.9 13.4772C295.9 14.0492 296.354 14.5 296.9 14.5V15.5C295.788 15.5 294.9 14.5873 294.9 13.4772H295.9ZM296.9 14.5C297.445 14.5 297.9 14.0492 297.9 13.4772H298.9C298.9 14.5873 298.011 15.5 296.9 15.5V14.5ZM297.9 13.4772C297.9 12.9053 297.445 12.4545 296.9 12.4545V11.4545C298.011 11.4545 298.9 12.3672 298.9 13.4772H297.9ZM296.9 12.4545C296.354 12.4545 295.9 12.9053 295.9 13.4772H294.9C294.9 12.3672 295.788 11.4545 296.9 11.4545V12.4545ZM297.756 8.23206L296.555 8.23207L296.555 7.23207L297.756 7.23206L297.756 8.23206ZM294.306 6.39144L293.916 4.5474L294.894 4.34064L295.284 6.18468L294.306 6.39144ZM288.652 4.07903C288.153 5.01435 287.5 6.48997 287.5 7.7321H286.5C286.5 6.22197 287.264 4.55509 287.769 3.60823L288.652 4.07903ZM298.687 7.49301C299.003 7.71508 299.5 8.1854 299.5 8.95026H298.5C298.5 8.66539 298.32 8.45707 298.112 8.31131L298.687 7.49301ZM289.666 3.50001C289.229 3.50001 288.844 3.71911 288.652 4.07903L287.769 3.60823C288.152 2.89143 288.896 2.50001 289.666 2.50001L289.666 3.50001ZM293.916 4.5474C293.786 3.93135 293.253 3.5 292.645 3.5L292.645 2.5C293.735 2.5 294.669 3.27204 294.894 4.34064L293.916 4.5474ZM296.555 8.23207C295.465 8.23208 294.531 7.46004 294.306 6.39144L295.284 6.18468C295.414 6.80073 295.947 7.23208 296.555 7.23207L296.555 8.23207ZM297.756 7.23206C298.031 7.23206 298.38 7.27718 298.687 7.49301L298.112 8.31131C298.046 8.26453 297.936 8.23206 297.756 8.23206L297.756 7.23206ZM288.644 7.98479C289.337 7.6503 290.108 7.53068 290.859 7.64515L290.709 8.63374C290.162 8.55038 289.594 8.63655 289.078 8.88545L288.644 7.98479ZM290.859 7.64515C291.611 7.75964 292.305 8.10279 292.855 8.63019L292.162 9.35142C291.761 8.96648 291.256 8.71707 290.709 8.63374L290.859 7.64515ZM292.855 8.63019C293.403 9.15739 293.78 9.84303 293.941 10.598L292.963 10.8065C292.843 10.2421 292.563 9.73657 292.162 9.35142L292.855 8.63019ZM293.941 10.598C294.102 11.3527 294.041 12.144 293.766 12.8729L292.83 12.5209C293.038 11.9681 293.084 11.3712 292.963 10.8065L293.941 10.598ZM293.766 12.8729C293.492 13.6018 293.027 14.226 292.408 14.6898L291.808 13.8897C292.272 13.5416 292.622 13.0737 292.83 12.5209L293.766 12.8729ZM292.408 14.6898C291.789 15.1538 291.053 15.4248 290.292 15.4644L290.24 14.4657C290.798 14.4367 291.344 14.2377 291.808 13.8897L292.408 14.6898ZM288.175 8.19116L288.66 7.97754L289.063 8.8927L288.578 9.10632L288.175 8.19116ZM290.292 15.4644C288.047 15.5812 286.5 13.7579 286.5 11.6912H287.5C287.5 13.2791 288.656 14.5481 290.24 14.4657L290.292 15.4644ZM288.578 9.10632C287.586 9.5429 286.5 8.80067 286.5 7.7321H287.5C287.5 8.1021 287.866 8.32715 288.175 8.19115L288.578 9.10632ZM299.5 8.95026C299.5 10.3717 299.501 11.6717 299.339 12.7096C299.177 13.7384 298.834 14.6576 298.017 15.1537L297.498 14.2989C297.923 14.0408 298.201 13.5077 298.351 12.5548C298.499 11.6111 298.5 10.4002 298.5 8.95026H299.5ZM292.645 3.5L291.155 3.5L291.155 2.5L292.645 2.5L292.645 3.5ZM291.155 3.5L289.666 3.50001L289.666 2.50001L291.155 2.5L291.155 3.5Z" fill="#001F30"/>
</svg>
