<svg width="90" height="64" viewBox="0 0 90 64" fill="none" xmlns="http://www.w3.org/2000/svg">
<g clip-path="url(#clip0_3067_3921)">
<path d="M16 29.1759C20.3947 30.692 29.4987 33.0391 34.5006 31.5C41.0006 29.5 45.5006 22.5 45.5006 18C45.5006 13.5 38.5006 15.5 36.5006 19.9998C26.5006 7.99984 18.334 14.9998 15.5006 19.9998C13.9006 22.193 14.834 26.9138 15.5006 29C15.6593 29.0571 15.826 29.1159 16 29.1759ZM16 29.1759C16 31.9506 17.2 37.7 22 38.5C23.0362 38.5 23.7651 36.5 24 35.5L26 38.5C30.5 39.3333 39.3 38.8 38.5 30" stroke="#001F30" stroke-linecap="round" stroke-linejoin="round"/>
<path d="M37 30.5L35 37.5" stroke="#001F30" stroke-linecap="round" stroke-linejoin="round"/>
<path d="M34.0002 38.5001C34.5328 38.4181 35.2267 38.3644 36 38.3775M58 43L50.0002 48C48.5002 47.1667 45.0002 44.7001 43.0002 41.5001C42.6232 40.8969 42.1455 40.4027 41.604 40M58 43L60 46.5M58 43C58 41.8334 58.3 39.4 59.5 39C61 38.5 60.5 33 63 34C65 35.5 63.5 38.5 63.5 39C64.8333 38 67.6 36.5001 68 38.5001C68.5 41 68.5 49.5001 60 46.5M60 46.5L50.5002 54C47.8335 53.3334 42.1002 51.6 40.5002 50C40.5002 52 42.0002 63 40.5002 63C39.3002 63 37.3335 63 36.5002 63M36.5002 63C37.5002 61.6667 39.2002 58.5 38.0002 56.5M36.5002 63C35.4874 63 34.2949 63 33.0002 63M38.0002 56.5C36.5002 54 40.5002 42 38.5002 41M38.0002 56.5L41.604 40M38.5002 41C36.8335 44.5 33.4002 52.3 33.0002 55.5C32.9447 55.9437 32.6324 56.2707 32.1172 56.5M38.5002 41C38.1654 40.8327 37.2704 40.6769 36 40.5338M15.5002 39.5C14.3335 39.8334 12.0002 41 12.0002 43M15.5002 39.5L16.5 35.988M15.5002 39.5C16.9189 39.5338 18.6416 39.5827 20.5002 39.6457M12.0002 43C12.0002 44.4415 12.0002 49.6057 12.0002 54M12.0002 43C9.20016 40.2 5.50016 27.5 4.00016 21.5M12.0002 54C12.0002 55.7027 12.0002 57.2899 12.0002 58.5C12.3335 60 13.5002 63 15.5002 63C17.1717 63 26.4106 63 33.0002 63M12.0002 54C17.8862 55.5792 28.9164 57.9251 32.1172 56.5M4.00016 21.5C5.50016 20.5 8.60016 18.7 9.00016 19.5C9.01641 19.6679 9.03371 19.8345 9.05205 19.9999M4.00016 21.5C3.83349 20.8334 3.60016 18.4 4.00016 13.9999C4.50016 8.49975 9.05205 13.4999 13.0002 13.9999C16.1586 14.3999 11.6841 18.1666 9.05205 19.9999M9.05205 19.9999C9.95549 28.1455 13.368 33.2078 16.5 35.988M32.1172 56.5L33.0002 63M41.604 40C39.9791 38.7916 37.7792 38.4076 36 38.3775M36 38.3775V40.5338M36 40.5338C32.4292 40.1316 25.893 39.8287 20.5002 39.6457M16.5 35.988C17.9999 37.3194 19.4354 38.1274 20.5002 38.5001V39.6457M20.5002 53L19.5002 58.5H24.5002L25.5002 54L20.5002 53Z" stroke="#001F30" stroke-linecap="round" stroke-linejoin="round"/>
<path d="M50.5 0.5C63 20 92 11 85 38.5C79.4 60.5 55.3333 70.6667 44 73" stroke="#001F30" stroke-linecap="round" stroke-linejoin="round"/>
</g>
<defs>
<clipPath id="clip0_3067_3921">
<rect width="90" height="64" fill="white"/>
</clipPath>
</defs>
</svg>
