<svg width="48" height="48" viewBox="0 0 48 48" fill="none" xmlns="http://www.w3.org/2000/svg">
<g id="Apple Pay">
<path id="Vector" d="M8.77051 16.6972C8.20794 17.3629 7.30784 17.8879 6.40773 17.8129C6.29522 16.9128 6.7359 15.9565 7.25158 15.3658C7.81415 14.6813 8.79863 14.1938 9.5956 14.1562C9.68936 15.0939 9.32369 16.0127 8.77051 16.6972ZM9.58622 17.9911C8.28295 17.9161 7.1672 18.7318 6.54838 18.7318C5.92018 18.7318 4.9732 18.0286 3.94183 18.0473C2.60105 18.0661 1.35403 18.8255 0.669578 20.035C-0.736833 22.4541 0.303911 26.0357 1.66344 28.0047C2.32914 28.9798 3.12611 30.0487 4.17623 30.0112C5.17009 29.9737 5.56389 29.3642 6.76403 29.3642C7.97354 29.3642 8.32045 30.0112 9.37057 29.9924C10.4582 29.9737 11.1427 29.0173 11.8084 28.0422C12.5678 26.9358 12.8772 25.8576 12.896 25.8013C12.8772 25.7826 10.7957 24.9856 10.777 22.5853C10.7582 20.5789 12.4178 19.6225 12.4928 19.5662C11.5552 18.1786 10.0925 18.0286 9.58622 17.9911ZM17.1152 15.272V29.8893H19.3842V24.8919H22.5252C25.3943 24.8919 27.4101 22.9229 27.4101 20.0726C27.4101 17.2222 25.4318 15.272 22.6002 15.272H17.1152ZM19.3842 17.1847H22.0001C23.9691 17.1847 25.0942 18.2348 25.0942 20.0819C25.0942 21.929 23.9691 22.9885 21.9908 22.9885H19.3842V17.1847ZM31.5544 30.0018C32.9795 30.0018 34.3016 29.2799 34.9016 28.136H34.9485V29.8893H37.0487V22.6135C37.0487 20.5039 35.3611 19.1443 32.7639 19.1443C30.3542 19.1443 28.5728 20.5226 28.5071 22.4166H30.5511C30.7199 21.5165 31.5544 20.9258 32.6982 20.9258C34.0859 20.9258 34.8641 21.5727 34.8641 22.7635V23.5698L32.0325 23.7386C29.3979 23.898 27.9727 24.9762 27.9727 26.8515C27.9727 28.7454 29.4447 30.0018 31.5544 30.0018ZM32.1638 28.2672C30.9543 28.2672 30.1855 27.6859 30.1855 26.7952C30.1855 25.8763 30.9262 25.3419 32.342 25.2575L34.8641 25.0981V25.9232C34.8641 27.2921 33.7015 28.2672 32.1638 28.2672ZM39.8522 33.8648C42.0649 33.8648 43.1057 33.0209 44.0152 30.4612L48 19.285H45.6935L43.0213 27.9203H42.9744L40.3022 19.285H37.9301L41.7743 29.9268L41.568 30.5738C41.2211 31.6708 40.6585 32.0927 39.6553 32.0927C39.4771 32.0927 39.1302 32.0739 38.9896 32.0552V33.8085C39.1209 33.846 39.6834 33.8648 39.8522 33.8648Z" fill="black"/>
</g>
</svg>
