<svg width="18" height="18" viewBox="0 0 18 18" fill="none" xmlns="http://www.w3.org/2000/svg">
<g id="Linear / Map &#38; Location / Signpost" opacity="0.5">
<path id="Vector" d="M9.75 1.5C9.75 1.08579 9.41421 0.75 9 0.75C8.58579 0.75 8.25 1.08579 8.25 1.5H9.75ZM8.25 1.5V2.25H9.75V1.5H8.25Z" fill="black"/>
<path id="Vector_2" d="M9.75 8.25C9.75 7.83579 9.41421 7.5 9 7.5C8.58579 7.5 8.25 7.83579 8.25 8.25H9.75ZM8.25 8.25V9H9.75V8.25H8.25Z" fill="black"/>
<path id="Vector_3" d="M9.75 15C9.75 14.5858 9.41421 14.25 9 14.25C8.58579 14.25 8.25 14.5858 8.25 15H9.75ZM8.25 15V16.5H9.75V15H8.25Z" fill="black"/>
<path id="Vector_4" d="M6.52762 2.625H11.6246C12.678 2.625 13.2046 2.625 13.583 2.8778C13.7468 2.98723 13.8874 3.12786 13.9968 3.29164C14.2496 3.66998 14.2496 4.19665 14.2496 5.25C14.2496 6.30335 14.2496 6.83002 13.9968 7.20836C13.8874 7.37214 13.7468 7.51277 13.583 7.6222C13.2046 7.875 12.678 7.875 11.6246 7.875H6.52762C6.03445 7.875 5.78786 7.875 5.56158 7.80135C5.46175 7.76886 5.36561 7.72597 5.27473 7.6734C5.06875 7.55425 4.904 7.37077 4.57449 7.00383C3.93647 6.2933 3.61745 5.93803 3.54065 5.52285C3.50728 5.34248 3.50728 5.15752 3.54065 4.97715C3.61745 4.56197 3.93647 4.2067 4.57449 3.49617C4.904 3.12923 5.06875 2.94575 5.27473 2.8266C5.36561 2.77403 5.46175 2.73114 5.56158 2.69865C5.78786 2.625 6.03445 2.625 6.52762 2.625Z" stroke="black" stroke-width="1.5"/>
<path id="Vector_5" d="M11.472 9.375H6.375C5.32165 9.375 4.79498 9.375 4.41664 9.6278C4.25286 9.73723 4.11223 9.87786 4.0028 10.0416C3.75 10.42 3.75 10.9467 3.75 12C3.75 13.0533 3.75 13.58 4.0028 13.9584C4.11223 14.1221 4.25286 14.2628 4.41664 14.3722C4.79498 14.625 5.32165 14.625 6.375 14.625H11.472C11.9652 14.625 12.2118 14.625 12.438 14.5513C12.5379 14.5189 12.634 14.476 12.7249 14.4234C12.9309 14.3042 13.0956 14.1208 13.4251 13.7538C14.0632 13.0433 14.3822 12.688 14.459 12.2729C14.4923 12.0925 14.4923 11.9075 14.459 11.7271C14.3822 11.312 14.0632 10.9567 13.4251 10.2462C13.0956 9.87923 12.9309 9.69575 12.7249 9.5766C12.634 9.52403 12.5379 9.48114 12.438 9.44865C12.2118 9.375 11.9652 9.375 11.472 9.375Z" stroke="black" stroke-width="1.5"/>
<path id="Vector_6" d="M10.5 16.5H7.5" stroke="black" stroke-width="1.5" stroke-linecap="round"/>
</g>
</svg>
