<svg width="393" height="405" viewBox="0 0 393 405" fill="none" xmlns="http://www.w3.org/2000/svg">
<path d="M156.496 43.749H168.496L174.496 34.749H195.996L189.496 43.749V53.749L186.996 43.749" stroke="#001F30" stroke-width="1.5"/>
<path d="M151.496 49.749H168.496V44.249H186.496" stroke="#001F30" stroke-width="1.5"/>
<path d="M196.996 34.749L203.496 42.749H201.496V51.249" stroke="#001F30" stroke-width="1.5"/>
<path d="M213.496 36.749V41.749" stroke="#001F30" stroke-width="1.5"/>
<path d="M217.996 29.3547C218.618 28.8543 220.236 27.3531 221.729 25.3515C223.596 22.8494 228.729 28.8543 225.929 30.3555C223.689 31.5565 224.063 34.1921 224.529 35.3597V37.3614H222.196L221.263 35.3597L218.463 38.3622C222.507 38.3622 230.689 38.6624 231.063 39.8634C231.436 41.0644 228.729 41.6982 227.329 41.8651C227.018 42.6991 227.143 44.3671 230.129 44.3671C233.863 44.3671 261.863 38.8626 278.196 59.3794C294.529 79.8961 318.329 35.3596 351.929 30.3555C378.809 26.3523 392.257 29.3315 394.746 30.9995" stroke="#001F30" stroke-width="1.5" stroke-linecap="round"/>
<path d="M242.495 27.2489C241.662 24.4156 241.495 18.2489 247.495 16.2489C253.495 14.2489 253.995 22.7489 253.495 27.2489C254.328 25.249 256.595 21.8491 258.995 24.249C261.395 26.6489 258.995 30.5823 257.495 32.249C259.495 29.0824 263.995 24.049 265.995 29.249C268.495 35.749 260.995 36.749 259.995 36.749C258.995 36.749 256.995 32.7706 261.495 33.249C265.995 33.7275 282.495 44.749 281.995 45.249C281.495 45.749 245.995 37.749 236.995 40.749C229.795 43.149 233.995 40.0824 236.995 38.249L233.495 37.749V31.249H234.995V33.249H246.495V36.249C243.828 35.9157 239.295 34.4491 242.495 31.249C245.695 28.0489 247.828 28.5823 248.495 29.249L250.995 33.249L249.495 34.249V36.749H233.995" stroke="#001F30" stroke-width="1.5" stroke-linecap="round"/>
<path d="M373.512 13.4641L373.512 14.2141H373.512L373.512 13.4641ZM371.11 13.4641L371.11 12.7141H371.11L371.11 13.4641ZM367.59 10.5761L366.856 10.7312L367.59 10.5761ZM366.81 6.88804L367.544 6.73297V6.73297L366.81 6.88804ZM363.29 4L363.29 3.25L363.29 4ZM357.331 4.00002L357.331 4.75002L357.331 4.00002ZM354.421 5.68726L355.083 6.04037V6.04037L354.421 5.68726ZM352 13.4642H352.75H352ZM374.799 13.8043L375.23 13.1906L375.23 13.1906L374.799 13.8043ZM355.722 14.8702L356.048 15.5457L356.036 15.5514L356.024 15.5566L355.722 14.8702ZM359.568 14.2789L359.455 15.0203L359.568 14.2789ZM364.905 19.4045L364.171 19.5609L364.905 19.4045ZM364.597 23.3938L363.895 23.1298L364.597 23.3938ZM362.216 26.5796L361.766 25.9795L362.216 26.5796ZM358.532 27.9301L358.571 28.6791L358.532 27.9301ZM354.752 15.2975L355.054 15.9839H355.054L354.752 15.2975ZM373.905 28.0936C373.551 28.3086 373.089 28.1958 372.875 27.8417C372.66 27.4877 372.772 27.0264 373.126 26.8114L373.905 28.0936ZM360.311 4.00001L360.311 3.25001L360.311 4.00001ZM352.75 21.3824C352.75 22.6609 353.768 23.6779 355 23.6779V25.1779C352.918 25.1779 351.25 23.468 351.25 21.3824H352.75ZM355 23.6779C356.232 23.6779 357.25 22.6609 357.25 21.3824H358.75C358.75 23.468 357.082 25.1779 355 25.1779V23.6779ZM357.25 21.3824C357.25 20.104 356.232 19.0869 355 19.0869V17.5869C357.082 17.5869 358.75 19.2969 358.75 21.3824H357.25ZM355 19.0869C353.768 19.0869 352.75 20.104 352.75 21.3824H351.25C351.25 19.2969 352.918 17.5869 355 17.5869V19.0869ZM369.549 24.9545C369.549 26.233 370.567 27.25 371.799 27.25V28.75C369.717 28.75 368.049 27.04 368.049 24.9545H369.549ZM371.799 27.25C373.031 27.25 374.049 26.233 374.049 24.9545H375.549C375.549 27.04 373.881 28.75 371.799 28.75V27.25ZM374.049 24.9545C374.049 23.676 373.031 22.659 371.799 22.659V21.159C373.881 21.159 375.549 22.869 375.549 24.9545H374.049ZM371.799 22.659C370.567 22.659 369.549 23.676 369.549 24.9545H368.049C368.049 22.869 369.717 21.159 371.799 21.159V22.659ZM373.512 14.2141L371.11 14.2141L371.11 12.7141L373.512 12.7141L373.512 14.2141ZM366.856 10.7312L366.077 7.0431L367.544 6.73297L368.323 10.421L366.856 10.7312ZM355.083 6.04037C354.083 7.91389 352.75 10.9129 352.75 13.4642H351.25C351.25 10.5109 352.75 7.22499 353.759 5.33416L355.083 6.04037ZM375.23 13.1906C375.835 13.6157 376.75 14.4908 376.75 15.9005H375.25C375.25 15.2108 374.81 14.7286 374.368 14.418L375.23 13.1906ZM357.331 4.75002C356.375 4.75002 355.515 5.2313 355.083 6.04037L353.759 5.33416C354.477 3.98978 355.876 3.25002 357.331 3.25002L357.331 4.75002ZM366.077 7.0431C365.792 5.69787 364.626 4.75 363.29 4.75L363.29 3.25C365.35 3.24999 367.116 4.70891 367.544 6.73297L366.077 7.0431ZM371.11 14.2141C369.05 14.2142 367.284 12.7552 366.856 10.7312L368.323 10.421C368.608 11.7663 369.774 12.7142 371.11 12.7141L371.11 14.2141ZM373.512 12.7141C374.038 12.7141 374.676 12.8012 375.23 13.1906L374.368 14.418C374.175 14.2822 373.895 14.2141 373.512 14.2141L373.512 12.7141ZM355.396 14.1948C356.738 13.5472 358.23 13.3163 359.681 13.5374L359.455 15.0203C358.31 14.8458 357.124 15.0265 356.048 15.5457L355.396 14.1948ZM359.681 13.5374C361.133 13.7586 362.475 14.4215 363.536 15.4407L362.497 16.5225C361.658 15.717 360.6 15.1948 359.455 15.0203L359.681 13.5374ZM363.536 15.4407C364.597 16.4596 365.327 17.7858 365.638 19.2481L364.171 19.5609C363.92 18.3844 363.336 17.3283 362.497 16.5225L363.536 15.4407ZM365.638 19.2481C365.95 20.71 365.831 22.2441 365.299 23.6579L363.895 23.1298C364.327 21.9802 364.422 20.7378 364.171 19.5609L365.638 19.2481ZM365.299 23.6579C364.767 25.0715 363.864 26.2808 362.666 27.1797L361.766 25.9795C362.733 25.2544 363.462 24.2795 363.895 23.1298L365.299 23.6579ZM362.666 27.1797C361.467 28.0786 360.042 28.6026 358.571 28.6791L358.493 27.1812C359.659 27.1205 360.799 26.7045 361.766 25.9795L362.666 27.1797ZM354.45 14.6111L355.42 14.1839L356.024 15.5566L355.054 15.9839L354.45 14.6111ZM358.571 28.6791C354.246 28.904 351.25 25.3961 351.25 21.3824H352.75C352.75 24.678 355.16 27.3545 358.493 27.1812L358.571 28.6791ZM355.054 15.9839C353.243 16.7819 351.25 15.4267 351.25 13.4642H352.75C352.75 14.3788 353.662 14.9582 354.45 14.6111L355.054 15.9839ZM376.75 15.9005C376.75 18.7506 376.752 21.3283 376.43 23.3806C376.111 25.4191 375.441 27.161 373.905 28.0936L373.126 26.8114C374.075 26.2358 374.647 25.0731 374.948 23.1483C375.248 21.2373 375.25 18.7932 375.25 15.9005H376.75ZM363.29 4.75L360.311 4.75001L360.311 3.25001L363.29 3.25L363.29 4.75ZM360.311 4.75001L357.331 4.75002L357.331 3.25002L360.311 3.25001L360.311 4.75001Z" fill="#001F30"/>
<path d="M-1 69.5C-1 69.5 46.9973 85 100.997 72.1665C123.627 66.7885 134.997 58.6665 135.997 57.6665C136.997 56.6665 137.997 53.6665 129.497 51.1665C120.997 48.6665 135.497 10.1665 139.497 13.1665C143.497 16.1665 150.997 44.6665 146.997 49.6665C146.533 50.2473 146.049 50.7437 145.555 51.1665M145.555 51.1665C142.649 53.656 139.422 53.5939 137.997 53.1665C137.997 50.4998 137.997 45.7665 137.997 48.1665C137.997 50.5665 137.997 55.4998 137.997 57.6665C139.664 57.3332 143.797 56.5665 146.997 56.1665C150.197 55.7665 147.369 52.6665 145.555 51.1665ZM137.997 45.1665C137.997 33.9665 143.997 26.8332 146.997 24.6665C148.997 23.6665 153.597 23.0665 155.997 28.6665C158.997 35.6665 157.497 45.1665 153.497 48.1665C150.297 50.5665 148.831 54.4998 148.497 56.1665L154.997 55.6665V53.1665H155.997H156.997V56.1665L166.497 55.6665V51.1665H167.497V54.6665L188.497 56.1665L193.497 54.1665V47.1665H196.497V52.6665C208.331 53.1665 234.297 55.9665 243.497 63.1665C254.997 72.1665 235.997 50.1665 224.497 48.1665C215.297 46.5665 205.664 46.8332 201.997 47.1665C202.997 46.4998 205.297 45.1665 206.497 45.1665C207.697 45.1665 206.997 40.8332 206.497 38.6665H203.997L206.497 33.6665H213.997L214.997 37.6665L212.497 36.1665L210.997 37.6665V42.6665C211.664 42.6665 213.597 42.6665 215.997 42.6665C218.397 42.6665 224.997 42.6665 227.997 42.6665L217.497 40.6665V30.1665L221.497 23.1665H228.997L232.997 28.6665H243.497" stroke="#001F30" stroke-width="1.5"/>
<circle cx="276.496" cy="10" r="5.25" fill="#FFC01F" stroke="#001F30" stroke-width="1.5"/>
<path d="M279.488 230.464L279.488 231.214H279.488L279.488 230.464ZM281.89 230.464L281.89 229.714H281.89L281.89 230.464ZM285.41 227.576L286.144 227.731L285.41 227.576ZM286.19 223.888L285.456 223.733V223.733L286.19 223.888ZM289.71 221L289.71 220.25L289.71 221ZM295.669 221L295.669 221.75L295.669 221ZM298.579 222.687L297.917 223.04V223.04L298.579 222.687ZM301 230.464H300.25H301ZM278.201 230.804L277.77 230.191L277.77 230.191L278.201 230.804ZM297.278 231.87L296.952 232.546L296.964 232.551L296.976 232.557L297.278 231.87ZM293.432 231.279L293.545 232.02L293.432 231.279ZM288.095 236.404L288.829 236.561L288.095 236.404ZM288.403 240.394L289.105 240.13L288.403 240.394ZM290.784 243.58L291.234 242.979L290.784 243.58ZM294.468 244.93L294.429 245.679L294.468 244.93ZM298.248 232.297L297.946 232.984H297.946L298.248 232.297ZM279.095 245.094C279.449 245.309 279.911 245.196 280.125 244.842C280.34 244.488 280.228 244.026 279.874 243.811L279.095 245.094ZM292.689 221L292.689 220.25L292.689 221ZM300.25 238.382C300.25 239.661 299.232 240.678 298 240.678V242.178C300.082 242.178 301.75 240.468 301.75 238.382H300.25ZM298 240.678C296.768 240.678 295.75 239.661 295.75 238.382H294.25C294.25 240.468 295.918 242.178 298 242.178V240.678ZM295.75 238.382C295.75 237.104 296.768 236.087 298 236.087V234.587C295.918 234.587 294.25 236.297 294.25 238.382H295.75ZM298 236.087C299.232 236.087 300.25 237.104 300.25 238.382H301.75C301.75 236.297 300.082 234.587 298 234.587V236.087ZM283.451 241.954C283.451 243.233 282.433 244.25 281.201 244.25V245.75C283.283 245.75 284.951 244.04 284.951 241.954H283.451ZM281.201 244.25C279.969 244.25 278.951 243.233 278.951 241.954H277.451C277.451 244.04 279.119 245.75 281.201 245.75V244.25ZM278.951 241.954C278.951 240.676 279.969 239.659 281.201 239.659V238.159C279.119 238.159 277.451 239.869 277.451 241.954H278.951ZM281.201 239.659C282.433 239.659 283.451 240.676 283.451 241.954H284.951C284.951 239.869 283.283 238.159 281.201 238.159V239.659ZM279.488 231.214L281.89 231.214L281.89 229.714L279.488 229.714L279.488 231.214ZM286.144 227.731L286.923 224.043L285.456 223.733L284.677 227.421L286.144 227.731ZM297.917 223.04C298.917 224.914 300.25 227.913 300.25 230.464H301.75C301.75 227.511 300.25 224.225 299.241 222.334L297.917 223.04ZM277.77 230.191C277.165 230.616 276.25 231.491 276.25 232.901H277.75C277.75 232.211 278.19 231.729 278.632 231.418L277.77 230.191ZM295.669 221.75C296.625 221.75 297.485 222.231 297.917 223.04L299.241 222.334C298.523 220.99 297.124 220.25 295.669 220.25L295.669 221.75ZM286.923 224.043C287.208 222.698 288.374 221.75 289.71 221.75L289.71 220.25C287.65 220.25 285.884 221.709 285.456 223.733L286.923 224.043ZM281.89 231.214C283.95 231.214 285.716 229.755 286.144 227.731L284.677 227.421C284.392 228.766 283.226 229.714 281.89 229.714L281.89 231.214ZM279.488 229.714C278.962 229.714 278.324 229.801 277.77 230.191L278.632 231.418C278.825 231.282 279.105 231.214 279.488 231.214L279.488 229.714ZM297.604 231.195C296.262 230.547 294.77 230.316 293.319 230.537L293.545 232.02C294.69 231.846 295.876 232.027 296.952 232.546L297.604 231.195ZM293.319 230.537C291.867 230.759 290.525 231.421 289.464 232.441L290.503 233.523C291.342 232.717 292.4 232.195 293.545 232.02L293.319 230.537ZM289.464 232.441C288.403 233.46 287.673 234.786 287.362 236.248L288.829 236.561C289.08 235.384 289.664 234.328 290.503 233.523L289.464 232.441ZM287.362 236.248C287.05 237.71 287.169 239.244 287.701 240.658L289.105 240.13C288.673 238.98 288.578 237.738 288.829 236.561L287.362 236.248ZM287.701 240.658C288.233 242.072 289.136 243.281 290.334 244.18L291.234 242.979C290.267 242.254 289.538 241.279 289.105 240.13L287.701 240.658ZM290.334 244.18C291.533 245.079 292.958 245.603 294.429 245.679L294.507 244.181C293.341 244.12 292.201 243.704 291.234 242.979L290.334 244.18ZM298.55 231.611L297.58 231.184L296.976 232.557L297.946 232.984L298.55 231.611ZM294.429 245.679C298.754 245.904 301.75 242.396 301.75 238.382H300.25C300.25 241.678 297.84 244.354 294.507 244.181L294.429 245.679ZM297.946 232.984C299.757 233.782 301.75 232.427 301.75 230.464H300.25C300.25 231.379 299.338 231.958 298.55 231.611L297.946 232.984ZM276.25 232.901C276.25 235.751 276.248 238.328 276.57 240.381C276.889 242.419 277.559 244.161 279.095 245.094L279.874 243.811C278.925 243.236 278.353 242.073 278.052 240.148C277.752 238.237 277.75 235.793 277.75 232.901H276.25ZM289.71 221.75L292.689 221.75L292.689 220.25L289.71 220.25L289.71 221.75ZM292.689 221.75L295.669 221.75L295.669 220.25L292.689 220.25L292.689 221.75Z" fill="#001F30"/>
<path d="M394.5 245.253C394.5 245.253 155 246.753 110.5 246.753L109 231.253L90.5 228.253C89.1667 232.086 87.6 240.153 92 241.753C96.4 243.353 97.8333 242.42 98 241.753L96 189.753H90.5V195.753H80.5L78.5 244.753L83 243.753V169.253L75.5 165.753V157.253H68C68.6667 170.586 69.8 197.853 69 200.253C68.2 202.653 64 202.586 62 202.253L64.5 232.753H69V216.253H56V194.753H37.5V229.253H31.5V237.753H36V205.753H16V239.753H6.50001V246.753H-1" stroke="#001F30" stroke-width="1.5"/>
<circle cx="51" cy="241.253" r="5.25" fill="#FFE0C9" stroke="#001F30" stroke-width="1.5"/>
<path d="M109.512 384.212L109.512 384.962H109.512L109.512 384.212ZM107.11 384.212L107.11 383.462H107.11L107.11 384.212ZM103.59 381.324L102.856 381.479L103.59 381.324ZM102.81 377.636L103.544 377.481V377.481L102.81 377.636ZM99.2904 374.748L99.2904 373.998L99.2904 374.748ZM93.3314 374.748L93.3314 375.498L93.3314 374.748ZM90.4211 376.435L91.0828 376.788V376.788L90.4211 376.435ZM88 384.212H88.75H88ZM110.799 384.552L111.23 383.939L111.23 383.939L110.799 384.552ZM91.7222 385.618L92.0481 386.294L92.0364 386.299L92.0245 386.305L91.7222 385.618ZM95.5681 385.027L95.4551 385.768L95.5681 385.027ZM100.905 390.153L100.171 390.309L100.905 390.153ZM100.597 394.142L99.8948 393.878L100.597 394.142ZM98.2157 397.328L97.7658 396.728L98.2157 397.328ZM94.5316 398.678L94.5706 399.427L94.5316 398.678ZM90.7521 386.046L91.0544 386.732H91.0544L90.7521 386.046ZM109.905 398.842C109.551 399.057 109.089 398.944 108.875 398.59C108.66 398.236 108.772 397.774 109.126 397.559L109.905 398.842ZM96.3109 374.748L96.3109 373.998L96.3109 374.748ZM88.75 392.13C88.75 393.409 89.768 394.426 91 394.426V395.926C88.9183 395.926 87.25 394.216 87.25 392.13H88.75ZM91 394.426C92.232 394.426 93.25 393.409 93.25 392.13H94.75C94.75 394.216 93.0817 395.926 91 395.926V394.426ZM93.25 392.13C93.25 390.852 92.232 389.835 91 389.835V388.335C93.0817 388.335 94.75 390.045 94.75 392.13H93.25ZM91 389.835C89.768 389.835 88.75 390.852 88.75 392.13H87.25C87.25 390.045 88.9183 388.335 91 388.335V389.835ZM105.549 395.703C105.549 396.981 106.567 397.998 107.799 397.998V399.498C105.717 399.498 104.049 397.788 104.049 395.703H105.549ZM107.799 397.998C109.031 397.998 110.049 396.981 110.049 395.703H111.549C111.549 397.788 109.881 399.498 107.799 399.498V397.998ZM110.049 395.703C110.049 394.424 109.031 393.407 107.799 393.407V391.907C109.881 391.907 111.549 393.617 111.549 395.703H110.049ZM107.799 393.407C106.567 393.407 105.549 394.424 105.549 395.703H104.049C104.049 393.617 105.717 391.907 107.799 391.907V393.407ZM109.512 384.962L107.11 384.962L107.11 383.462L109.512 383.462L109.512 384.962ZM102.856 381.479L102.077 377.791L103.544 377.481L104.323 381.169L102.856 381.479ZM91.0828 376.788C90.083 378.662 88.75 381.661 88.75 384.212H87.25C87.25 381.259 88.7504 377.973 89.7594 376.082L91.0828 376.788ZM111.23 383.939C111.835 384.364 112.75 385.239 112.75 386.649H111.25C111.25 385.959 110.81 385.477 110.368 385.166L111.23 383.939ZM93.3314 375.498C92.3745 375.498 91.5145 375.979 91.0828 376.788L89.7594 376.082C90.4768 374.738 91.8757 373.998 93.3314 373.998L93.3314 375.498ZM102.077 377.791C101.792 376.446 100.626 375.498 99.2904 375.498L99.2904 373.998C101.35 373.998 103.116 375.457 103.544 377.481L102.077 377.791ZM107.11 384.962C105.05 384.962 103.284 383.503 102.856 381.479L104.323 381.169C104.608 382.514 105.774 383.462 107.11 383.462L107.11 384.962ZM109.512 383.462C110.038 383.462 110.676 383.549 111.23 383.939L110.368 385.166C110.175 385.03 109.895 384.962 109.512 384.962L109.512 383.462ZM91.3963 384.943C92.7385 384.295 94.2296 384.064 95.681 384.285L95.4551 385.768C94.3098 385.594 93.1242 385.775 92.0481 386.294L91.3963 384.943ZM95.681 384.285C97.1328 384.507 98.4747 385.17 99.5359 386.189L98.4968 387.271C97.6582 386.465 96.6 385.943 95.4551 385.768L95.681 384.285ZM99.5359 386.189C100.597 387.208 101.327 388.534 101.638 389.996L100.171 390.309C99.9204 389.132 99.3359 388.076 98.4968 387.271L99.5359 386.189ZM101.638 389.996C101.95 391.458 101.831 392.992 101.299 394.406L99.8948 393.878C100.327 392.728 100.422 391.486 100.171 390.309L101.638 389.996ZM101.299 394.406C100.767 395.82 99.8644 397.029 98.6656 397.928L97.7658 396.728C98.733 396.002 99.4624 395.028 99.8948 393.878L101.299 394.406ZM98.6656 397.928C97.4665 398.827 96.0421 399.351 94.5706 399.427L94.4927 397.929C95.659 397.869 96.7987 397.453 97.7658 396.728L98.6656 397.928ZM90.4498 385.359L91.4199 384.932L92.0245 386.305L91.0544 386.732L90.4498 385.359ZM94.5706 399.427C90.2459 399.652 87.25 396.144 87.25 392.13H88.75C88.75 395.426 91.1603 398.103 94.4927 397.929L94.5706 399.427ZM91.0544 386.732C89.2426 387.53 87.25 386.175 87.25 384.212H88.75C88.75 385.127 89.6617 385.706 90.4498 385.359L91.0544 386.732ZM112.75 386.649C112.75 389.499 112.752 392.076 112.43 394.129C112.111 396.167 111.441 397.909 109.905 398.842L109.126 397.559C110.075 396.984 110.647 395.821 110.948 393.896C111.248 391.985 111.25 389.541 111.25 386.649H112.75ZM99.2904 375.498L96.3109 375.498L96.3109 373.998L99.2904 373.998L99.2904 375.498ZM96.3109 375.498L93.3314 375.498L93.3314 373.998L96.3109 373.998L96.3109 375.498Z" fill="#001F30"/>
<path d="M396 401.5C381 396.5 379.5 401.5 369 401.5C358.5 401.5 358.5 399.5 357 398.5C355.5 397.5 361.5 385.5 361 379.5C360.5 373.5 350.999 371.5 354 368C357 364.5 361 367.5 361 366C361 364.5 363.5 364.5 365 362C366.2 360 367 356.5 369 357C371 357.499 370.6 360 369 362C367 364.5 366.5 362 365 364C363.5 366 371.5 370.5 374.5 365C377.5 359.5 380 365 381.5 361C383 357 383.5 347 379 345.5C374.5 344 373 342 369 344.5C365 347 370 340.5 361 342.5C352 344.5 354 353.5 358 355C359.047 355.393 362 356 362 359C362 362 357 366.417 353.5 363.417C350.7 361.018 354.5 359 357 359.5C360.5 360.2 357.9 362.4 351.5 364C345.1 365.6 345.501 363.999 348 361C350.5 358 355 357 355 357C362 355 371.801 357.4 373 349C374.5 338.5 366 335 362 337.5C358 340 355 341 355 337.5C355 334 352.5 329 348 329C343.5 329 327 330 326 345.5C325.2 357.9 331.667 355.667 335 353C336.334 355.333 339.7 359.8 342.5 359C345.3 358.2 339 354.5 340 355C342 356 346.1 357.5 346.5 355.5V355.5C346.808 353.961 345.934 352.68 347.456 352.299C347.772 352.219 348.119 352.12 348.5 352C356.1 349.6 351.167 356.333 345 359C344.833 361.333 344.3 366 343.5 366C342.5 366 336.999 367 336 362C335 357 328.001 361 326 361C324 361 314 360.999 312 357C310.4 353.8 311.333 351.667 312 351C314.667 355.167 320.3 361.4 321.5 353C323 342.5 322 359 322.5 359C323 359 325 359 327 355C329 351 339 350.499 338.5 345.5C338 340.5 327.5 326 322.5 332.5C317.5 339 310.5 334.5 309.5 340C308.5 345.5 300.5 347 302 351C303.5 355 289 366.999 300 365C311 363 287.001 365.5 302 372.5C317 379.5 315 365 320.5 365C326 365 312.501 372.5 322.5 371.5C332.5 370.5 329 366.5 337 369C345 371.5 346 368.5 346.5 370C347 371.5 365.5 387 331 400.5C315 407.5 308 395.5 289.5 398.5C271 401.5 255.5 405.5 246.5 403C237.5 400.5 229.5 396.499 195.5 398.5C168.3 400.1 53.1667 400.5 -1 400.5" stroke="#001F30" stroke-width="1.5" stroke-linecap="round"/>
<circle cx="279" cy="380.748" r="5.25" fill="#AAD492" stroke="#001F30" stroke-width="1.5"/>
</svg>
