<svg width="393" height="28" viewBox="0 0 393 28" fill="none" xmlns="http://www.w3.org/2000/svg">
<circle cx="100.5" cy="24" r="4" fill="#114469"/>
<circle cx="132.5" cy="24" r="3.5" stroke="#114469"/>
<circle cx="164.5" cy="24" r="3.5" stroke="#114469"/>
<circle cx="196.5" cy="24" r="3.5" stroke="#114469"/>
<circle cx="228.5" cy="24" r="3.5" stroke="#114469"/>
<circle cx="260.5" cy="24" r="3.5" stroke="#114469"/>
<circle cx="292.5" cy="24" r="3.5" stroke="#114469"/>
<path d="M105.756 7.73206L105.756 8.23206H105.756L105.756 7.73206ZM104.555 7.73207L104.555 7.23207H104.555L104.555 7.73207ZM102.795 6.28806L102.306 6.39144L102.795 6.28806ZM102.405 4.44402L102.894 4.34064L102.405 4.44402ZM100.645 3L100.645 2.5L100.645 3ZM97.6657 3.00001L97.6657 3.50001L97.6657 3.00001ZM96.2105 3.84363L96.6517 4.07903V4.07903L96.2105 3.84363ZM95 7.7321H95.5H95ZM106.4 7.90216L106.687 7.49301L106.687 7.49301L106.4 7.90216ZM96.8611 8.43512L97.0783 8.88545L97.0705 8.88921L97.0626 8.8927L96.8611 8.43512ZM98.784 8.13944L98.7087 8.63374L98.784 8.13944ZM101.452 10.7022L100.963 10.8065L101.452 10.7022ZM101.298 12.6969L100.83 12.5209L101.298 12.6969ZM100.108 14.2898L99.8079 13.8897L100.108 14.2898ZM98.2658 14.9651L98.2918 15.4644L98.2658 14.9651ZM96.3761 8.64874L96.5776 9.10632L96.5776 9.10632L96.3761 8.64874ZM106.017 15.1537C105.781 15.297 105.474 15.2218 105.33 14.9857C105.187 14.7497 105.262 14.4422 105.498 14.2989L106.017 15.1537ZM99.1554 3L99.1554 2.5L99.1554 3ZM95.5 11.6912C95.5 12.2632 95.9548 12.714 96.5 12.714V13.714C95.3884 13.714 94.5 12.8012 94.5 11.6912H95.5ZM96.5 12.714C97.0452 12.714 97.5 12.2632 97.5 11.6912H98.5C98.5 12.8012 97.6116 13.714 96.5 13.714V12.714ZM97.5 11.6912C97.5 11.1192 97.0452 10.6685 96.5 10.6685V9.66847C97.6116 9.66847 98.5 10.5812 98.5 11.6912H97.5ZM96.5 10.6685C95.9548 10.6685 95.5 11.1192 95.5 11.6912H94.5C94.5 10.5812 95.3884 9.66847 96.5 9.66847V10.6685ZM103.9 13.4772C103.9 14.0492 104.354 14.5 104.9 14.5V15.5C103.788 15.5 102.9 14.5873 102.9 13.4772H103.9ZM104.9 14.5C105.445 14.5 105.9 14.0492 105.9 13.4772H106.9C106.9 14.5873 106.011 15.5 104.9 15.5V14.5ZM105.9 13.4772C105.9 12.9053 105.445 12.4545 104.9 12.4545V11.4545C106.011 11.4545 106.9 12.3672 106.9 13.4772H105.9ZM104.9 12.4545C104.354 12.4545 103.9 12.9053 103.9 13.4772H102.9C102.9 12.3672 103.788 11.4545 104.9 11.4545V12.4545ZM105.756 8.23206L104.555 8.23207L104.555 7.23207L105.756 7.23206L105.756 8.23206ZM102.306 6.39144L101.916 4.5474L102.894 4.34064L103.284 6.18468L102.306 6.39144ZM96.6517 4.07903C96.1525 5.01435 95.5 6.48997 95.5 7.7321H94.5C94.5 6.22197 95.2641 4.55509 95.7694 3.60823L96.6517 4.07903ZM106.687 7.49301C107.003 7.71508 107.5 8.1854 107.5 8.95026H106.5C106.5 8.66539 106.32 8.45707 106.112 8.31131L106.687 7.49301ZM97.6657 3.50001C97.2288 3.50001 96.8437 3.71911 96.6517 4.07903L95.7694 3.60823C96.1519 2.89143 96.8963 2.50001 97.6657 2.50001L97.6657 3.50001ZM101.916 4.5474C101.786 3.93135 101.253 3.5 100.645 3.5L100.645 2.5C101.735 2.5 102.669 3.27204 102.894 4.34064L101.916 4.5474ZM104.555 8.23207C103.465 8.23208 102.531 7.46004 102.306 6.39144L103.284 6.18468C103.414 6.80073 103.947 7.23208 104.555 7.23207L104.555 8.23207ZM105.756 7.23206C106.031 7.23206 106.38 7.27718 106.687 7.49301L106.112 8.31131C106.046 8.26453 105.936 8.23206 105.756 8.23206L105.756 7.23206ZM96.6438 7.98479C97.3371 7.6503 98.1081 7.53068 98.8593 7.64515L98.7087 8.63374C98.1616 8.55038 97.5942 8.63655 97.0783 8.88545L96.6438 7.98479ZM98.8593 7.64515C99.6108 7.75964 100.305 8.10279 100.855 8.63019L100.162 9.35142C99.761 8.96648 99.2556 8.71707 98.7087 8.63374L98.8593 7.64515ZM100.855 8.63019C101.403 9.15739 101.78 9.84303 101.941 10.598L100.963 10.8065C100.843 10.2421 100.563 9.73657 100.162 9.35142L100.855 8.63019ZM101.941 10.598C102.102 11.3527 102.041 12.144 101.766 12.8729L100.83 12.5209C101.038 11.9681 101.084 11.3712 100.963 10.8065L101.941 10.598ZM101.766 12.8729C101.492 13.6018 101.027 14.226 100.408 14.6898L99.8079 13.8897C100.272 13.5416 100.622 13.0737 100.83 12.5209L101.766 12.8729ZM100.408 14.6898C99.7889 15.1538 99.053 15.4248 98.2918 15.4644L98.2399 14.4657C98.7976 14.4367 99.3437 14.2377 99.8079 13.8897L100.408 14.6898ZM96.1745 8.19116L96.6595 7.97754L97.0626 8.8927L96.5776 9.10632L96.1745 8.19116ZM98.2918 15.4644C96.0467 15.5812 94.5 13.7579 94.5 11.6912H95.5C95.5 13.2791 96.6564 14.5481 98.2399 14.4657L98.2918 15.4644ZM96.5776 9.10632C95.5864 9.5429 94.5 8.80067 94.5 7.7321H95.5C95.5 8.1021 95.8658 8.32715 96.1745 8.19115L96.5776 9.10632ZM107.5 8.95026C107.5 10.3717 107.501 11.6717 107.339 12.7096C107.177 13.7384 106.834 14.6576 106.017 15.1537L105.498 14.2989C105.923 14.0408 106.201 13.5077 106.351 12.5548C106.499 11.6111 106.5 10.4002 106.5 8.95026H107.5ZM100.645 3.5L99.1554 3.5L99.1554 2.5L100.645 2.5L100.645 3.5ZM99.1554 3.5L97.6657 3.50001L97.6657 2.50001L99.1554 2.5L99.1554 3.5Z" fill="#114469"/>
</svg>
