<svg width="60" height="60" viewBox="0 0 60 60" fill="none" xmlns="http://www.w3.org/2000/svg">
<path id="Vector" d="M7.80565 24.0073L7.80564 25.5073L7.80565 24.0073ZM13.4109 24.0073L13.4109 22.5073L13.4109 24.0073ZM21.6241 17.2917L20.1567 16.9805L21.6241 17.2917ZM23.4426 8.71565L24.91 9.0268L23.4426 8.71565ZM31.6558 2L31.6558 0.5L31.6558 2ZM45.5601 2.00004L45.5601 3.50004L45.5601 2.00004ZM52.3508 5.92345L51.0285 6.63154L52.3508 5.92345ZM58 24.0074H56.5V24.0074L58 24.0074ZM4.80212 24.7983L3.94191 23.5695L3.94191 23.5695L4.80212 24.7983ZM49.315 27.2769L48.665 28.6288L48.6883 28.64L48.7121 28.6505L49.315 27.2769ZM40.3412 25.9018L40.5664 27.3848L40.3412 25.9018ZM27.8888 37.8206L26.422 37.5068L27.8888 37.8206ZM28.6074 47.0971L30.0108 46.5674L28.6074 47.0971ZM34.1634 54.505L35.0612 53.3034L34.1634 54.505ZM42.7595 57.6456L42.6819 59.1436L42.7595 57.6456ZM51.5783 28.2704L50.9755 29.6439H50.9755L51.5783 28.2704ZM6.69337 57.4106C7.35332 57.9114 8.29426 57.7823 8.79501 57.1223C9.29577 56.4624 9.16671 55.5215 8.50676 55.0207L6.69337 57.4106ZM38.6079 2.00002L38.6079 3.50002L38.6079 2.00002ZM56.5 42.42C56.5 45.5192 54.0212 48.0018 51 48.0018V51.0018C55.7108 51.0018 59.5 47.1431 59.5 42.42H56.5ZM51 48.0018C47.9788 48.0018 45.5 45.5192 45.5 42.42H42.5C42.5 47.1431 46.2892 51.0018 51 51.0018V48.0018ZM45.5 42.42C45.5 39.3207 47.9788 36.8382 51 36.8382V33.8382C46.2892 33.8382 42.5 37.6969 42.5 42.42H45.5ZM51 36.8382C54.0212 36.8382 56.5 39.3207 56.5 42.42H59.5C59.5 37.6969 55.7108 33.8382 51 33.8382V36.8382ZM17.3 50.5502C17.3 53.6494 14.8212 56.132 11.8 56.132V59.132C16.5108 59.132 20.3 55.2733 20.3 50.5502H17.3ZM11.8 56.132C8.77882 56.132 6.3 53.6494 6.3 50.5502H3.3C3.3 55.2733 7.08919 59.132 11.8 59.132V56.132ZM6.3 50.5502C6.3 47.4509 8.77882 44.9684 11.8 44.9684V41.9684C7.08919 41.9684 3.3 45.8271 3.3 50.5502H6.3ZM11.8 44.9684C14.8212 44.9684 17.3 47.4509 17.3 50.5502H20.3C20.3 45.8271 16.5108 41.9684 11.8 41.9684V44.9684ZM7.80564 25.5073L13.4108 25.5073L13.4109 22.5073L7.80566 22.5073L7.80564 25.5073ZM23.0914 17.6028L24.91 9.0268L21.9752 8.40449L20.1567 16.9805L23.0914 17.6028ZM51.0285 6.63154C53.363 10.9911 56.5 18.0108 56.5 24.0074H59.5C59.5 17.2042 56.026 9.60914 53.6731 5.21535L51.0285 6.63154ZM3.94191 23.5695C2.55802 24.5382 0.5 26.5094 0.5 29.6727H3.5C3.5 27.9541 4.60247 26.7691 5.66233 26.0272L3.94191 23.5695ZM45.5601 3.50004C47.8785 3.50005 49.9746 4.6635 51.0285 6.63154L53.6731 5.21535C52.0456 2.1759 48.871 0.500052 45.5601 0.500042L45.5601 3.50004ZM24.91 9.0268C25.5961 5.79117 28.4156 3.49999 31.6558 3.5L31.6558 0.5C26.9755 0.499986 22.9505 3.8054 21.9752 8.40449L24.91 9.0268ZM13.4108 25.5073C18.0911 25.5073 22.1162 22.2019 23.0914 17.6028L20.1567 16.9805C19.4706 20.2162 16.651 22.5073 13.4109 22.5073L13.4108 25.5073ZM7.80566 22.5073C6.60327 22.5072 5.1749 22.7064 3.94191 23.5695L5.66233 26.0272C6.17406 25.6689 6.88637 25.5072 7.80564 25.5073L7.80566 22.5073ZM49.965 25.9251C46.8779 24.4408 43.4506 23.9125 40.116 24.4188L40.5664 27.3848C43.2908 26.9712 46.1092 27.4 48.665 28.6288L49.965 25.9251ZM40.116 24.4188C36.7807 24.9253 33.6972 26.4429 31.2579 28.7776L33.3323 30.9449C35.326 29.0366 37.8426 27.7984 40.5664 27.3848L40.116 24.4188ZM31.2579 28.7776C28.8192 31.1119 27.1398 34.152 26.422 37.5068L29.3556 38.1344C29.9507 35.3533 31.338 32.8537 33.3323 30.9449L31.2579 28.7776ZM26.422 37.5068C25.7044 40.8607 25.9791 44.3816 27.204 47.6268L30.0108 46.5674C28.9858 43.852 28.7604 40.9164 29.3556 38.1344L26.422 37.5068ZM27.204 47.6268C28.4288 50.8717 30.5068 53.6454 33.2656 55.7067L35.0612 53.3034C32.7659 51.5884 31.0358 49.2832 30.0108 46.5674L27.204 47.6268ZM33.2656 55.7067C36.0248 57.7682 39.3003 58.9683 42.6819 59.1436L42.8371 56.1476C40.0637 56.0038 37.3563 55.0182 35.0612 53.3034L33.2656 55.7067ZM52.1812 26.8969L49.9178 25.9034L48.7121 28.6505L50.9755 29.6439L52.1812 26.8969ZM42.6819 59.1436C52.6023 59.6577 59.5 51.6417 59.5 42.42H56.5C56.5 50.1946 50.7831 56.5594 42.8371 56.1476L42.6819 59.1436ZM50.9755 29.6439C55.0249 31.4213 59.5 28.4078 59.5 24.0074L56.5 24.0074C56.5 26.2974 54.1984 27.7823 52.1812 26.8969L50.9755 29.6439ZM0.5 29.6727C0.5 36.3144 0.529274 42.044 1.26888 46.6347C2.01001 51.235 3.50763 54.9934 6.69337 57.4106L8.50676 55.0207C6.22516 53.2895 4.92274 50.4532 4.23068 46.1576C3.53709 41.8524 3.5 36.3847 3.5 29.6727H0.5ZM31.6558 3.5L38.6079 3.50002L38.6079 0.500021L31.6558 0.5L31.6558 3.5ZM38.6079 3.50002L45.5601 3.50004L45.5601 0.500042L38.6079 0.500021L38.6079 3.50002Z" fill="#222222"/>
</svg>
