<svg width="48" height="48" viewBox="0 0 48 48" fill="none" xmlns="http://www.w3.org/2000/svg">
<path d="M10.893 7.55909L9.42318 14.4306H7.64537L9.11532 7.55909H10.893ZM18.372 11.9961L19.3077 9.41572L19.8462 11.9961H18.372ZM20.3562 14.4306H22L20.5639 7.55909H19.0476C18.7059 7.55909 18.4178 7.75723 18.2903 8.06277L15.6229 14.4306H17.4899L17.8605 13.4044H20.1409L20.3562 14.4306ZM15.7155 12.1873C15.7232 10.3738 13.2085 10.2733 13.2253 9.46301C13.2307 9.21681 13.4656 8.95454 13.9791 8.88746C14.2336 8.8547 14.9361 8.82812 15.7323 9.19502L16.0437 7.73729C15.6161 7.58258 15.0657 7.43359 14.3809 7.43359C12.6235 7.43359 11.3872 8.36709 11.3773 9.70489C11.3661 10.6942 12.2604 11.2458 12.9329 11.5753C13.6262 11.912 13.8585 12.128 13.8551 12.4289C13.8503 12.8899 13.3023 13.0941 12.792 13.1018C11.8977 13.1157 11.3793 12.8601 10.9662 12.6675L10.6435 14.1739C11.0596 14.3643 11.8262 14.53 12.6199 14.5385C14.4883 14.5385 15.7099 13.616 15.7155 12.1873ZM8.35276 7.55909L5.47237 14.4306H3.59349L2.17594 8.94666C2.09001 8.60942 2.01505 8.48547 1.7537 8.34298C1.32621 8.11084 0.620526 7.89369 0 7.75862L0.0420386 7.55909H3.06693C3.45223 7.55909 3.79889 7.81549 3.88714 8.25936L4.63594 12.236L6.48515 7.55909H8.35276Z" fill="#1434CB"/>
<path d="M39.9743 5.6543H34.0254V16.3238H39.9743V5.6543Z" fill="#007AD0"/>
<path d="M34.4035 10.9886C34.4025 9.96106 34.6358 8.94677 35.0857 8.02251C35.5356 7.09825 36.1903 6.28827 37.0002 5.65386C35.9972 4.86706 34.7927 4.37775 33.5243 4.24188C32.2559 4.106 30.9747 4.32904 29.8273 4.8855C28.6799 5.44196 27.7125 6.30938 27.0357 7.38863C26.3589 8.46788 26 9.7154 26 10.9886C26 12.2618 26.3589 13.5093 27.0357 14.5886C27.7125 15.6678 28.6799 16.5353 29.8273 17.0917C30.9747 17.6482 32.2559 17.8712 33.5243 17.7353C34.7927 17.5995 35.9972 17.1102 37.0002 16.3234C36.1903 15.689 35.5356 14.879 35.0857 13.9547C34.6358 13.0305 34.4025 12.0162 34.4035 10.9886Z" fill="#0066BA"/>
<path d="M47.3513 15.1931V14.9746H47.4396V14.9301H47.2148V14.9746H47.3031V15.1931H47.3513ZM47.7877 15.1931V14.9297H47.7188L47.6396 15.1108L47.5603 14.9297H47.4914V15.1931H47.54V14.9944L47.6143 15.1657H47.6648L47.7391 14.994V15.1931H47.7877Z" fill="#00A2E5"/>
<path d="M47.9998 10.9886C47.9999 12.2618 47.641 13.5093 46.9642 14.5886C46.2875 15.6678 45.3201 16.5352 44.1727 17.0917C43.0253 17.6482 41.7442 17.8712 40.4758 17.7353C39.2074 17.5995 38.0029 17.1102 37 16.3234C37.8092 15.6883 38.4634 14.8782 38.9132 13.9541C39.363 13.03 39.5967 12.016 39.5967 10.9886C39.5967 9.96123 39.363 8.94725 38.9132 8.02314C38.4634 7.09903 37.8092 6.28891 37 5.65386C38.0029 4.86705 39.2074 4.37775 40.4758 4.24188C41.7442 4.106 43.0253 4.32905 44.1727 4.88551C45.3201 5.44198 46.2875 6.3094 46.9642 7.38865C47.641 8.4679 47.9999 9.71542 47.9998 10.9886Z" fill="#00A2E5"/>
<path d="M13.9743 31.6641H8.02539V42.3544H13.9743V31.6641Z" fill="#FF5F00"/>
<path d="M8.40342 37.0097C8.40248 35.9801 8.63579 34.9638 9.08568 34.0378C9.53556 33.1117 10.1902 32.3001 11.0001 31.6645C9.99719 30.8762 8.79267 30.3859 7.52427 30.2498C6.25586 30.1136 4.97474 30.3371 3.82733 30.8946C2.67993 31.4522 1.71253 32.3213 1.03572 33.4027C0.358917 34.484 0 35.734 0 37.0097C0 38.2854 0.358917 39.5353 1.03572 40.6167C1.71253 41.698 2.67993 42.5671 3.82733 43.1247C4.97474 43.6822 6.25586 43.9057 7.52427 43.7696C8.79267 43.6334 9.99719 43.1432 11.0001 42.3548C10.1902 41.7192 9.53557 40.9076 9.08568 39.9815C8.6358 39.0555 8.40249 38.0392 8.40342 37.0097Z" fill="#EB001B"/>
<path d="M21.9998 37.0097C21.9998 38.2853 21.641 39.5353 20.9642 40.6166C20.2874 41.698 19.3201 42.5671 18.1727 43.1247C17.0253 43.6822 15.7442 43.9057 14.4758 43.7696C13.2074 43.6334 12.0029 43.1432 11 42.3548C11.8092 41.7185 12.4634 40.9068 12.9132 39.9809C13.363 39.055 13.5967 38.039 13.5967 37.0097C13.5967 35.9803 13.363 34.9643 12.9132 34.0384C12.4634 33.1125 11.8092 32.3008 11 31.6645C12.0029 30.8762 13.2074 30.3859 14.4758 30.2498C15.7442 30.1136 17.0253 30.3371 18.1727 30.8947C19.3201 31.4522 20.2874 32.3213 20.9642 33.4027C21.641 34.484 21.9998 35.734 21.9998 37.0097Z" fill="#F79E1B"/>
<path d="M21.3513 41.2219V41.003H21.4396V40.9584H21.2148V41.003H21.3031V41.2219H21.3513ZM21.7877 41.2219V40.958H21.7188L21.6396 41.1395L21.5603 40.958H21.4914V41.2219H21.54V41.0228L21.6143 41.1945H21.6648L21.7391 41.0224V41.2219H21.7877Z" fill="#F79E1B"/>
<path d="M39.9743 31.6641H34.0254V42.3544H39.9743V31.6641Z" fill="#7375CF"/>
<path d="M34.4035 37.0097C34.4025 35.9801 34.6358 34.9638 35.0857 34.0378C35.5356 33.1117 36.1903 32.3002 37.0002 31.6645C35.9972 30.8762 34.7927 30.3859 33.5243 30.2498C32.2559 30.1136 30.9747 30.3371 29.8273 30.8946C28.6799 31.4522 27.7125 32.3213 27.0357 33.4027C26.3589 34.484 26 35.734 26 37.0097C26 38.2854 26.3589 39.5353 27.0357 40.6167C27.7125 41.6981 28.6799 42.5672 29.8273 43.1247C30.9747 43.6823 32.2559 43.9057 33.5243 43.7696C34.7927 43.6335 35.9972 43.1432 37.0002 42.3549C36.1903 41.7192 35.5356 40.9076 35.0857 39.9816C34.6358 39.0555 34.4025 38.0392 34.4035 37.0097Z" fill="#EB001B"/>
<path d="M47.3513 41.2229V41.004H47.4396V40.9594H47.2148V41.004H47.3031V41.2229H47.3513ZM47.7877 41.2229V40.959H47.7188L47.6396 41.1405L47.5603 40.959H47.4914V41.2229H47.54V41.0238L47.6143 41.1954H47.6648L47.7391 41.0234V41.2229H47.7877Z" fill="#00A2E5"/>
<path d="M47.9998 37.0097C47.9999 38.2854 47.641 39.5353 46.9642 40.6167C46.2875 41.698 45.3201 42.5672 44.1727 43.1247C43.0253 43.6823 41.7442 43.9057 40.4758 43.7696C39.2074 43.6335 38.0029 43.1432 37 42.3548C37.8092 41.7186 38.4634 40.9069 38.9132 39.9809C39.363 39.055 39.5967 38.0391 39.5967 37.0097C39.5967 35.9803 39.363 34.9643 38.9132 34.0384C38.4634 33.1125 37.8092 32.3008 37 31.6645C38.0029 30.8762 39.2074 30.3859 40.4758 30.2498C41.7442 30.1136 43.0253 30.3371 44.1727 30.8947C45.3201 31.4522 46.2875 32.3213 46.9642 33.4027C47.641 34.484 47.9999 35.734 47.9998 37.0097Z" fill="#00A2E5"/>
</svg>
