<svg width="393" height="28" viewBox="0 0 393 28" fill="none" xmlns="http://www.w3.org/2000/svg">
<circle cx="100.5" cy="24" r="4" fill="#B0BCC4"/>
<circle cx="132.5" cy="24" r="4" fill="#B0BCC4"/>
<circle cx="164.5" cy="24" r="4" fill="#B0BCC4"/>
<circle cx="196.5" cy="24" r="4" fill="#114469"/>
<circle cx="228.5" cy="24" r="3.5" stroke="#114469"/>
<circle cx="260.5" cy="24" r="3.5" stroke="#114469"/>
<circle cx="292.5" cy="24" r="3.5" stroke="#114469"/>
<path d="M201.756 7.73206L201.756 8.23206H201.756L201.756 7.73206ZM200.555 7.73207L200.555 7.23207H200.555L200.555 7.73207ZM198.795 6.28806L198.306 6.39144L198.795 6.28806ZM198.405 4.44402L198.894 4.34064L198.405 4.44402ZM196.645 3L196.645 2.5L196.645 3ZM193.666 3.00001L193.666 3.50001L193.666 3.00001ZM192.211 3.84363L192.652 4.07903V4.07903L192.211 3.84363ZM191 7.7321H191.5H191ZM202.4 7.90216L202.687 7.49301L202.687 7.49301L202.4 7.90216ZM192.861 8.43512L193.078 8.88545L193.071 8.88921L193.063 8.8927L192.861 8.43512ZM194.784 8.13944L194.709 8.63374L194.784 8.13944ZM197.452 10.7022L196.963 10.8065L197.452 10.7022ZM197.298 12.6969L196.83 12.5209L197.298 12.6969ZM196.108 14.2898L195.808 13.8897L196.108 14.2898ZM194.266 14.9651L194.292 15.4644L194.266 14.9651ZM192.376 8.64874L192.578 9.10632L192.578 9.10632L192.376 8.64874ZM202.017 15.1537C201.781 15.297 201.474 15.2218 201.33 14.9857C201.187 14.7497 201.262 14.4422 201.498 14.2989L202.017 15.1537ZM195.155 3L195.155 2.5L195.155 3ZM191.5 11.6912C191.5 12.2632 191.955 12.714 192.5 12.714V13.714C191.388 13.714 190.5 12.8012 190.5 11.6912H191.5ZM192.5 12.714C193.045 12.714 193.5 12.2632 193.5 11.6912H194.5C194.5 12.8012 193.612 13.714 192.5 13.714V12.714ZM193.5 11.6912C193.5 11.1192 193.045 10.6685 192.5 10.6685V9.66847C193.612 9.66847 194.5 10.5812 194.5 11.6912H193.5ZM192.5 10.6685C191.955 10.6685 191.5 11.1192 191.5 11.6912H190.5C190.5 10.5812 191.388 9.66847 192.5 9.66847V10.6685ZM199.9 13.4772C199.9 14.0492 200.354 14.5 200.9 14.5V15.5C199.788 15.5 198.9 14.5873 198.9 13.4772H199.9ZM200.9 14.5C201.445 14.5 201.9 14.0492 201.9 13.4772H202.9C202.9 14.5873 202.011 15.5 200.9 15.5V14.5ZM201.9 13.4772C201.9 12.9053 201.445 12.4545 200.9 12.4545V11.4545C202.011 11.4545 202.9 12.3672 202.9 13.4772H201.9ZM200.9 12.4545C200.354 12.4545 199.9 12.9053 199.9 13.4772H198.9C198.9 12.3672 199.788 11.4545 200.9 11.4545V12.4545ZM201.756 8.23206L200.555 8.23207L200.555 7.23207L201.756 7.23206L201.756 8.23206ZM198.306 6.39144L197.916 4.5474L198.894 4.34064L199.284 6.18468L198.306 6.39144ZM192.652 4.07903C192.153 5.01435 191.5 6.48997 191.5 7.7321H190.5C190.5 6.22197 191.264 4.55509 191.769 3.60823L192.652 4.07903ZM202.687 7.49301C203.003 7.71508 203.5 8.1854 203.5 8.95026H202.5C202.5 8.66539 202.32 8.45707 202.112 8.31131L202.687 7.49301ZM193.666 3.50001C193.229 3.50001 192.844 3.71911 192.652 4.07903L191.769 3.60823C192.152 2.89143 192.896 2.50001 193.666 2.50001L193.666 3.50001ZM197.916 4.5474C197.786 3.93135 197.253 3.5 196.645 3.5L196.645 2.5C197.735 2.5 198.669 3.27204 198.894 4.34064L197.916 4.5474ZM200.555 8.23207C199.465 8.23208 198.531 7.46004 198.306 6.39144L199.284 6.18468C199.414 6.80073 199.947 7.23208 200.555 7.23207L200.555 8.23207ZM201.756 7.23206C202.031 7.23206 202.38 7.27718 202.687 7.49301L202.112 8.31131C202.046 8.26453 201.936 8.23206 201.756 8.23206L201.756 7.23206ZM192.644 7.98479C193.337 7.6503 194.108 7.53068 194.859 7.64515L194.709 8.63374C194.162 8.55038 193.594 8.63655 193.078 8.88545L192.644 7.98479ZM194.859 7.64515C195.611 7.75964 196.305 8.10279 196.855 8.63019L196.162 9.35142C195.761 8.96648 195.256 8.71707 194.709 8.63374L194.859 7.64515ZM196.855 8.63019C197.403 9.15739 197.78 9.84303 197.941 10.598L196.963 10.8065C196.843 10.2421 196.563 9.73657 196.162 9.35142L196.855 8.63019ZM197.941 10.598C198.102 11.3527 198.041 12.144 197.766 12.8729L196.83 12.5209C197.038 11.9681 197.084 11.3712 196.963 10.8065L197.941 10.598ZM197.766 12.8729C197.492 13.6018 197.027 14.226 196.408 14.6898L195.808 13.8897C196.272 13.5416 196.622 13.0737 196.83 12.5209L197.766 12.8729ZM196.408 14.6898C195.789 15.1538 195.053 15.4248 194.292 15.4644L194.24 14.4657C194.798 14.4367 195.344 14.2377 195.808 13.8897L196.408 14.6898ZM192.175 8.19116L192.66 7.97754L193.063 8.8927L192.578 9.10632L192.175 8.19116ZM194.292 15.4644C192.047 15.5812 190.5 13.7579 190.5 11.6912H191.5C191.5 13.2791 192.656 14.5481 194.24 14.4657L194.292 15.4644ZM192.578 9.10632C191.586 9.5429 190.5 8.80067 190.5 7.7321H191.5C191.5 8.1021 191.866 8.32715 192.175 8.19115L192.578 9.10632ZM203.5 8.95026C203.5 10.3717 203.501 11.6717 203.339 12.7096C203.177 13.7384 202.834 14.6576 202.017 15.1537L201.498 14.2989C201.923 14.0408 202.201 13.5077 202.351 12.5548C202.499 11.6111 202.5 10.4002 202.5 8.95026H203.5ZM196.645 3.5L195.155 3.5L195.155 2.5L196.645 2.5L196.645 3.5ZM195.155 3.5L193.666 3.50001L193.666 2.50001L195.155 2.5L195.155 3.5Z" fill="#001F30"/>
</svg>
