<svg width="24" height="24" viewBox="0 0 24 24" fill="none" xmlns="http://www.w3.org/2000/svg">
<g id="icon">
<g id="icon_2">
<path d="M11.999 2C6.47902 2 1.99902 6.48 1.99902 12C1.99902 17.52 6.47902 22 11.999 22C17.519 22 21.999 17.52 21.999 12C21.999 6.48 17.519 2 11.999 2ZM11.999 20C7.57902 20 3.99902 16.42 3.99902 12C3.99902 7.58 7.57902 4 11.999 4C16.419 4 19.999 7.58 19.999 12C19.999 16.42 16.419 20 11.999 20Z" fill="#114469"/>
<path d="M11.999 17C14.7604 17 16.999 14.7614 16.999 12C16.999 9.23858 14.7604 7 11.999 7C9.2376 7 6.99902 9.23858 6.99902 12C6.99902 14.7614 9.2376 17 11.999 17Z" fill="#114469"/>
</g>
</g>
</svg>
