<svg width="90" height="64" viewBox="0 0 90 64" fill="none" xmlns="http://www.w3.org/2000/svg">
<g clip-path="url(#clip0_3067_7417)">
<path d="M50.5 27.5576C50.6667 28.391 50.8991 31.1999 48.4997 31.9999C45.5036 33.4575 43.0307 34.079 40.9989 34.081M50.5 27.5576C48.6664 27.891 46.7993 28.881 48 34.081C49.2007 39.281 43.4992 38.4999 40.9989 36.4999V34.081M50.5 27.5576L50.0006 30.8077L49.7508 32.4327L49.5 34.081C48.9989 35.0233 53.5 37.5 55.5 38C58.4104 38.7276 62.5 39.5 66 38C69.5 36.5 65 35 70 33.5C74 32.3 72.3333 29 71 27.5C71.6667 27.1667 73.9 25.8 77.5 23C81.1 20.2 75.3333 20.1667 72 20.5C72.5 20.3333 74.1 19.2 76.5 16C78.9 12.8 76.5 11.6667 75 11.5C70.3333 12.3333 62.3 13.6 67.5 12C72.7 10.4 72 6.33333 71 4.5C70.8333 6 68.9 8.49998 62.5 6.4999C36 -3.5001 35 6.9999 35.9989 9.9999C22.7989 15.5999 28.2316 22.3332 32.5979 24.9999M40.9989 34.081C35.5854 34.0865 33.3029 29.6943 32.5979 24.9999M32.5979 24.9999C32.2605 22.7527 32.2846 20.4363 32.4997 18.4999C33.3332 16.8333 35.7 14.0001 38.5 16C42 18.4999 49 31.9999 59.5 28.4999" stroke="#001F30" stroke-linecap="round" stroke-linejoin="round"/>
<path d="M41 36.4998H32C29.3333 34.8331 27.5 30.3996 27.5 27.9996C27.5 25.5996 23.1667 28.6667 21.5 30C23.3333 33.8333 26.0015 38.334 27 38.9996C28.5 39.9996 31 42.9996 33 43.4996C33.1667 46.333 33.7 52.8996 34.5 56.4996C35.3 60.0996 31.8333 62.9996 30 63.9996L53.5 64.4996C52.5 60.6663 52.0473 52.8893 53.5 49.4996C55 45.9996 54.5 37.4998 53.5 37.4998C50 34.9996 46 36.4998 38.5 46.4996C36.1 46.4996 27.5 46.4996 23.5 46.4996V51.9996C28.1667 52.6663 38 53.6996 40 52.4996C42 51.2996 48.5 46.6663 51.5 44.4996" stroke="#001F30" stroke-linecap="round" stroke-linejoin="round"/>
<path d="M23.4493 46.7671C20.5149 45.0424 14.206 42.3455 12.4453 45.356C10.2445 49.1191 9.14413 48.6487 10.7947 50.5303C12.1152 52.0355 13.546 52.0982 14.0964 51.9414C15.0134 51.9414 17.3976 51.9414 19.5984 51.9414C21.7992 51.9414 23.4498 51.9414 24 51.9414" stroke="#001F30" stroke-linecap="round" stroke-linejoin="round"/>
<path d="M28.6962 23.3833C28.6962 24.1833 26.3628 26.3833 25.1962 27.3833L21.1953 29.8833C20.862 29.3833 19.9955 28.1833 19.1962 27.3833C18.197 26.3832 18.6962 24.8833 18.1962 23.3833C17.6962 21.8832 18.1962 22.3833 19.1962 20.3833C20.1962 18.3833 21.6962 19.8834 22.6962 17.8834C23.4962 16.2834 24.6962 17.2168 25.1962 17.8834L26.1962 23.3833C27.0295 23.0499 28.6962 22.5833 28.6962 23.3833Z" stroke="#001F30" stroke-linecap="round" stroke-linejoin="round"/>
<path d="M28.009 45.8951C26.0098 35.895 12.509 24.395 12.009 47.3951C11.509 62.8952 32.009 71.8951 28.009 45.8951Z" stroke="#001F30" stroke-linecap="round" stroke-linejoin="round"/>
<path d="M25.6651 46.4523C24.3344 40.099 15.3486 32.7928 15.0158 47.4052C14.683 57.2527 28.3274 62.9705 25.6651 46.4523Z" stroke="#001F30" stroke-linecap="round" stroke-linejoin="round"/>
<path d="M70 33.5C72.5 35.3333 76.7 40 73.5 44C69.5 49 63.5 61 63.5 63.5C63.5 65.5 56.8333 64.6667 53.5 64" stroke="#001F30" stroke-linecap="round" stroke-linejoin="round"/>
<path d="M87.5 0C88.3333 20.6667 85.6 62.9 68 66.5" stroke="#001F30" stroke-linecap="round" stroke-linejoin="round"/>
<path d="M39 36.5L42 42L39 46L34.5 36.5" stroke="#001F30" stroke-linecap="round" stroke-linejoin="round"/>
<path d="M45.5 49L52.5 56.5L53.5 63.5L42 51.5" stroke="#001F30" stroke-linecap="round" stroke-linejoin="round"/>
<path d="M11.9994 43C8.49943 45.1667 1.79943 50.7 2.99943 55.5C4.19943 60.3 6.83314 63.5 8 64.5" stroke="#001F30" stroke-linecap="round" stroke-linejoin="round"/>
</g>
<defs>
<clipPath id="clip0_3067_7417">
<rect width="90" height="64" fill="white"/>
</clipPath>
</defs>
</svg>
