<svg width="19" height="18" viewBox="0 0 19 18" fill="none" xmlns="http://www.w3.org/2000/svg">
<g id="Linear / Hands / Hand Stars">
<path id="Vector" d="M8.64595 2.52251C9.02594 1.84084 9.21594 1.5 9.5 1.5C9.78406 1.5 9.97406 1.84084 10.3541 2.52251L10.4524 2.69887C10.5603 2.89258 10.6143 2.98944 10.6985 3.05334C10.7827 3.11725 10.8875 3.14097 11.0972 3.18841L11.2881 3.23161C12.026 3.39857 12.395 3.48205 12.4828 3.76432C12.5706 4.04659 12.319 4.34072 11.816 4.92898L11.6858 5.08117C11.5429 5.24833 11.4714 5.33191 11.4392 5.43531C11.4071 5.53872 11.4179 5.65023 11.4395 5.87327L11.4592 6.07632C11.5352 6.86118 11.5733 7.25361 11.3435 7.42807C11.1136 7.60252 10.7682 7.44346 10.0773 7.12535L9.89855 7.04305C9.70222 6.95265 9.60406 6.90745 9.5 6.90745C9.39594 6.90745 9.29778 6.95265 9.10145 7.04305L8.9227 7.12535C8.2318 7.44346 7.88635 7.60252 7.65654 7.42807C7.42674 7.25361 7.46476 6.86118 7.54082 6.07632L7.5605 5.87327C7.58211 5.65023 7.59291 5.53872 7.56076 5.43531C7.5286 5.33191 7.45713 5.24833 7.31418 5.08117L7.18403 4.92898C6.68097 4.34072 6.42945 4.04659 6.51723 3.76432C6.60501 3.48205 6.97396 3.39857 7.71186 3.23161L7.90277 3.18841C8.11246 3.14097 8.2173 3.11725 8.30148 3.05334C8.38567 2.98944 8.43966 2.89258 8.54764 2.69887L8.64595 2.52251Z" stroke="#001F30"/>
<path id="Vector_2" d="M15.073 5.76126C15.263 5.42042 15.358 5.25 15.5 5.25C15.642 5.25 15.737 5.42042 15.927 5.76126L15.9762 5.84943C16.0302 5.94629 16.0572 5.99472 16.0993 6.02667C16.1414 6.05862 16.1938 6.07049 16.2986 6.09421L16.3941 6.1158C16.763 6.19928 16.9475 6.24102 16.9914 6.38216C17.0353 6.5233 16.9095 6.67036 16.658 6.96449L16.5929 7.04058C16.5214 7.12417 16.4857 7.16596 16.4696 7.21766C16.4535 7.26936 16.4589 7.32512 16.4698 7.43663L16.4796 7.53816C16.5176 7.93059 16.5366 8.12681 16.4217 8.21403C16.3068 8.30126 16.1341 8.22173 15.7886 8.06268L15.6993 8.02153C15.6011 7.97633 15.552 7.95373 15.5 7.95373C15.448 7.95373 15.3989 7.97633 15.3007 8.02153L15.2114 8.06268C14.8659 8.22173 14.6932 8.30126 14.5783 8.21403C14.4634 8.12681 14.4824 7.93059 14.5204 7.53816L14.5302 7.43663C14.5411 7.32512 14.5465 7.26936 14.5304 7.21766C14.5143 7.16596 14.4786 7.12417 14.4071 7.04058L14.342 6.96449C14.0905 6.67036 13.9647 6.5233 14.0086 6.38216C14.0525 6.24102 14.237 6.19928 14.6059 6.1158L14.7014 6.09421C14.8062 6.07049 14.8586 6.05862 14.9007 6.02667C14.9428 5.99472 14.9698 5.94629 15.0238 5.84944L15.073 5.76126Z" stroke="#001F30"/>
<path id="Vector_3" d="M3.07297 5.76126C3.26297 5.42042 3.35797 5.25 3.5 5.25C3.64203 5.25 3.73703 5.42042 3.92703 5.76126L3.97618 5.84943C4.03017 5.94629 4.05717 5.99472 4.09926 6.02667C4.14135 6.05862 4.19377 6.07049 4.29862 6.09421L4.39407 6.1158C4.76302 6.19928 4.9475 6.24102 4.99139 6.38216C5.03528 6.5233 4.90951 6.67036 4.65799 6.96449L4.59291 7.04058C4.52144 7.12417 4.4857 7.16596 4.46962 7.21766C4.45354 7.26936 4.45895 7.32512 4.46975 7.43663L4.47959 7.53816C4.51762 7.93059 4.53663 8.12681 4.42173 8.21403C4.30682 8.30126 4.1341 8.22173 3.78865 8.06268L3.69928 8.02153C3.60111 7.97633 3.55203 7.95373 3.5 7.95373C3.44797 7.95373 3.39889 7.97633 3.30072 8.02153L3.21135 8.06268C2.8659 8.22173 2.69318 8.30126 2.57827 8.21403C2.46337 8.12681 2.48238 7.93059 2.52041 7.53816L2.53025 7.43663C2.54105 7.32512 2.54646 7.26936 2.53038 7.21766C2.5143 7.16596 2.47856 7.12417 2.40709 7.04058L2.34201 6.96449C2.09049 6.67036 1.96472 6.5233 2.00861 6.38216C2.0525 6.24102 2.23698 6.19928 2.60593 6.1158L2.70138 6.09421C2.80623 6.07049 2.85865 6.05862 2.90074 6.02667C2.94283 5.99472 2.96983 5.94629 3.02382 5.84944L3.07297 5.76126Z" stroke="#001F30"/>
<path id="Vector_4" d="M3.5 16.0413H5.19495C5.9531 16.0413 6.7194 16.1203 7.45725 16.2723C8.76243 16.5412 10.1366 16.5738 11.4552 16.3603C12.1053 16.2551 12.7445 16.0942 13.3231 15.8149C13.8454 15.5628 14.4852 15.2075 14.9149 14.8094C15.3441 14.412 15.791 13.7615 16.1082 13.2531C16.3802 12.8171 16.2486 12.2821 15.8184 11.9573C15.3405 11.5964 14.6313 11.5965 14.1535 11.9574L12.7981 12.9813C12.2728 13.3781 11.699 13.7434 11.0154 13.8524C10.9333 13.8655 10.8471 13.8775 10.7573 13.8879M10.7573 13.8879C10.7302 13.891 10.7028 13.894 10.6751 13.8969M10.7573 13.8879C10.8666 13.8645 10.9752 13.797 11.0771 13.7081C11.5595 13.2871 11.59 12.5775 11.1714 12.1073C11.0743 11.9983 10.9607 11.9073 10.8343 11.8319C8.7363 10.5806 5.47206 11.5337 3.5 12.9322M10.7573 13.8879C10.7299 13.8938 10.7025 13.8969 10.6751 13.8969M10.6751 13.8969C10.2826 13.9372 9.82337 13.9476 9.31382 13.8995" stroke="#001F30" stroke-linecap="round"/>
</g>
</svg>
