<svg width="25" height="24" viewBox="0 0 25 24" fill="none" xmlns="http://www.w3.org/2000/svg">
<path fill-rule="evenodd" clip-rule="evenodd" d="M8.48731 9.75485C8.98289 9.37582 9.37776 8.8649 9.61897 8.26762C10.4123 7.57118 11.3246 7.22818 12.2788 7.12669C12.4856 7.37935 12.7282 7.68407 12.847 8.00761C13.0805 8.64312 13.0729 9.19225 12.9111 9.6642L12.7656 9.6869C11.3179 9.91288 9.53416 10.1913 8.48731 9.75485ZM3.48286 16.7821C4.03798 16.0915 4.88445 15.648 5.83892 15.648C7.5258 15.648 8.87537 17.0333 8.87537 18.7199C8.87537 20.4065 7.5258 21.7918 5.83892 21.7918C5.19579 21.7918 4.60169 21.5904 4.11271 21.2478C2.88945 20.4901 2.36591 19.0972 2.11749 17.512C1.86716 15.9147 1.86717 13.9147 1.86719 11.7177V11.7176V11.6685C1.86719 10.515 2.61624 9.80304 3.10012 9.46314C3.55976 9.14028 4.0845 9.071 4.50499 9.071L6.37589 9.07102C7.35991 9.07103 8.22208 8.37229 8.4324 7.37704L9.03939 4.50471C9.38359 2.8759 10.806 1.70019 12.4656 1.7002L14.7861 1.7002L17.1066 1.70021C18.2788 1.70021 19.4099 2.29632 19.9907 3.3847C20.7773 4.85864 21.9588 7.43995 21.9588 9.77106C21.9588 11.3804 20.3234 12.4958 18.8332 11.8395L18.0777 11.5067L18.0666 11.5018L18.0557 11.4966C17.2382 11.1021 16.3384 10.9653 15.4701 11.0976C14.6021 11.2298 13.7999 11.6257 13.1639 12.2365C12.5276 12.8476 12.0836 13.6493 11.8929 14.5434C11.7022 15.438 11.7742 16.3831 12.1033 17.2579C12.4325 18.133 12.9872 18.8741 13.7225 19.4254C14.4578 19.9766 15.3234 20.2923 16.2082 20.3383C17.5547 20.4083 18.7049 19.8635 19.4839 18.9575C19.3021 18.9918 19.1144 19.0098 18.9223 19.0098C17.2354 19.0098 15.8859 17.6245 15.8859 15.9379C15.8859 14.2513 17.2354 12.866 18.9223 12.866C20.6092 12.866 21.9588 14.2513 21.9588 15.9379C21.9588 19.1193 19.5803 21.9156 16.1355 21.7364C15.0849 21.6818 14.0652 21.3402 13.1788 20.7542C12.4207 20.3864 11.1696 19.0434 8.36763 15.4843C6.38546 13.6734 3.99933 15.3237 3.48286 16.7821ZM5.83892 17.048C4.94504 17.048 4.20247 17.7865 4.20247 18.7199C4.20247 19.6532 4.94503 20.3918 5.83892 20.3918C6.73281 20.3918 7.47537 19.6532 7.47537 18.7199C7.47537 17.7865 6.73281 17.048 5.83892 17.048Z" fill="white"/>
</svg>
