<svg width="393" height="105" viewBox="0 0 393 105" fill="none" xmlns="http://www.w3.org/2000/svg">
<path d="M16.5 94.5C76 109.5 29.4 88.5999 27 86.9999C24 84.9999 37.5 77.4999 35 76.4999C33 75.6999 22.5 75.1665 17.5 74.9999L22.5 70.4999C22.5 70.8332 22.8 70.7999 24 67.9999C25.5 64.4999 24.5001 44.4999 33.5 58.4999C35.5 61.3 37.3333 59 38 57.5C39 55.5 41 52.5 41 56.5C41 61.5 47 52.9998 45.5 58.4999C44 64 48 62.0001 46 65C44 67.9999 47 68.5001 44 69.5C41 70.4999 44.5 68.5001 42 72.5C39.5 76.4999 49.5 70.9998 48 76.4999C46.5 82 49.5 75.5 51 78C52.5 80.5 51 73.9998 54.5 76.4999C58 79 63.5 75.0001 60.5 81C57.5 86.9999 52.5 84 46.5 83.5C40.5 83 54 95 46 92C38 89 30 81.5 37 81C44 80.5 40.5 82 44 81.5C47.5 81 52 81.9998 53 86.9999C54 92 52 91 56 92C60 93 61 94 67.5 94C74 94 70.5 92 79 95.5C87.5 99 102 106.5 96 101.5C90 96.5 80.5 94 91 95.5C101.5 97 105.5 95.5 114 97.5C122.5 99.5 123 105.5 131 104C139 102.5 122 97.5 127.5 97.5C131.9 97.5 138.333 97.5 141 97.5" stroke="#001F30" stroke-width="1.5" stroke-linecap="round"/>
<path d="M49.5 47H53L53.5 52L63.5 55L67 57.5L66.5 60L62 60.5L58 61M58 61L54.5 60M58 61V90L47.5 89V55L51.5 51L54 55L54.5 60M54.5 60V74.5H62V79H63.5C63.5 75.3333 63.6 67.9 64 67.5C64.5 67 65.5 64 67.5 67.5V79L68.5 82H74.5C74.1667 76.5 73.9 65.6 75.5 66C77.1 66.4 77.1667 72.5 77 75.5H81L83 84.5H86V68H90.5L90 84M90 84C92 81.6667 95.9 78.2 95.5 83C95 89 101 81 103 86C105 91 109 90 110 93C111 96 114.5 94.5 120 95C124.4 95.4 129.5 96.5 131.5 97L87 95C85.8333 92.6667 84.5 88.2 88.5 89C93.5 90 92 88 91 87C90.2 86.2 90 84.6667 90 84ZM68.5 55.5L71.5 55L74 55.5L73.5 54L71.5 49.5H69L68.5 55.5Z" stroke="#001F30" stroke-width="1.5" stroke-linecap="round"/>
<path d="M71.5 55L72 61L74 61.5V56" stroke="#001F30" stroke-width="1.5" stroke-linecap="round"/>
<path d="M66.5 60L71.5 60.5L74.5 62V63.5L77 64.5H81L131.5 59L111 73C112 78 114.3 86.3 115.5 79.5C117 71 112.5 67 108.5 72C104.5 77 116 84 113.5 87.5C111.5 90.3 111 92 111 92.5L130.5 89.5H131.5" stroke="#001F30" stroke-width="1.5" stroke-linecap="round"/>
<path d="M308.488 76.4641L308.488 77.2141H308.488L308.488 76.4641ZM310.89 76.4641L310.89 75.7141H310.89L310.89 76.4641ZM314.41 73.5761L315.144 73.7312L314.41 73.5761ZM315.19 69.888L314.456 69.733V69.733L315.19 69.888ZM318.71 67L318.71 66.25L318.71 67ZM324.669 67L324.669 67.75L324.669 67ZM327.579 68.6873L326.917 69.0404V69.0404L327.579 68.6873ZM330 76.4642H329.25H330ZM307.201 76.8043L306.77 76.1906L306.77 76.1906L307.201 76.8043ZM326.278 77.8702L325.952 78.5457L325.964 78.5514L325.976 78.5566L326.278 77.8702ZM322.432 77.2789L322.545 78.0203L322.432 77.2789ZM317.095 82.4045L317.829 82.5609L317.095 82.4045ZM317.403 86.3938L318.105 86.1298L317.403 86.3938ZM319.784 89.5796L320.234 88.9795L319.784 89.5796ZM323.468 90.9301L323.429 91.6791L323.468 90.9301ZM327.248 78.2975L326.946 78.9839H326.946L327.248 78.2975ZM308.095 91.0936C308.449 91.3086 308.911 91.1958 309.125 90.8417C309.34 90.4877 309.228 90.0264 308.874 89.8114L308.095 91.0936ZM321.689 67L321.689 66.25L321.689 67ZM329.25 84.3824C329.25 85.6609 328.232 86.6779 327 86.6779V88.1779C329.082 88.1779 330.75 86.468 330.75 84.3824H329.25ZM327 86.6779C325.768 86.6779 324.75 85.6609 324.75 84.3824H323.25C323.25 86.468 324.918 88.1779 327 88.1779V86.6779ZM324.75 84.3824C324.75 83.104 325.768 82.0869 327 82.0869V80.5869C324.918 80.5869 323.25 82.2969 323.25 84.3824H324.75ZM327 82.0869C328.232 82.0869 329.25 83.104 329.25 84.3824H330.75C330.75 82.2969 329.082 80.5869 327 80.5869V82.0869ZM312.451 87.9545C312.451 89.233 311.433 90.25 310.201 90.25V91.75C312.283 91.75 313.951 90.04 313.951 87.9545H312.451ZM310.201 90.25C308.969 90.25 307.951 89.233 307.951 87.9545H306.451C306.451 90.04 308.119 91.75 310.201 91.75V90.25ZM307.951 87.9545C307.951 86.676 308.969 85.659 310.201 85.659V84.159C308.119 84.159 306.451 85.869 306.451 87.9545H307.951ZM310.201 85.659C311.433 85.659 312.451 86.676 312.451 87.9545H313.951C313.951 85.869 312.283 84.159 310.201 84.159V85.659ZM308.488 77.2141L310.89 77.2141L310.89 75.7141L308.488 75.7141L308.488 77.2141ZM315.144 73.7312L315.923 70.0431L314.456 69.733L313.677 73.421L315.144 73.7312ZM326.917 69.0404C327.917 70.9139 329.25 73.9129 329.25 76.4642H330.75C330.75 73.5109 329.25 70.225 328.241 68.3342L326.917 69.0404ZM306.77 76.1906C306.165 76.6157 305.25 77.4908 305.25 78.9005H306.75C306.75 78.2108 307.19 77.7286 307.632 77.418L306.77 76.1906ZM324.669 67.75C325.625 67.75 326.485 68.2313 326.917 69.0404L328.241 68.3342C327.523 66.9898 326.124 66.25 324.669 66.25L324.669 67.75ZM315.923 70.0431C316.208 68.6979 317.374 67.75 318.71 67.75L318.71 66.25C316.65 66.25 314.884 67.7089 314.456 69.733L315.923 70.0431ZM310.89 77.2141C312.95 77.2142 314.716 75.7552 315.144 73.7312L313.677 73.421C313.392 74.7663 312.226 75.7142 310.89 75.7141L310.89 77.2141ZM308.488 75.7141C307.962 75.7141 307.324 75.8012 306.77 76.1906L307.632 77.418C307.825 77.2822 308.105 77.2141 308.488 77.2141L308.488 75.7141ZM326.604 77.1948C325.262 76.5472 323.77 76.3163 322.319 76.5374L322.545 78.0203C323.69 77.8458 324.876 78.0265 325.952 78.5457L326.604 77.1948ZM322.319 76.5374C320.867 76.7586 319.525 77.4215 318.464 78.4407L319.503 79.5225C320.342 78.717 321.4 78.1948 322.545 78.0203L322.319 76.5374ZM318.464 78.4407C317.403 79.4596 316.673 80.7858 316.362 82.2481L317.829 82.5609C318.08 81.3844 318.664 80.3283 319.503 79.5225L318.464 78.4407ZM316.362 82.2481C316.05 83.71 316.169 85.2441 316.701 86.6579L318.105 86.1298C317.673 84.9802 317.578 83.7378 317.829 82.5609L316.362 82.2481ZM316.701 86.6579C317.233 88.0715 318.136 89.2808 319.334 90.1797L320.234 88.9795C319.267 88.2544 318.538 87.2795 318.105 86.1298L316.701 86.6579ZM319.334 90.1797C320.533 91.0786 321.958 91.6026 323.429 91.6791L323.507 90.1812C322.341 90.1205 321.201 89.7045 320.234 88.9795L319.334 90.1797ZM327.55 77.6111L326.58 77.1839L325.976 78.5566L326.946 78.9839L327.55 77.6111ZM323.429 91.6791C327.754 91.904 330.75 88.3961 330.75 84.3824H329.25C329.25 87.678 326.84 90.3545 323.507 90.1812L323.429 91.6791ZM326.946 78.9839C328.757 79.7819 330.75 78.4267 330.75 76.4642H329.25C329.25 77.3788 328.338 77.9582 327.55 77.6111L326.946 78.9839ZM305.25 78.9005C305.25 81.7506 305.248 84.3283 305.57 86.3806C305.889 88.4191 306.559 90.161 308.095 91.0936L308.874 89.8114C307.925 89.2358 307.353 88.0731 307.052 86.1483C306.752 84.2373 306.75 81.7932 306.75 78.9005H305.25ZM318.71 67.75L321.689 67.75L321.689 66.25L318.71 66.25L318.71 67.75ZM321.689 67.75L324.669 67.75L324.669 66.25L321.689 66.25L321.689 67.75Z" fill="#001F30"/>
<path d="M-4 84.9997L29.5 90.4997V61.9997H22.5L41.5 48.4997L43.5 48.9997V44.7998H47V50L49 51V19.5L56 2L63.5 19.5L64 55L65.5 55.5L67 55V45H70L69.5 48.9997H71.5L77 54.5L79.5 52.5V49.5L81 48.4997L83 48.9997V51.5L130 46.5L139 59.5H132.5L131.5 97C161.167 99.6667 197.5 104.5 246.5 97C297.002 89.27 370.5 93 384 97C394.8 100.2 409.167 98.3333 415 97" stroke="#001F30" stroke-width="1.5" stroke-linecap="round"/>
<circle cx="56" cy="23" r="3.25" fill="#FFC01F" stroke="#001F30" stroke-width="1.5"/>
</svg>
