<svg width="25" height="24" viewBox="0 0 25 24" fill="none" xmlns="http://www.w3.org/2000/svg">
<path d="M22.5 12C22.5 13.3132 22.2413 14.6136 21.7388 15.8268C21.2362 17.0401 20.4997 18.1425 19.5711 19.0711C18.6425 19.9997 17.5401 20.7362 16.3268 21.2388C15.1136 21.7413 13.8132 22 12.5 22C11.1868 22 9.88642 21.7413 8.67317 21.2388C7.45991 20.7362 6.35752 19.9997 5.42893 19.0711C4.50035 18.1425 3.76375 17.0401 3.2612 15.8268C2.75866 14.6136 2.5 13.3132 2.5 12C2.5 10.6868 2.75866 9.38642 3.26121 8.17316C3.76375 6.95991 4.50035 5.85752 5.42893 4.92893C6.35752 4.00035 7.45991 3.26375 8.67317 2.7612C9.88642 2.25866 11.1868 2 12.5 2C13.8132 2 15.1136 2.25866 16.3268 2.76121C17.5401 3.26375 18.6425 4.00035 19.5711 4.92893C20.4997 5.85752 21.2362 6.95991 21.7388 8.17317C22.2413 9.38642 22.5 10.6868 22.5 12L22.5 12Z" stroke="#F7F7F7" stroke-width="1.5"/>
<path d="M16.5 12C16.5 13.3132 16.3965 14.6136 16.1955 15.8268C15.9945 17.0401 15.6999 18.1425 15.3284 19.0711C14.957 19.9997 14.516 20.7362 14.0307 21.2388C13.5454 21.7413 13.0253 22 12.5 22C11.9747 22 11.4546 21.7413 10.9693 21.2388C10.484 20.7362 10.043 19.9997 9.67157 19.0711C9.30014 18.1425 9.0055 17.0401 8.80448 15.8268C8.60346 14.6136 8.5 13.3132 8.5 12C8.5 10.6868 8.60346 9.38642 8.80448 8.17316C9.0055 6.95991 9.30014 5.85752 9.67157 4.92893C10.043 4.00035 10.484 3.26375 10.9693 2.7612C11.4546 2.25866 11.9747 2 12.5 2C13.0253 2 13.5454 2.25866 14.0307 2.76121C14.516 3.26375 14.957 4.00035 15.3284 4.92893C15.6999 5.85752 15.9945 6.95991 16.1955 8.17317C16.3965 9.38642 16.5 10.6868 16.5 12L16.5 12Z" stroke="#F7F7F7" stroke-width="1.5"/>
<path d="M2.5 12H22.5" stroke="#F7F7F7" stroke-width="1.5" stroke-linecap="round"/>
</svg>
