<svg width="24" height="24" viewBox="0 0 24 24" fill="none" xmlns="http://www.w3.org/2000/svg">
<path d="M15.511 14H8.511C6.86108 14 6.03612 14 5.52356 14.5858C5.23768 14.9125 5.11125 15.3503 5.05533 16.0008C4.97789 16.9018 4.93916 17.3523 5.23637 17.6762C5.53358 18 6.02605 18 7.011 18H17.011C17.9959 18 18.4884 18 18.7856 17.6762C19.0828 17.3523 19.0441 16.9018 18.9667 16.0008C18.9107 15.3503 18.7843 14.9125 18.4984 14.5858C17.9859 14 17.1609 14 15.511 14Z" stroke="#001F30" stroke-width="1.5"/>
<path d="M7.01172 10C7.01172 8.13077 7.01172 7.19615 7.41364 6.5C7.67695 6.04394 8.05566 5.66523 8.51172 5.40192C9.20787 5 10.1425 5 12.0117 5C13.881 5 14.8156 5 15.5117 5.40192C15.9678 5.66523 16.3465 6.04394 16.6098 6.5C17.0117 7.19615 17.0117 8.13077 17.0117 10V14H7.01172V10Z" stroke="#001F30" stroke-width="1.5"/>
<path d="M7 11.0406C5 10.4998 5 12.4997 5 16.4998" stroke="#001F30" stroke-width="1.5" stroke-linecap="round" stroke-linejoin="round"/>
<path d="M17 11.087C19 10.5461 19 12.5461 19 16.5461" stroke="#001F30" stroke-width="1.5" stroke-linecap="round" stroke-linejoin="round"/>
</svg>
