<svg width="393" height="819" viewBox="0 0 393 819" fill="none" xmlns="http://www.w3.org/2000/svg">
<path d="M-4 13.5C85.6666 33 307.9 14.4 311.5 108C316 225 -168 79 96.501 451M331 1C353 38.5 371.611 114 306.001 173.645C277.561 199.5 210.501 211.5 223.001 251.5C238.158 300 416.294 379.242 422.001 441C441.5 652 471 589.882 142 715.5C-16.5 776.018 23.0013 823.333 52.0013 848" stroke="#001F30" stroke-width="1.5"/>
<path d="M222.499 310.501C223.499 314.334 226.099 322.401 228.499 324.001C229.463 324.643 230.513 325.092 231.499 325.399M245.817 319.5C245.678 320.074 245.568 320.585 245.499 321.001C245.336 321.979 244.115 322.88 242.499 323.649M245.817 319.5C246.482 316.756 247.81 312.568 248.499 310.501C243.666 312.501 232.699 315.301 227.499 310.501C220.999 304.501 232.999 311.501 225.999 315.501C220.399 318.701 219.666 316.834 219.999 315.501C216 310.834 210.701 301.5 221.5 301.5C234.999 301.5 218.999 290.5 232.999 292.5C246.999 294.5 253.499 294.5 257.999 301.5C261.599 307.1 256.499 313.167 253.499 315.501L245.817 319.5ZM231.499 325.399C232.97 325.857 234.301 326.001 234.999 326.001C236.973 325.606 240.152 324.766 242.499 323.649M231.499 325.399C230.666 326.933 227.899 330.4 223.499 332C217.999 334 215.499 330 213.499 338.5C211.899 345.3 213.833 349 214.999 350H262.499C263.999 349.834 266.999 348.7 266.999 345.5C266.999 341.5 262.998 335.5 260.499 335C257.999 334.5 250.499 330.5 247.499 329.5C244.499 328.5 240.499 329.526 240.499 327C240.499 324.98 241.832 323.924 242.499 323.649M158.499 269.5C158.708 270.069 158.962 270.752 159.241 271.5M159.241 271.5C160.519 274.919 162.343 279.688 162.999 281C163.413 281.829 164.649 282.693 165.999 283.426M159.241 271.5C162.484 270 162.999 261 165.999 268.5C168.399 274.5 178.666 270.334 183.499 267.5C182.666 270.834 180.699 278.2 179.499 281C178.299 283.8 172.332 284.834 169.499 285C168.615 284.679 167.257 284.109 165.999 283.426M156.5 285C155.833 292 153.6 306.001 149.999 306.001C146.398 306.001 136.166 318.001 131.5 324.001C131.833 321.167 131.5 314.501 127.5 310.501C122.5 305.501 138.5 298.501 134.5 295.001C131.3 292.201 127.166 296.167 125.499 298.501C124.332 295.667 123.499 289.601 129.499 288.001C136.999 286.001 128.499 278.501 140.999 271.5C153.499 264.5 151.999 271.5 149.999 263.501C148.399 257.101 157.332 252.834 161.999 251.501C162.999 247.001 167 239.7 175 246.5C185 255 192.5 255.501 189.5 263.501C186.5 271.5 194.5 266 190.5 271.5C186.5 277 187.939 278 185.5 281C183.549 283.4 182.44 292.334 182.13 296.5M156.5 285C150.5 275.5 138.5 255.501 138.5 251.501C138.5 247.501 140.166 234.501 140.999 228.501C140.166 225.334 138.5 218.601 138.5 217.001C138.5 215.001 144 207.001 144.5 209.501C144.9 211.501 144.667 215.334 144.5 217.001C146 215.667 148.8 213.4 148 215C147 217.001 145.5 217 146 221.5C146.4 225.1 145.167 228.334 144.5 229.5C145 235.834 146 248.8 146 250C146 250.88 151.728 261.838 156.888 271.5M156.5 285C156.833 291.667 157.3 306.4 156.5 312C156.047 315.17 155.185 317.314 153.773 319.5M156.5 285L156.888 271.5M156.888 271.5C158.769 275.023 160.574 278.373 161.999 281C162.303 282.622 163.236 285.157 165 286.714M165.999 283.426L165 286.714M165 286.714C166.137 287.717 167.618 288.314 169.499 288.001C175.5 287 176.998 283.001 179.499 284C179.705 284.083 179.914 284.43 180.125 285M180.125 285C182.25 284 187.1 282.6 189.5 285C191.225 286.726 191.848 286.487 192 285.846M180.125 285C180.82 286.89 181.523 291.229 182.13 296.5M192 285.846C192.059 285.595 192.047 285.282 192 285C194 282.951 198.3 279.766 199.5 283.426C201 288.001 205 291 198.5 291C193.3 291 190.333 291 189.5 291L192 285.846ZM182.13 296.5C182.96 303.714 183.612 312.675 183.826 319.5M183.826 319.5C183.981 324.453 183.905 328.281 183.499 329.5C182 334 186 345 186.5 348C186.9 350.4 184.666 351 183.499 351L138.5 353.5C138.833 348.334 140.8 336.3 146 329.5C149.557 324.849 152.066 322.144 153.773 319.5M183.826 319.5L193.5 350L153.773 319.5" stroke="#001F30" stroke-width="1.5"/>
<path d="M92.5005 370.5C92.5932 371.613 92.6924 372.783 92.7976 374M92.7976 374C94.7715 396.861 98.8421 436.741 101.5 437.5C105 438.5 299.5 437.5 301.5 437.5C303.5 437.5 304.5 435.5 307 431C309 427.4 311.5 389.167 312.5 370.5C312.834 368.667 311.1 363.8 301.5 359C289.5 353 278 294.5 261.5 293C245 291.5 146 283 137 298.5C129.8 310.9 112.667 344 105 359C99.6986 360.667 89.8353 366 92.7976 374Z" stroke="#001F30" stroke-width="1.5"/>
<path d="M258 385.5C241.667 390.5 209 399.9 209 397.5C209 395.1 209 380.834 209 374C218 372 237.5 369.2 243.5 374C249.5 378.8 239.333 391 233.5 396.5C214.833 396.591 175.9 396.017 169.5 393C161.5 389.229 161.5 377.5 163.5 372C165.5 366.5 194 374 197.5 374C201 374 200.5 395 196 397.5C187 401 110 385 106 379C102 373 109 368 112 366.501C117 362.001 120 365.5 132.5 369.501C145.366 373.618 154 387.501 148 387.501C106.4 387.101 93.6667 376.334 92.5 371.001C93.1667 396.334 94.8 447.7 96 450.5C97.5 454 116.5 452 121.5 452C125.5 452 124.833 443 124 438.5M258 385.5C271.167 385.667 297.8 384.9 299 380.5C300.5 375 301 363.5 291.5 365C283.9 366.201 272.667 368.501 268 369.501C263 373.167 253.5 381.2 255.5 384C257.5 386.801 258 386.167 258 385.5ZM258 385.5C264.08 392.573 274.741 405.077 279.958 411.5M212.5 432.5C234 431.667 278.6 430 285 430C293 430 283.5 417 283 415.5C282.898 415.194 281.749 413.705 279.958 411.5M212.5 432.5C210.333 432.167 206.3 429.9 207.5 423.5C208.7 417.1 210.333 414.5 211 414L279.958 411.5M212.5 432.5L192.5 431.739M192.5 431.739L120.5 429C119.333 423.667 118.4 412.7 124 411.5C131 410 196 413 196 415.5C196 418 201 430.979 192.5 431.739ZM281 438C280.167 442.834 279.4 452.6 283 453C286.6 453.4 301.5 453.167 308.5 453C309.833 452.667 312.3 450.6 311.5 445C310.7 439.4 312.167 392.334 313 369.501C306.333 361.501 293.3 345 294.5 343C296 340.5 310 344.5 311.5 341.5C313 338.5 314.5 337 308.5 328C302 325 290 325 291.5 330C293 335 293 339.5 291.5 340.5C290 341.5 276 357 274 353.5M274 353.5C231.333 353.167 143.7 352.7 134.5 353.5C125.3 354.3 126.667 349.167 128.5 346.5C132.5 335.5 142 315.5 146 308C150 300.5 151.833 302 154.5 302C185.333 301.667 248.3 301.2 253.5 302C260 303 277 345.5 277.5 348C277.847 349.733 275.071 350.025 274 351.206M274 353.5C273.386 352.426 273.526 351.729 274 351.206M113 343V328C109.5 327 101.2 326 96 330C90.8 334 91.5 339.334 92.5 341.5L113 343ZM113 343C145 346.834 216.153 357.221 222 346.5M222 346.5C231 330 246.5 332.599 253.5 343M222 346.5C231.833 342.599 251.9 336.436 253.5 343M253.5 343C259.1 351.321 269.5 351.938 274 351.206" stroke="#001F30" stroke-width="1.5"/>
</svg>
