<svg width="24" height="24" viewBox="0 0 24 24" fill="none" xmlns="http://www.w3.org/2000/svg">
<g id="Linear / Essentional, UI / Close Square">
<path id="Vector" d="M2 12C2 7.28595 2 4.92893 3.46447 3.46447C4.92893 2 7.28595 2 12 2C16.714 2 19.0711 2 20.5355 3.46447C22 4.92893 22 7.28595 22 12C22 16.714 22 19.0711 20.5355 20.5355C19.0711 22 16.714 22 12 22C7.28595 22 4.92893 22 3.46447 20.5355C2 19.0711 2 16.714 2 12Z" stroke="white" stroke-width="1.5"/>
<path id="Vector_2" d="M16.5 7.50004L7.5 16.5M7.49996 7.5L16.4999 16.5" stroke="white" stroke-width="1.5" stroke-linecap="round"/>
</g>
</svg>
