<svg width="393" height="77" viewBox="0 0 393 77" fill="none" xmlns="http://www.w3.org/2000/svg">
<path d="M109.512 56.2122L109.512 56.9622H109.512L109.512 56.2122ZM107.11 56.2122L107.11 55.4622H107.11L107.11 56.2122ZM103.59 53.3242L102.856 53.4792L103.59 53.3242ZM102.81 49.6361L103.544 49.481V49.481L102.81 49.6361ZM99.2904 46.748L99.2904 45.998L99.2904 46.748ZM93.3314 46.7481L93.3314 47.4981L93.3314 46.7481ZM90.4211 48.4353L91.0828 48.7884V48.7884L90.4211 48.4353ZM88 56.2123H88.75H88ZM110.799 56.5524L111.23 55.9386L111.23 55.9386L110.799 56.5524ZM91.7222 57.6183L92.0481 58.2938L92.0364 58.2994L92.0245 58.3047L91.7222 57.6183ZM95.5681 57.0269L95.4551 57.7684L95.5681 57.0269ZM100.905 62.1525L100.171 62.3089L100.905 62.1525ZM100.597 66.1419L99.8948 65.8778L100.597 66.1419ZM98.2157 69.3276L97.7658 68.7275L98.2157 69.3276ZM94.5316 70.6782L94.5706 71.4272L94.5316 70.6782ZM90.7521 58.0455L91.0544 58.7319H91.0544L90.7521 58.0455ZM109.905 70.8417C109.551 71.0566 109.089 70.9438 108.875 70.5898C108.66 70.2357 108.772 69.7744 109.126 69.5595L109.905 70.8417ZM96.3109 46.7481L96.3109 45.9981L96.3109 46.7481ZM88.75 64.1305C88.75 65.4089 89.768 66.426 91 66.426V67.926C88.9183 67.926 87.25 66.216 87.25 64.1305H88.75ZM91 66.426C92.232 66.426 93.25 65.4089 93.25 64.1305H94.75C94.75 66.216 93.0817 67.926 91 67.926V66.426ZM93.25 64.1305C93.25 62.852 92.232 61.835 91 61.835V60.335C93.0817 60.335 94.75 62.045 94.75 64.1305H93.25ZM91 61.835C89.768 61.835 88.75 62.852 88.75 64.1305H87.25C87.25 62.045 88.9183 60.335 91 60.335V61.835ZM105.549 67.7025C105.549 68.981 106.567 69.998 107.799 69.998V71.498C105.717 71.498 104.049 69.7881 104.049 67.7025H105.549ZM107.799 69.998C109.031 69.998 110.049 68.981 110.049 67.7025H111.549C111.549 69.7881 109.881 71.498 107.799 71.498V69.998ZM110.049 67.7025C110.049 66.4241 109.031 65.407 107.799 65.407V63.907C109.881 63.907 111.549 65.617 111.549 67.7025H110.049ZM107.799 65.407C106.567 65.407 105.549 66.4241 105.549 67.7025H104.049C104.049 65.617 105.717 63.907 107.799 63.907V65.407ZM109.512 56.9622L107.11 56.9622L107.11 55.4622L109.512 55.4622L109.512 56.9622ZM102.856 53.4792L102.077 49.7911L103.544 49.481L104.323 53.1691L102.856 53.4792ZM91.0828 48.7884C90.083 50.6619 88.75 53.661 88.75 56.2123H87.25C87.25 53.259 88.7504 49.973 89.7594 48.0822L91.0828 48.7884ZM111.23 55.9386C111.835 56.3637 112.75 57.2389 112.75 58.6486H111.25C111.25 57.9588 110.81 57.4767 110.368 57.1661L111.23 55.9386ZM93.3314 47.4981C92.3745 47.4981 91.5145 47.9793 91.0828 48.7884L89.7594 48.0822C90.4768 46.7378 91.8757 45.9981 93.3314 45.9981L93.3314 47.4981ZM102.077 49.7911C101.792 48.4459 100.626 47.498 99.2904 47.498L99.2904 45.998C101.35 45.998 103.116 47.457 103.544 49.481L102.077 49.7911ZM107.11 56.9622C105.05 56.9622 103.284 55.5033 102.856 53.4792L104.323 53.1691C104.608 54.5143 105.774 55.4622 107.11 55.4622L107.11 56.9622ZM109.512 55.4622C110.038 55.4622 110.676 55.5492 111.23 55.9386L110.368 57.1661C110.175 57.0303 109.895 56.9622 109.512 56.9622L109.512 55.4622ZM91.3963 56.9428C92.7385 56.2952 94.2296 56.0643 95.681 56.2855L95.4551 57.7684C94.3098 57.5939 93.1242 57.7746 92.0481 58.2938L91.3963 56.9428ZM95.681 56.2855C97.1328 56.5067 98.4747 57.1695 99.5359 58.1887L98.4968 59.2706C97.6582 58.4651 96.6 57.9428 95.4551 57.7684L95.681 56.2855ZM99.5359 58.1887C100.597 59.2076 101.327 60.5339 101.638 61.9961L100.171 62.3089C99.9204 61.1325 99.3359 60.0764 98.4968 59.2706L99.5359 58.1887ZM101.638 61.9961C101.95 63.458 101.831 64.9921 101.299 66.4059L99.8948 65.8778C100.327 64.7283 100.422 63.4858 100.171 62.3089L101.638 61.9961ZM101.299 66.4059C100.767 67.8196 99.8644 69.0289 98.6656 69.9277L97.7658 68.7275C98.733 68.0024 99.4624 67.0275 99.8948 65.8778L101.299 66.4059ZM98.6656 69.9277C97.4665 70.8266 96.0421 71.3506 94.5706 71.4272L94.4927 69.9292C95.659 69.8685 96.7987 69.4525 97.7658 68.7275L98.6656 69.9277ZM90.4498 57.3591L91.4199 56.9319L92.0245 58.3047L91.0544 58.7319L90.4498 57.3591ZM94.5706 71.4272C90.2459 71.6521 87.25 68.1442 87.25 64.1305H88.75C88.75 67.426 91.1603 70.1025 94.4927 69.9292L94.5706 71.4272ZM91.0544 58.7319C89.2426 59.5299 87.25 58.1747 87.25 56.2123H88.75C88.75 57.1269 89.6617 57.7063 90.4498 57.3591L91.0544 58.7319ZM112.75 58.6486C112.75 61.4986 112.752 64.0763 112.43 66.1286C112.111 68.1672 111.441 69.909 109.905 70.8417L109.126 69.5595C110.075 68.9839 110.647 67.8211 110.948 65.8964C111.248 63.9854 111.25 61.5412 111.25 58.6486H112.75ZM99.2904 47.498L96.3109 47.4981L96.3109 45.9981L99.2904 45.998L99.2904 47.498ZM96.3109 47.4981L93.3314 47.4981L93.3314 45.9981L96.3109 45.9981L96.3109 47.4981Z" fill="#001F30"/>
<path d="M396 73.4997C381 68.4997 379.5 73.4997 369 73.4997C358.5 73.4997 358.5 71.4997 357 70.4997C355.5 69.4997 361.5 57.4997 361 51.4997C360.5 45.4997 350.999 43.4997 354 39.9997C357 36.4997 361 39.4997 361 37.9997C361 36.4997 363.5 36.4997 365 33.9997C366.2 31.9997 367 28.5 369 28.9997C371 29.4993 370.6 31.9997 369 33.9997C367 36.4997 366.5 33.9997 365 35.9997C363.5 37.9997 371.5 42.4997 374.5 36.9997C377.5 31.4997 380 36.9997 381.5 32.9997C383 28.9997 383.5 18.9997 379 17.4997C374.5 15.9997 373 13.9997 369 16.4997C365 18.9997 370 12.4997 361 14.4997C352 16.4997 354 25.5 358 27C359.047 27.3925 362 28.0003 362 31C362 33.9997 357 38.4171 353.5 35.4174C350.7 33.0177 354.5 31 357 31.5C360.5 32.2 357.9 34.3997 351.5 35.9997C345.1 37.5997 345.501 35.9993 348 32.9997C350.5 30 355 28.9997 355 28.9997C362 27 371.801 29.4 373 21C374.5 10.5 366 6.99997 362 9.49997C358 12 355 12.9999 355 9.49997C355 6 352.5 1 348 1C343.5 1 327 1.99966 326 17.4997C325.2 29.8997 331.667 27.6666 335 25C336.334 27.3333 339.7 31.8 342.5 31C345.3 30.2 339 26.5 340 27C342 28 346.1 29.5 346.5 27.5V27.5C346.808 25.9606 345.934 24.6805 347.456 24.2985C347.772 24.2194 348.119 24.1203 348.5 24C356.1 21.6 351.167 28.3333 345 31C344.833 33.3332 344.3 37.9997 343.5 37.9997C342.5 37.9997 336.999 38.9997 336 33.9997C335 28.9997 328.001 32.9997 326 32.9997C324 32.9997 314 32.9993 312 28.9997C310.4 25.7999 311.333 23.6667 312 23C314.667 27.1668 320.3 33.4003 321.5 25C323 14.4997 322 31 322.5 31C323 31 325 31 327 27C329 23 339 22.4993 338.5 17.4997C338 12.5 327.5 -2 322.5 4.5C317.5 11 310.5 6.50034 309.5 12C308.5 17.4997 300.5 19 302 23C303.5 27 289 38.9993 300 36.9997C311 35 287.001 37.5003 302 44.5C317 51.4997 315 36.9997 320.5 36.9997C326 36.9997 312.501 44.5 322.5 43.5C332.5 42.5 329 38.5 337 41C345 43.5 346 40.5 346.5 42C347 43.5 365.5 59 331 72.5C315 79.5 308 67.4996 289.5 70.4997C271 73.4997 255.5 77.5 246.5 75C237.5 72.5 229.5 68.4993 195.5 70.4997C168.3 72.0999 53.1667 72.5 -1 72.5" stroke="#001F30" stroke-width="1.5" stroke-linecap="round"/>
</svg>
