<svg width="393" height="28" viewBox="0 0 393 28" fill="none" xmlns="http://www.w3.org/2000/svg">
<circle cx="100.5" cy="24" r="4" fill="#B0BCC4"/>
<circle cx="132.5" cy="24" r="4" fill="#B0BCC4"/>
<circle cx="164.5" cy="24" r="4" fill="#B0BCC4"/>
<circle cx="196.5" cy="24" r="4" fill="#B0BCC4"/>
<circle cx="228.5" cy="24" r="4" fill="#114469"/>
<circle cx="260.5" cy="24" r="3.5" stroke="#114469"/>
<circle cx="292.5" cy="24" r="3.5" stroke="#114469"/>
<path d="M233.756 7.73206L233.756 8.23206H233.756L233.756 7.73206ZM232.555 7.73207L232.555 7.23207H232.555L232.555 7.73207ZM230.795 6.28806L230.306 6.39144L230.795 6.28806ZM230.405 4.44402L230.894 4.34064L230.405 4.44402ZM228.645 3L228.645 2.5L228.645 3ZM225.666 3.00001L225.666 3.50001L225.666 3.00001ZM224.211 3.84363L224.652 4.07903V4.07903L224.211 3.84363ZM223 7.7321H223.5H223ZM234.4 7.90216L234.687 7.49301L234.687 7.49301L234.4 7.90216ZM224.861 8.43512L225.078 8.88545L225.071 8.88921L225.063 8.8927L224.861 8.43512ZM226.784 8.13944L226.709 8.63374L226.784 8.13944ZM229.452 10.7022L228.963 10.8065L229.452 10.7022ZM229.298 12.6969L228.83 12.5209L229.298 12.6969ZM228.108 14.2898L227.808 13.8897L228.108 14.2898ZM226.266 14.9651L226.292 15.4644L226.266 14.9651ZM224.376 8.64874L224.578 9.10632L224.578 9.10632L224.376 8.64874ZM234.017 15.1537C233.781 15.297 233.474 15.2218 233.33 14.9857C233.187 14.7497 233.262 14.4422 233.498 14.2989L234.017 15.1537ZM227.155 3L227.155 2.5L227.155 3ZM223.5 11.6912C223.5 12.2632 223.955 12.714 224.5 12.714V13.714C223.388 13.714 222.5 12.8012 222.5 11.6912H223.5ZM224.5 12.714C225.045 12.714 225.5 12.2632 225.5 11.6912H226.5C226.5 12.8012 225.612 13.714 224.5 13.714V12.714ZM225.5 11.6912C225.5 11.1192 225.045 10.6685 224.5 10.6685V9.66847C225.612 9.66847 226.5 10.5812 226.5 11.6912H225.5ZM224.5 10.6685C223.955 10.6685 223.5 11.1192 223.5 11.6912H222.5C222.5 10.5812 223.388 9.66847 224.5 9.66847V10.6685ZM231.9 13.4772C231.9 14.0492 232.354 14.5 232.9 14.5V15.5C231.788 15.5 230.9 14.5873 230.9 13.4772H231.9ZM232.9 14.5C233.445 14.5 233.9 14.0492 233.9 13.4772H234.9C234.9 14.5873 234.011 15.5 232.9 15.5V14.5ZM233.9 13.4772C233.9 12.9053 233.445 12.4545 232.9 12.4545V11.4545C234.011 11.4545 234.9 12.3672 234.9 13.4772H233.9ZM232.9 12.4545C232.354 12.4545 231.9 12.9053 231.9 13.4772H230.9C230.9 12.3672 231.788 11.4545 232.9 11.4545V12.4545ZM233.756 8.23206L232.555 8.23207L232.555 7.23207L233.756 7.23206L233.756 8.23206ZM230.306 6.39144L229.916 4.5474L230.894 4.34064L231.284 6.18468L230.306 6.39144ZM224.652 4.07903C224.153 5.01435 223.5 6.48997 223.5 7.7321H222.5C222.5 6.22197 223.264 4.55509 223.769 3.60823L224.652 4.07903ZM234.687 7.49301C235.003 7.71508 235.5 8.1854 235.5 8.95026H234.5C234.5 8.66539 234.32 8.45707 234.112 8.31131L234.687 7.49301ZM225.666 3.50001C225.229 3.50001 224.844 3.71911 224.652 4.07903L223.769 3.60823C224.152 2.89143 224.896 2.50001 225.666 2.50001L225.666 3.50001ZM229.916 4.5474C229.786 3.93135 229.253 3.5 228.645 3.5L228.645 2.5C229.735 2.5 230.669 3.27204 230.894 4.34064L229.916 4.5474ZM232.555 8.23207C231.465 8.23208 230.531 7.46004 230.306 6.39144L231.284 6.18468C231.414 6.80073 231.947 7.23208 232.555 7.23207L232.555 8.23207ZM233.756 7.23206C234.031 7.23206 234.38 7.27718 234.687 7.49301L234.112 8.31131C234.046 8.26453 233.936 8.23206 233.756 8.23206L233.756 7.23206ZM224.644 7.98479C225.337 7.6503 226.108 7.53068 226.859 7.64515L226.709 8.63374C226.162 8.55038 225.594 8.63655 225.078 8.88545L224.644 7.98479ZM226.859 7.64515C227.611 7.75964 228.305 8.10279 228.855 8.63019L228.162 9.35142C227.761 8.96648 227.256 8.71707 226.709 8.63374L226.859 7.64515ZM228.855 8.63019C229.403 9.15739 229.78 9.84303 229.941 10.598L228.963 10.8065C228.843 10.2421 228.563 9.73657 228.162 9.35142L228.855 8.63019ZM229.941 10.598C230.102 11.3527 230.041 12.144 229.766 12.8729L228.83 12.5209C229.038 11.9681 229.084 11.3712 228.963 10.8065L229.941 10.598ZM229.766 12.8729C229.492 13.6018 229.027 14.226 228.408 14.6898L227.808 13.8897C228.272 13.5416 228.622 13.0737 228.83 12.5209L229.766 12.8729ZM228.408 14.6898C227.789 15.1538 227.053 15.4248 226.292 15.4644L226.24 14.4657C226.798 14.4367 227.344 14.2377 227.808 13.8897L228.408 14.6898ZM224.175 8.19116L224.66 7.97754L225.063 8.8927L224.578 9.10632L224.175 8.19116ZM226.292 15.4644C224.047 15.5812 222.5 13.7579 222.5 11.6912H223.5C223.5 13.2791 224.656 14.5481 226.24 14.4657L226.292 15.4644ZM224.578 9.10632C223.586 9.5429 222.5 8.80067 222.5 7.7321H223.5C223.5 8.1021 223.866 8.32715 224.175 8.19115L224.578 9.10632ZM235.5 8.95026C235.5 10.3717 235.501 11.6717 235.339 12.7096C235.177 13.7384 234.834 14.6576 234.017 15.1537L233.498 14.2989C233.923 14.0408 234.201 13.5077 234.351 12.5548C234.499 11.6111 234.5 10.4002 234.5 8.95026H235.5ZM228.645 3.5L227.155 3.5L227.155 2.5L228.645 2.5L228.645 3.5ZM227.155 3.5L225.666 3.50001L225.666 2.50001L227.155 2.5L227.155 3.5Z" fill="#001F30"/>
</svg>
