<svg width="393" height="28" viewBox="0 0 393 28" fill="none" xmlns="http://www.w3.org/2000/svg">
<circle cx="100.5" cy="24" r="4" fill="#B0BCC4"/>
<circle cx="132.5" cy="24" r="3.5" fill="#114469" stroke="#114469"/>
<circle cx="164.5" cy="24" r="3.5" stroke="#114469"/>
<circle cx="196.5" cy="24" r="3.5" stroke="#114469"/>
<circle cx="228.5" cy="24" r="3.5" stroke="#114469"/>
<circle cx="260.5" cy="24" r="3.5" stroke="#114469"/>
<circle cx="292.5" cy="24" r="3.5" stroke="#114469"/>
<path d="M137.756 6.73206L137.756 7.23206H137.756L137.756 6.73206ZM136.555 6.73207L136.555 6.23207H136.555L136.555 6.73207ZM134.795 5.28806L134.306 5.39144L134.795 5.28806ZM134.405 3.44402L134.894 3.34064L134.405 3.44402ZM132.645 2L132.645 1.5L132.645 2ZM129.666 2.00001L129.666 2.50001L129.666 2.00001ZM128.211 2.84363L128.652 3.07903V3.07903L128.211 2.84363ZM127 6.7321H127.5H127ZM138.4 6.90216L138.687 6.49301L138.687 6.49301L138.4 6.90216ZM128.861 7.43512L129.078 7.88545L129.071 7.88921L129.063 7.8927L128.861 7.43512ZM130.784 7.13944L130.709 7.63374L130.784 7.13944ZM133.452 9.70225L132.963 9.80652L133.452 9.70225ZM133.298 11.6969L132.83 11.5209L133.298 11.6969ZM132.108 13.2898L131.808 12.8897L132.108 13.2898ZM130.266 13.9651L130.292 14.4644L130.266 13.9651ZM128.376 7.64874L128.578 8.10632L128.578 8.10632L128.376 7.64874ZM138.017 14.1537C137.781 14.297 137.474 14.2218 137.33 13.9857C137.187 13.7497 137.262 13.4422 137.498 13.2989L138.017 14.1537ZM131.155 2L131.155 1.5L131.155 2ZM127.5 10.6912C127.5 11.2632 127.955 11.714 128.5 11.714V12.714C127.388 12.714 126.5 11.8012 126.5 10.6912H127.5ZM128.5 11.714C129.045 11.714 129.5 11.2632 129.5 10.6912H130.5C130.5 11.8012 129.612 12.714 128.5 12.714V11.714ZM129.5 10.6912C129.5 10.1192 129.045 9.66847 128.5 9.66847V8.66847C129.612 8.66847 130.5 9.58121 130.5 10.6912H129.5ZM128.5 9.66847C127.955 9.66847 127.5 10.1192 127.5 10.6912H126.5C126.5 9.58121 127.388 8.66847 128.5 8.66847V9.66847ZM135.9 12.4772C135.9 13.0492 136.354 13.5 136.9 13.5V14.5C135.788 14.5 134.9 13.5873 134.9 12.4772H135.9ZM136.9 13.5C137.445 13.5 137.9 13.0492 137.9 12.4772H138.9C138.9 13.5873 138.011 14.5 136.9 14.5V13.5ZM137.9 12.4772C137.9 11.9053 137.445 11.4545 136.9 11.4545V10.4545C138.011 10.4545 138.9 11.3672 138.9 12.4772H137.9ZM136.9 11.4545C136.354 11.4545 135.9 11.9053 135.9 12.4772H134.9C134.9 11.3672 135.788 10.4545 136.9 10.4545V11.4545ZM137.756 7.23206L136.555 7.23207L136.555 6.23207L137.756 6.23206L137.756 7.23206ZM134.306 5.39144L133.916 3.5474L134.894 3.34064L135.284 5.18468L134.306 5.39144ZM128.652 3.07903C128.153 4.01435 127.5 5.48997 127.5 6.7321H126.5C126.5 5.22197 127.264 3.55509 127.769 2.60823L128.652 3.07903ZM138.687 6.49301C139.003 6.71508 139.5 7.1854 139.5 7.95026H138.5C138.5 7.66539 138.32 7.45707 138.112 7.31131L138.687 6.49301ZM129.666 2.50001C129.229 2.50001 128.844 2.71911 128.652 3.07903L127.769 2.60823C128.152 1.89143 128.896 1.50001 129.666 1.50001L129.666 2.50001ZM133.916 3.5474C133.786 2.93135 133.253 2.5 132.645 2.5L132.645 1.5C133.735 1.5 134.669 2.27204 134.894 3.34064L133.916 3.5474ZM136.555 7.23207C135.465 7.23208 134.531 6.46004 134.306 5.39144L135.284 5.18468C135.414 5.80073 135.947 6.23208 136.555 6.23207L136.555 7.23207ZM137.756 6.23206C138.031 6.23206 138.38 6.27718 138.687 6.49301L138.112 7.31131C138.046 7.26453 137.936 7.23206 137.756 7.23206L137.756 6.23206ZM128.644 6.98479C129.337 6.6503 130.108 6.53068 130.859 6.64515L130.709 7.63374C130.162 7.55038 129.594 7.63655 129.078 7.88545L128.644 6.98479ZM130.859 6.64515C131.611 6.75964 132.305 7.10279 132.855 7.63019L132.162 8.35142C131.761 7.96648 131.256 7.71707 130.709 7.63374L130.859 6.64515ZM132.855 7.63019C133.403 8.15739 133.78 8.84303 133.941 9.59798L132.963 9.80652C132.843 9.24211 132.563 8.73657 132.162 8.35142L132.855 7.63019ZM133.941 9.59798C134.102 10.3527 134.041 11.144 133.766 11.8729L132.83 11.5209C133.038 10.9681 133.084 10.3712 132.963 9.80652L133.941 9.59798ZM133.766 11.8729C133.492 12.6018 133.027 13.226 132.408 13.6898L131.808 12.8897C132.272 12.5416 132.622 12.0737 132.83 11.5209L133.766 11.8729ZM132.408 13.6898C131.789 14.1538 131.053 14.4248 130.292 14.4644L130.24 13.4657C130.798 13.4367 131.344 13.2377 131.808 12.8897L132.408 13.6898ZM128.175 7.19116L128.66 6.97754L129.063 7.8927L128.578 8.10632L128.175 7.19116ZM130.292 14.4644C128.047 14.5812 126.5 12.7579 126.5 10.6912H127.5C127.5 12.2791 128.656 13.5481 130.24 13.4657L130.292 14.4644ZM128.578 8.10632C127.586 8.5429 126.5 7.80067 126.5 6.7321H127.5C127.5 7.1021 127.866 7.32715 128.175 7.19115L128.578 8.10632ZM139.5 7.95026C139.5 9.37172 139.501 10.6717 139.339 11.7096C139.177 12.7384 138.834 13.6576 138.017 14.1537L137.498 13.2989C137.923 13.0408 138.201 12.5077 138.351 11.5548C138.499 10.6111 138.5 9.40015 138.5 7.95026H139.5ZM132.645 2.5L131.155 2.5L131.155 1.5L132.645 1.5L132.645 2.5ZM131.155 2.5L129.666 2.50001L129.666 1.50001L131.155 1.5L131.155 2.5Z" fill="#001F30"/>
</svg>
