<svg width="25" height="24" viewBox="0 0 25 24" fill="none" xmlns="http://www.w3.org/2000/svg">
<g id="Linear / Messages, Coversation / Dialog">
<path id="Vector" d="M10.5 22C14.9183 22 18.5 18.4183 18.5 14C18.5 9.58172 14.9183 6 10.5 6C6.08172 6 2.5 9.58172 2.5 14C2.5 15.2355 2.78008 16.4056 3.2802 17.4502C3.45209 17.8093 3.51245 18.2161 3.40955 18.6006L3.08151 19.8267C2.82295 20.793 3.70701 21.677 4.67335 21.4185L5.89939 21.0904C6.28393 20.9876 6.69071 21.0479 7.04976 21.2198C8.0944 21.7199 9.26449 22 10.5 22Z" stroke="#001F30" stroke-width="1.5"/>
<path id="Vector_2" d="M18.5 14.5018C18.5665 14.4741 18.6324 14.4453 18.6977 14.4155C19.0598 14.2501 19.4661 14.1882 19.8506 14.2911L20.3267 14.4185C21.293 14.677 22.177 13.793 21.9185 12.8267L21.7911 12.3506C21.6882 11.9661 21.7501 11.5598 21.9155 11.1977C22.2908 10.376 22.5 9.46242 22.5 8.5C22.5 4.91015 19.5899 2 16 2C13.2977 2 10.9806 3.64899 10 5.9956" stroke="#001F30" stroke-width="1.5"/>
<path id="Vector_3" d="M7.5 14C7.5 14.2761 7.27614 14.5 7 14.5C6.72386 14.5 6.5 14.2761 6.5 14C6.5 13.7239 6.72386 13.5 7 13.5C7.27614 13.5 7.5 13.7239 7.5 14ZM11 14C11 14.2761 10.7761 14.5 10.5 14.5C10.2239 14.5 10 14.2761 10 14C10 13.7239 10.2239 13.5 10.5 13.5C10.7761 13.5 11 13.7239 11 14ZM14.5 14C14.5 14.2761 14.2761 14.5 14 14.5C13.7239 14.5 13.5 14.2761 13.5 14C13.5 13.7239 13.7239 13.5 14 13.5C14.2761 13.5 14.5 13.7239 14.5 14Z" fill="#001F30" stroke="#001F30"/>
</g>
</svg>
