<svg width="24" height="25" viewBox="0 0 24 25" fill="none" xmlns="http://www.w3.org/2000/svg">
<path d="M11.0376 4.81617L11.6866 5.9791C12.2723 7.02858 12.0372 8.40532 11.1147 9.3278C11.1147 9.3278 11.1147 9.3278 11.1147 9.3278C11.1146 9.32792 9.99588 10.4468 12.0245 12.4755C14.0525 14.5035 15.1714 13.3861 15.1722 13.3853C15.1722 13.3853 15.1722 13.3853 15.1722 13.3853C16.0947 12.4628 17.4714 12.2277 18.5209 12.8134L19.6838 13.4624C21.2686 14.3468 21.4557 16.5692 20.0628 17.9622C19.2258 18.7992 18.2004 19.4505 17.0669 19.4934C15.1588 19.5658 11.9183 19.0829 8.6677 15.8323C5.41713 12.5817 4.93421 9.34122 5.00655 7.43309C5.04952 6.2996 5.7008 5.27423 6.53781 4.43723C7.93076 3.04428 10.1532 3.23144 11.0376 4.81617Z" stroke="#001F30" stroke-width="1.5" stroke-linecap="round"/>
</svg>
