<svg width="28" height="27" viewBox="0 0 28 27" fill="none" xmlns="http://www.w3.org/2000/svg">
<path d="M22.8148 8.54658L22.9766 9.27892L22.9766 9.27892L22.8148 8.54658ZM20.4692 9.06473L20.3074 8.33239L20.3074 8.33239L20.4692 9.06473ZM16.4092 7.00389L15.7261 7.31357L16.4092 7.00389ZM14.8526 3.57072L15.5357 3.26103L15.5357 3.26103L14.8526 3.57072ZM10.7927 1.50986L10.6309 0.777517L10.7927 1.50986ZM4.97394 2.79516L5.1357 3.52751L4.97394 2.79516ZM2.49605 5.07041L3.21831 5.27249L3.21831 5.27249L2.49605 5.07041ZM1.80934 13.1865L2.54169 13.0247L1.80934 13.1865ZM24.1452 8.60113L24.4337 7.90887L24.4337 7.90887L24.1452 8.60113ZM5.74715 13.7566L6.21108 14.3459L6.20087 14.354L6.19039 14.3616L5.74715 13.7566ZM9.37499 12.3497L9.4246 13.098L9.37499 12.3497ZM15.6916 16.2036L15.0091 16.5145L15.6916 16.2036ZM16.2514 20.1654L15.509 20.059L16.2514 20.1654ZM14.6134 23.7898L14.0446 23.3008L14.6134 23.7898ZM11.3074 25.9031L11.507 26.6261L11.3074 25.9031ZM4.89212 14.383L5.33535 14.988L5.33535 14.988L4.89212 14.383ZM26.354 22.747C26.0546 23.0332 25.5798 23.0226 25.2936 22.7232C25.0073 22.4239 25.0179 21.9491 25.3173 21.6628L26.354 22.747ZM7.8833 2.15251L7.72153 1.42017L7.8833 2.15251ZM4.24955 20.7566C4.5253 22.005 5.73867 22.7785 6.9417 22.5128L7.26524 23.9775C5.23256 24.4265 3.23468 23.1166 2.78486 21.0801L4.24955 20.7566ZM6.9417 22.5128C8.14474 22.247 8.91938 21.0344 8.64363 19.786L10.1083 19.4625C10.5581 21.4989 9.29791 23.5285 7.26524 23.9775L6.9417 22.5128ZM8.64363 19.786C8.36788 18.5376 7.15451 17.7641 5.95148 18.0298L5.62795 16.5651C7.66062 16.1161 9.65851 17.426 10.1083 19.4625L8.64363 19.786ZM5.95148 18.0298C4.74844 18.2956 3.9738 19.5082 4.24955 20.7566L2.78486 21.0801C2.33504 19.0437 3.59527 17.0141 5.62795 16.5651L5.95148 18.0298ZM21.4237 20.6212C21.6994 21.8696 22.9128 22.6431 24.1158 22.3774L24.4394 23.8421C22.4067 24.2911 20.4088 22.9812 19.959 20.9447L21.4237 20.6212ZM24.1158 22.3774C25.3189 22.1117 26.0935 20.899 25.8178 19.6506L27.2825 19.3271C27.7323 21.3635 26.472 23.3931 24.4394 23.8421L24.1158 22.3774ZM25.8178 19.6506C25.542 18.4022 24.3286 17.6287 23.1256 17.8944L22.8021 16.4297C24.8348 15.9807 26.8326 17.2907 27.2825 19.3271L25.8178 19.6506ZM23.1256 17.8944C21.9226 18.1602 21.1479 19.3728 21.4237 20.6212L19.959 20.9447C19.5092 18.9083 20.7694 16.8787 22.8021 16.4297L23.1256 17.8944ZM22.9766 9.27892L20.6309 9.79708L20.3074 8.33239L22.6531 7.81423L22.9766 9.27892ZM15.7261 7.31357L14.1696 3.8804L15.5357 3.26103L17.0922 6.6942L15.7261 7.31357ZM3.21831 5.27249C2.64613 7.31755 1.99141 10.5335 2.54169 13.0247L1.07699 13.3483C0.440008 10.4645 1.19632 6.9323 1.77378 4.86833L3.21831 5.27249ZM24.4337 7.90887C25.1163 8.19341 26.1982 8.85067 26.5023 10.2272L25.0376 10.5507C24.8888 9.87723 24.3553 9.50131 23.8566 9.29339L24.4337 7.90887ZM5.1357 3.52751C4.20136 3.7339 3.4654 4.38934 3.21831 5.27249L1.77378 4.86833C2.18436 3.40085 3.39074 2.37679 4.81217 2.06281L5.1357 3.52751ZM14.1696 3.8804C13.6018 2.62815 12.2583 1.9542 10.9544 2.24221L10.6309 0.777517C12.6416 0.333373 14.6815 1.37687 15.5357 3.26103L14.1696 3.8804ZM20.6309 9.79708C18.6202 10.2412 16.5803 9.19774 15.7261 7.31357L17.0922 6.6942C17.66 7.94645 19.0035 8.6204 20.3074 8.33239L20.6309 9.79708ZM22.6531 7.81423C23.1665 7.70082 23.8084 7.64821 24.4337 7.90887L23.8566 9.29339C23.6385 9.20247 23.3511 9.19621 22.9766 9.27892L22.6531 7.81423ZM5.28322 13.1673C6.45418 12.2455 7.86038 11.6984 9.32537 11.6013L9.4246 13.098C8.26865 13.1747 7.14987 13.6068 6.21108 14.3459L5.28322 13.1673ZM9.32537 11.6013C10.7907 11.5042 12.244 11.862 13.5 12.6283L12.7188 13.9088C11.7261 13.3032 10.5802 13.0214 9.4246 13.098L9.32537 11.6013ZM13.5 12.6283C14.7557 13.3944 15.7543 14.532 16.3741 15.8926L15.0091 16.5145C14.5104 15.4198 13.7118 14.5147 12.7188 13.9088L13.5 12.6283ZM16.3741 15.8926C16.9938 17.2529 17.2081 18.7766 16.9938 20.2719L15.509 20.059C15.6832 18.8432 15.508 17.6095 15.0091 16.5145L16.3741 15.8926ZM16.9938 20.2719C16.7794 21.7669 16.1589 23.1425 15.1821 24.2787L14.0446 23.3008C14.8327 22.3842 15.3346 21.2749 15.509 20.059L16.9938 20.2719ZM15.1821 24.2787C14.2052 25.4151 12.9274 26.234 11.507 26.6261L11.1078 25.1802C12.2336 24.8694 13.2567 24.2174 14.0446 23.3008L15.1821 24.2787ZM4.44888 13.778L5.30392 13.1516L6.19039 14.3616L5.33535 14.988L4.44888 13.778ZM11.507 26.6261C7.33255 27.7785 3.65056 24.9994 2.78486 21.0801L4.24955 20.7566C4.96036 23.9746 7.89124 26.0682 11.1078 25.1802L11.507 26.6261ZM5.33535 14.988C3.73828 16.158 1.50027 15.2646 1.07699 13.3483L2.54169 13.0247C2.73896 13.9179 3.75415 14.287 4.44888 13.778L5.33535 14.988ZM26.5023 10.2272C27.117 13.0101 27.675 15.5268 27.8036 17.6001C27.9313 19.6596 27.6529 21.5049 26.354 22.747L25.3173 21.6628C26.119 20.8963 26.427 19.6375 26.3064 17.693C26.1867 15.7624 25.6615 13.3753 25.0376 10.5507L26.5023 10.2272ZM10.9544 2.24221L8.04506 2.88486L7.72153 1.42017L10.6309 0.777517L10.9544 2.24221ZM8.04506 2.88486L5.1357 3.52751L4.81217 2.06281L7.72153 1.42017L8.04506 2.88486Z" fill="#001F30"/>
</svg>
