<svg width="90" height="64" viewBox="0 0 90 64" fill="none" xmlns="http://www.w3.org/2000/svg">
<g clip-path="url(#clip0_3067_7284)">
<path d="M56.5 -2C115.5 15.5 13.5 -8 89 32C109.06 42.6279 61.3333 68.1667 50 70.5" stroke="#001F30" stroke-linecap="round" stroke-linejoin="round"/>
<path d="M44.9997 29C43.8331 31.5 42.0997 36.9 44.4997 38.5C47.4997 40.5 50.0002 42 51.0002 42M51.0002 42C51.8002 42 54.6669 40.6667 56.0002 40L57.5002 43C60.3336 44 66.0002 45.9 66.0002 45.5C66.0002 45 71.0002 63.5 64.0002 61.5C57.0002 59.5 65.5002 50.5 67.0002 53.5C68.5002 56.5 53.5002 34 41.0002 52.5C36.0002 60 40.5002 60.5 41.5002 60.5C42.5002 60.5 50 55.5 39.5 52.5C37.9 47.7 46.5001 44.5 51.0002 43.5V42ZM48 25C47.8333 26.1667 46.7 28.7 43.5 29.5C40.3 30.3 45.5 27.8333 48.5 26.5C49.1667 27.1667 51.3 28.6 54.5 29C58.5 29.5 54 32.5 56.5 34C59 35.5 62.5 33.5 61.5 36C60.7 38 58.5001 38.8333 57.5002 39" stroke="#001F30" stroke-linecap="round" stroke-linejoin="round"/>
<path d="M47.5007 44.5002C44.5007 44.0002 38.7007 41.2002 39.5007 34.0002C40.5007 25.0002 43.5 17.5002 46.5 21.0002C50.5 18 64.5 12 68.5 33C70.5 45 62.5 43.5 58.5 43" stroke="#001F30" stroke-linecap="round" stroke-linejoin="round"/>
<path d="M42.5 63.626C40.5 49.626 62 40.126 65 63.626M26.9995 24.626C28.3329 30.126 28.5995 40.626 18.9995 38.626C6.99952 36.126 31.9995 27.126 25.9995 23.126M26.9995 60.126L28 63.626" stroke="#001F30" stroke-linecap="round" stroke-linejoin="round"/>
<path d="M39.5 60.5L38 64.5H69.5L67.5 59" stroke="#001F30" stroke-linecap="round" stroke-linejoin="round"/>
<path d="M28.5003 21.6258C19.7003 9.62582 11.5 16 9 21C0.499906 30.3742 7.10025 38.926 9.50025 40.126C12.5003 41.626 17.0003 36.626 17.5003 38.626C17.9003 40.226 21.3336 42.626 23.0003 43.626C27.1669 40.9593 34.1003 32.8259 28.5003 21.6258Z" stroke="#001F30" stroke-linecap="round" stroke-linejoin="round"/>
<path d="M36 43.1261L33 42.1262C32.5 45.4595 31.2 51.5262 30 49.1261C26.8 41.9261 24.6667 42.1261 24 43.1261C23.3333 48.9595 22.5 60.5261 24.5 60.1261C26.5 59.7261 26.3333 49.6261 26 44.6261L11 43.1261L8 48.1262L11 59.6262L19.5 61.1262L27 59.6262V54.1262C28.3333 55.1262 31.4 57.1262 33 57.1262C34.6 57.1262 35.6667 47.7928 36 43.1261ZM36 43.1261C35.8333 43.0706 35.9 42.8928 37.5 42.626C39.5 42.2925 38.5 39.6259 37 36.1259C35.5 32.6259 35.5 38.1262 34 36.6262C32.8 35.4262 32.1667 36.7928 32 37.6262L33 41.6262M14 39.626L8.5 42.626" stroke="#001F30" stroke-linecap="round" stroke-linejoin="round"/>
<path d="M20 8L21 13L17 8H19.5M29 9.5L30 18L26.5 11L29 9.5ZM33.5 9.5V17.5L37 9.5H33.5Z" stroke="#001F30" stroke-linecap="round" stroke-linejoin="round"/>
<path d="M8.49962 42.5C6.49962 46.5 2.69962 55.3 3.49962 58.5C4.49962 62.5 18.5 58 19.5 58C20.5 58 25.5 49.5 20.5 51C15.5 52.5 14 54.5 13 55C12.2 55.4 9.33333 55.8333 8 56L5 64" stroke="#001F30" stroke-linecap="round" stroke-linejoin="round"/>
</g>
<defs>
<clipPath id="clip0_3067_7284">
<rect width="90" height="64" fill="white"/>
</clipPath>
</defs>
</svg>
