<svg width="393" height="28" viewBox="0 0 393 28" fill="none" xmlns="http://www.w3.org/2000/svg">
<circle cx="100.5" cy="24" r="4" fill="#B0BCC4"/>
<circle cx="132.5" cy="24" r="4" fill="#B0BCC4"/>
<circle cx="164.5" cy="24" r="4" fill="#114469"/>
<circle cx="196.5" cy="24" r="3.5" stroke="#114469"/>
<circle cx="228.5" cy="24" r="3.5" stroke="#114469"/>
<circle cx="260.5" cy="24" r="3.5" stroke="#114469"/>
<circle cx="292.5" cy="24" r="3.5" stroke="#114469"/>
<path d="M169.756 7.73206L169.756 8.23206H169.756L169.756 7.73206ZM168.555 7.73207L168.555 7.23207H168.555L168.555 7.73207ZM166.795 6.28806L166.306 6.39144L166.795 6.28806ZM166.405 4.44402L166.894 4.34064L166.405 4.44402ZM164.645 3L164.645 2.5L164.645 3ZM161.666 3.00001L161.666 3.50001L161.666 3.00001ZM160.211 3.84363L160.652 4.07903V4.07903L160.211 3.84363ZM159 7.7321H159.5H159ZM170.4 7.90216L170.687 7.49301L170.687 7.49301L170.4 7.90216ZM160.861 8.43512L161.078 8.88545L161.071 8.88921L161.063 8.8927L160.861 8.43512ZM162.784 8.13944L162.709 8.63374L162.784 8.13944ZM165.452 10.7022L164.963 10.8065L165.452 10.7022ZM165.298 12.6969L164.83 12.5209L165.298 12.6969ZM164.108 14.2898L163.808 13.8897L164.108 14.2898ZM162.266 14.9651L162.292 15.4644L162.266 14.9651ZM160.376 8.64874L160.578 9.10632L160.578 9.10632L160.376 8.64874ZM170.017 15.1537C169.781 15.297 169.474 15.2218 169.33 14.9857C169.187 14.7497 169.262 14.4422 169.498 14.2989L170.017 15.1537ZM163.155 3L163.155 2.5L163.155 3ZM159.5 11.6912C159.5 12.2632 159.955 12.714 160.5 12.714V13.714C159.388 13.714 158.5 12.8012 158.5 11.6912H159.5ZM160.5 12.714C161.045 12.714 161.5 12.2632 161.5 11.6912H162.5C162.5 12.8012 161.612 13.714 160.5 13.714V12.714ZM161.5 11.6912C161.5 11.1192 161.045 10.6685 160.5 10.6685V9.66847C161.612 9.66847 162.5 10.5812 162.5 11.6912H161.5ZM160.5 10.6685C159.955 10.6685 159.5 11.1192 159.5 11.6912H158.5C158.5 10.5812 159.388 9.66847 160.5 9.66847V10.6685ZM167.9 13.4772C167.9 14.0492 168.354 14.5 168.9 14.5V15.5C167.788 15.5 166.9 14.5873 166.9 13.4772H167.9ZM168.9 14.5C169.445 14.5 169.9 14.0492 169.9 13.4772H170.9C170.9 14.5873 170.011 15.5 168.9 15.5V14.5ZM169.9 13.4772C169.9 12.9053 169.445 12.4545 168.9 12.4545V11.4545C170.011 11.4545 170.9 12.3672 170.9 13.4772H169.9ZM168.9 12.4545C168.354 12.4545 167.9 12.9053 167.9 13.4772H166.9C166.9 12.3672 167.788 11.4545 168.9 11.4545V12.4545ZM169.756 8.23206L168.555 8.23207L168.555 7.23207L169.756 7.23206L169.756 8.23206ZM166.306 6.39144L165.916 4.5474L166.894 4.34064L167.284 6.18468L166.306 6.39144ZM160.652 4.07903C160.153 5.01435 159.5 6.48997 159.5 7.7321H158.5C158.5 6.22197 159.264 4.55509 159.769 3.60823L160.652 4.07903ZM170.687 7.49301C171.003 7.71508 171.5 8.1854 171.5 8.95026H170.5C170.5 8.66539 170.32 8.45707 170.112 8.31131L170.687 7.49301ZM161.666 3.50001C161.229 3.50001 160.844 3.71911 160.652 4.07903L159.769 3.60823C160.152 2.89143 160.896 2.50001 161.666 2.50001L161.666 3.50001ZM165.916 4.5474C165.786 3.93135 165.253 3.5 164.645 3.5L164.645 2.5C165.735 2.5 166.669 3.27204 166.894 4.34064L165.916 4.5474ZM168.555 8.23207C167.465 8.23208 166.531 7.46004 166.306 6.39144L167.284 6.18468C167.414 6.80073 167.947 7.23208 168.555 7.23207L168.555 8.23207ZM169.756 7.23206C170.031 7.23206 170.38 7.27718 170.687 7.49301L170.112 8.31131C170.046 8.26453 169.936 8.23206 169.756 8.23206L169.756 7.23206ZM160.644 7.98479C161.337 7.6503 162.108 7.53068 162.859 7.64515L162.709 8.63374C162.162 8.55038 161.594 8.63655 161.078 8.88545L160.644 7.98479ZM162.859 7.64515C163.611 7.75964 164.305 8.10279 164.855 8.63019L164.162 9.35142C163.761 8.96648 163.256 8.71707 162.709 8.63374L162.859 7.64515ZM164.855 8.63019C165.403 9.15739 165.78 9.84303 165.941 10.598L164.963 10.8065C164.843 10.2421 164.563 9.73657 164.162 9.35142L164.855 8.63019ZM165.941 10.598C166.102 11.3527 166.041 12.144 165.766 12.8729L164.83 12.5209C165.038 11.9681 165.084 11.3712 164.963 10.8065L165.941 10.598ZM165.766 12.8729C165.492 13.6018 165.027 14.226 164.408 14.6898L163.808 13.8897C164.272 13.5416 164.622 13.0737 164.83 12.5209L165.766 12.8729ZM164.408 14.6898C163.789 15.1538 163.053 15.4248 162.292 15.4644L162.24 14.4657C162.798 14.4367 163.344 14.2377 163.808 13.8897L164.408 14.6898ZM160.175 8.19116L160.66 7.97754L161.063 8.8927L160.578 9.10632L160.175 8.19116ZM162.292 15.4644C160.047 15.5812 158.5 13.7579 158.5 11.6912H159.5C159.5 13.2791 160.656 14.5481 162.24 14.4657L162.292 15.4644ZM160.578 9.10632C159.586 9.5429 158.5 8.80067 158.5 7.7321H159.5C159.5 8.1021 159.866 8.32715 160.175 8.19115L160.578 9.10632ZM171.5 8.95026C171.5 10.3717 171.501 11.6717 171.339 12.7096C171.177 13.7384 170.834 14.6576 170.017 15.1537L169.498 14.2989C169.923 14.0408 170.201 13.5077 170.351 12.5548C170.499 11.6111 170.5 10.4002 170.5 8.95026H171.5ZM164.645 3.5L163.155 3.5L163.155 2.5L164.645 2.5L164.645 3.5ZM163.155 3.5L161.666 3.50001L161.666 2.50001L163.155 2.5L163.155 3.5Z" fill="#001F30"/>
</svg>
