<svg width="19" height="18" viewBox="0 0 19 18" fill="none" xmlns="http://www.w3.org/2000/svg">
<g id="Linear / Map &#38; Location / Routing 2">
<path id="Vector" d="M2 3.94299C2 2.59376 3.17525 1.5 4.625 1.5C6.07475 1.5 7.25 2.59376 7.25 3.94299C7.25 5.28164 6.41219 6.84372 5.10502 7.40233C4.8003 7.53256 4.4497 7.53256 4.14498 7.40233C2.83781 6.84372 2 5.28164 2 3.94299Z" stroke="white"/>
<path id="Vector_2" d="M11.75 12.943C11.75 11.5938 12.9253 10.5 14.375 10.5C15.8247 10.5 17 11.5938 17 12.943C17 14.2816 16.1622 15.8437 14.855 16.4023C14.5503 16.5326 14.1997 16.5326 13.895 16.4023C12.5878 15.8437 11.75 14.2816 11.75 12.943Z" stroke="white"/>
<path id="Vector_3" d="M14.625 13.125C14.625 13.2631 14.5131 13.375 14.375 13.375C14.2369 13.375 14.125 13.2631 14.125 13.125C14.125 12.9869 14.2369 12.875 14.375 12.875C14.5131 12.875 14.625 12.9869 14.625 13.125Z" fill="white" stroke="white"/>
<path id="Vector_4" d="M4.875 4.125C4.875 4.26307 4.76307 4.375 4.625 4.375C4.48693 4.375 4.375 4.26307 4.375 4.125C4.375 3.98693 4.48693 3.875 4.625 3.875C4.76307 3.875 4.875 3.98693 4.875 4.125Z" fill="white" stroke="white"/>
<path id="Vector_5" d="M9.50004 3.25C9.2239 3.25 9.00004 3.47386 9.00004 3.75C9.00004 4.02614 9.2239 4.25 9.50004 4.25V3.25ZM9.50004 14.25L9.85359 14.6036C10.0489 14.4083 10.0489 14.0917 9.85359 13.8964L9.50004 14.25ZM13.4043 6.51549L13.6727 6.93732L13.4043 6.51549ZM5.59582 11.4845L5.86426 11.9063H5.86426L5.59582 11.4845ZM8.72859 12.7714C8.53333 12.5762 8.21675 12.5762 8.02149 12.7714C7.82623 12.9667 7.82623 13.2833 8.02149 13.4786L8.72859 12.7714ZM8.02149 15.0214C7.82623 15.2167 7.82623 15.5333 8.02149 15.7286C8.21675 15.9238 8.53333 15.9238 8.72859 15.7286L8.02149 15.0214ZM12.599 3.25H9.50004V4.25H12.599V3.25ZM9.50004 13.75H6.40113V14.75H9.50004V13.75ZM13.1358 6.09366L5.32738 11.0627L5.86426 11.9063L13.6727 6.93732L13.1358 6.09366ZM9.85359 13.8964L8.72859 12.7714L8.02149 13.4786L9.14649 14.6036L9.85359 13.8964ZM9.14649 13.8964L8.02149 15.0214L8.72859 15.7286L9.85359 14.6036L9.14649 13.8964ZM6.40113 13.75C5.40069 13.75 5.02021 12.4435 5.86426 11.9063L5.32738 11.0627C3.63931 12.1369 4.40023 14.75 6.40113 14.75V13.75ZM12.599 4.25C13.5994 4.25 13.9799 5.55655 13.1358 6.09366L13.6727 6.93732C15.3608 5.86309 14.5999 3.25 12.599 3.25V4.25Z" fill="white"/>
</g>
</svg>
