<svg width="18" height="18" viewBox="0 0 18 18" fill="none" xmlns="http://www.w3.org/2000/svg">
<g id="Linear / Map &#38; Location / Point On Map" opacity="0.5">
<path id="Vector" d="M13.5 6L14.2115 6.23717C14.954 6.48468 15.3253 6.60843 15.5376 6.90306C15.75 7.19768 15.75 7.58902 15.75 8.37171V12.6217C15.75 13.5899 15.75 14.074 15.4952 14.385C15.4087 14.4906 15.3036 14.5796 15.1852 14.6476C14.8366 14.8478 14.3591 14.7682 13.4041 14.609C12.4618 14.452 11.9906 14.3734 11.5236 14.4125C11.3597 14.4262 11.1969 14.4507 11.0363 14.4858C10.5784 14.5858 10.1474 14.8013 9.28547 15.2323C8.16068 15.7947 7.59828 16.0759 6.99963 16.1625C6.81932 16.1886 6.63735 16.2016 6.45516 16.2012C5.85026 16.2001 5.2589 16.003 4.07616 15.6087L3.78849 15.5128C3.04597 15.2653 2.67471 15.1416 2.46235 14.8469C2.25 14.5523 2.25 14.161 2.25 13.3783V9.681C2.25 8.43683 2.25 7.81475 2.61631 7.48018C2.68041 7.42164 2.75107 7.37071 2.82687 7.32842C3.26011 7.0867 3.85027 7.28342 5.03059 7.67686" stroke="#001F30" stroke-width="1.5"/>
<path id="Vector_2" d="M4.5 5.77523C4.5 3.41409 6.51472 1.5 9 1.5C11.4853 1.5 13.5 3.41409 13.5 5.77523C13.5 8.11787 12.0638 10.8515 9.8229 11.8291C9.30052 12.057 8.69948 12.057 8.1771 11.8291C5.93624 10.8515 4.5 8.11787 4.5 5.77523Z" stroke="#001F30" stroke-width="1.5"/>
<circle id="Vector_3" cx="9" cy="6" r="1.5" stroke="#001F30" stroke-width="1.5"/>
</g>
</svg>
