<svg width="393" height="352" viewBox="0 0 393 352" fill="none" xmlns="http://www.w3.org/2000/svg">
<path d="M184.988 187.368L184.988 188.118H184.988L184.988 187.368ZM187.39 187.368L187.39 186.618H187.39L187.39 187.368ZM190.91 184.48L191.644 184.635L190.91 184.48ZM191.69 180.792L190.956 180.637V180.637L191.69 180.792ZM195.21 177.904L195.21 177.154L195.21 177.904ZM201.169 177.904L201.169 178.654L201.169 177.904ZM204.079 179.592L203.417 179.945V179.945L204.079 179.592ZM206.5 187.369H205.75H206.5ZM183.701 187.709L183.27 187.095L183.27 187.095L183.701 187.709ZM202.778 188.775L202.452 189.45L202.464 189.456L202.476 189.461L202.778 188.775ZM198.932 188.183L199.045 188.925L198.932 188.183ZM193.595 193.309L194.329 193.465L193.595 193.309ZM193.903 197.298L194.605 197.034L193.903 197.298ZM196.284 200.484L196.734 199.884L196.284 200.484ZM199.968 201.834L199.929 202.583L199.968 201.834ZM203.748 189.202L203.446 189.888H203.446L203.748 189.202ZM184.595 201.998C184.949 202.213 185.411 202.1 185.625 201.746C185.84 201.392 185.728 200.931 185.374 200.716L184.595 201.998ZM198.189 177.904L198.189 177.154L198.189 177.904ZM205.75 195.287C205.75 196.565 204.732 197.582 203.5 197.582V199.082C205.582 199.082 207.25 197.372 207.25 195.287H205.75ZM203.5 197.582C202.268 197.582 201.25 196.565 201.25 195.287H199.75C199.75 197.372 201.418 199.082 203.5 199.082V197.582ZM201.25 195.287C201.25 194.008 202.268 192.991 203.5 192.991V191.491C201.418 191.491 199.75 193.201 199.75 195.287H201.25ZM203.5 192.991C204.732 192.991 205.75 194.008 205.75 195.287H207.25C207.25 193.201 205.582 191.491 203.5 191.491V192.991ZM188.951 198.859C188.951 200.137 187.933 201.154 186.701 201.154V202.654C188.783 202.654 190.451 200.944 190.451 198.859H188.951ZM186.701 201.154C185.469 201.154 184.451 200.137 184.451 198.859H182.951C182.951 200.944 184.619 202.654 186.701 202.654V201.154ZM184.451 198.859C184.451 197.58 185.469 196.563 186.701 196.563V195.063C184.619 195.063 182.951 196.773 182.951 198.859H184.451ZM186.701 196.563C187.933 196.563 188.951 197.58 188.951 198.859H190.451C190.451 196.773 188.783 195.063 186.701 195.063V196.563ZM184.988 188.118L187.39 188.118L187.39 186.618L184.988 186.618L184.988 188.118ZM191.644 184.635L192.423 180.947L190.956 180.637L190.177 184.325L191.644 184.635ZM203.417 179.945C204.417 181.818 205.75 184.817 205.75 187.369H207.25C207.25 184.415 205.75 181.129 204.741 179.238L203.417 179.945ZM183.27 187.095C182.665 187.52 181.75 188.395 181.75 189.805H183.25C183.25 189.115 183.69 188.633 184.132 188.322L183.27 187.095ZM201.169 178.654C202.125 178.654 202.985 179.136 203.417 179.945L204.741 179.238C204.023 177.894 202.624 177.154 201.169 177.154L201.169 178.654ZM192.423 180.947C192.708 179.602 193.874 178.654 195.21 178.654L195.21 177.154C193.15 177.154 191.384 178.613 190.956 180.637L192.423 180.947ZM187.39 188.118C189.45 188.118 191.216 186.66 191.644 184.635L190.177 184.325C189.892 185.671 188.726 186.618 187.39 186.618L187.39 188.118ZM184.988 186.618C184.462 186.618 183.824 186.705 183.27 187.095L184.132 188.322C184.325 188.187 184.605 188.118 184.988 188.118L184.988 186.618ZM203.104 188.099C201.762 187.451 200.27 187.221 198.819 187.442L199.045 188.925C200.19 188.75 201.376 188.931 202.452 189.45L203.104 188.099ZM198.819 187.442C197.367 187.663 196.025 188.326 194.964 189.345L196.003 190.427C196.842 189.621 197.9 189.099 199.045 188.925L198.819 187.442ZM194.964 189.345C193.903 190.364 193.173 191.69 192.862 193.152L194.329 193.465C194.58 192.289 195.164 191.233 196.003 190.427L194.964 189.345ZM192.862 193.152C192.55 194.614 192.669 196.148 193.201 197.562L194.605 197.034C194.173 195.885 194.078 194.642 194.329 193.465L192.862 193.152ZM193.201 197.562C193.733 198.976 194.636 200.185 195.834 201.084L196.734 199.884C195.767 199.159 195.038 198.184 194.605 197.034L193.201 197.562ZM195.834 201.084C197.033 201.983 198.458 202.507 199.929 202.583L200.007 201.085C198.841 201.025 197.701 200.609 196.734 199.884L195.834 201.084ZM204.05 188.515L203.08 188.088L202.476 189.461L203.446 189.888L204.05 188.515ZM199.929 202.583C204.254 202.808 207.25 199.3 207.25 195.287H205.75C205.75 198.582 203.34 201.259 200.007 201.085L199.929 202.583ZM203.446 189.888C205.257 190.686 207.25 189.331 207.25 187.369H205.75C205.75 188.283 204.838 188.863 204.05 188.515L203.446 189.888ZM181.75 189.805C181.75 192.655 181.748 195.233 182.07 197.285C182.389 199.323 183.059 201.065 184.595 201.998L185.374 200.716C184.425 200.14 183.853 198.977 183.552 197.053C183.252 195.142 183.25 192.697 183.25 189.805H181.75ZM195.21 178.654L198.189 178.654L198.189 177.154L195.21 177.154L195.21 178.654ZM198.189 178.654L201.169 178.654L201.169 177.154L198.189 177.154L198.189 178.654Z" fill="black"/>
<path d="M244.5 255.904C244.5 268.181 239.983 280.029 231.81 289.19C223.637 298.351 212.379 304.185 200.182 305.58C187.984 306.976 175.7 303.834 165.67 296.755C155.639 289.676 148.564 279.154 145.791 267.195C143.019 255.235 144.744 242.673 150.637 231.903C156.531 221.133 166.18 212.908 177.748 208.794C189.315 204.681 201.992 204.967 213.361 209.598C224.731 214.23 234 222.882 239.401 233.907" stroke="#001F30" stroke-width="1.5"/>
<path d="M195 215.651C204.822 215.651 214.3 219.265 221.629 225.803C228.958 232.342 233.625 241.348 234.741 251.106C235.857 260.864 233.344 270.691 227.681 278.716C222.018 286.74 213.6 292.401 204.032 294.618C194.464 296.836 184.415 295.456 175.799 290.741C167.183 286.027 160.603 278.307 157.312 269.053C154.021 259.799 154.25 249.658 157.955 240.562C161.66 231.466 168.582 224.051 177.402 219.73" stroke="#001F30" stroke-width="1.5"/>
<path d="M174.5 255.904C174.5 250.994 176.307 246.254 179.576 242.59C182.845 238.925 187.348 236.592 192.227 236.034C197.106 235.476 202.02 236.732 206.032 239.564C210.044 242.395 212.875 246.604 213.983 251.388C215.092 256.172 214.402 261.197 212.045 265.505C209.688 269.813 205.828 273.103 201.201 274.748C196.574 276.394 191.503 276.279 186.955 274.427C182.407 272.574 178.7 269.113 176.54 264.703" stroke="#001F30" stroke-width="1.5"/>
<circle cx="244.5" cy="243.904" r="5.25" fill="#FFC01F" stroke="#001F30" stroke-width="1.5"/>
<circle cx="135.5" cy="215.904" r="5.25" fill="#FFE0C9" stroke="#001F30" stroke-width="1.5"/>
<circle cx="202.5" cy="322.904" r="4.25" fill="#88AE65" stroke="#001F30" stroke-width="1.5"/>
<g clip-path="url(#clip0_1545_74186)">
<ellipse cx="194.499" cy="250.905" rx="3.33333" ry="3.33333" stroke="#001F30" stroke-width="1.5"/>
<path d="M199.5 253.404C200.881 253.404 202 252.471 202 251.321C202 250.17 200.881 249.237 199.5 249.237" stroke="#001F30" stroke-width="1.5" stroke-linecap="round"/>
<path d="M189.5 253.404C188.119 253.404 187 252.471 187 251.321C187 250.17 188.119 249.237 189.5 249.237" stroke="#001F30" stroke-width="1.5" stroke-linecap="round"/>
<ellipse cx="194.5" cy="260.071" rx="5" ry="3.33333" stroke="#001F30" stroke-width="1.5"/>
<path d="M201.166 261.738C202.628 261.417 203.666 260.606 203.666 259.655C203.666 258.704 202.628 257.892 201.166 257.571" stroke="#001F30" stroke-width="1.5" stroke-linecap="round"/>
<path d="M187.834 261.738C186.372 261.417 185.334 260.606 185.334 259.655C185.334 258.704 186.372 257.892 187.834 257.571" stroke="#001F30" stroke-width="1.5" stroke-linecap="round"/>
</g>
<path d="M-1 37.4048C71 48.5715 315.6 30.4038 372 12.4038C442.5 -10.0962 437.5 -4.09517 412 74.4048C386.5 152.905 343.514 170.958 284.5 174.404C216 178.404 245.5 235.904 239 232.904M130 227.405C106 322.905 194 395.205 354 302.405C392 283.205 398.833 326.738 397.5 350.905" stroke="#001F30" stroke-width="1.5" stroke-linecap="round"/>
<path d="M27.1172 223.192C26.0612 223.192 25.1385 222.952 24.3492 222.472C23.5599 221.992 22.9465 221.32 22.5092 220.456C22.0719 219.592 21.8532 218.584 21.8532 217.432C21.8532 216.291 22.0772 215.283 22.5252 214.408C22.9732 213.533 23.6079 212.851 24.4292 212.36C25.2612 211.859 26.2425 211.608 27.3732 211.608C28.6532 211.608 29.7199 211.917 30.5732 212.536C31.4265 213.155 31.9812 214.008 32.2372 215.096H30.3172C30.1465 214.499 29.8105 214.029 29.3092 213.688C28.8079 213.347 28.1625 213.176 27.3732 213.176C26.1999 213.176 25.2772 213.555 24.6052 214.312C23.9332 215.069 23.5972 216.115 23.5972 217.448C23.5972 218.781 23.9279 219.821 24.5892 220.568C25.2505 221.315 26.1305 221.688 27.2292 221.688C28.3385 221.688 29.1705 221.373 29.7252 220.744C30.2905 220.115 30.6212 219.277 30.7172 218.232H27.6772V216.92H32.4292V223H30.8772L30.7332 221.352C30.3599 221.939 29.8905 222.392 29.3252 222.712C28.7599 223.032 28.0239 223.192 27.1172 223.192ZM34.5736 223V215.064H36.0936L36.2376 216.568C36.5149 216.045 36.8989 215.635 37.3896 215.336C37.8909 215.027 38.4936 214.872 39.1976 214.872V216.648H38.7336C38.2642 216.648 37.8429 216.728 37.4696 216.888C37.1069 217.037 36.8136 217.299 36.5896 217.672C36.3762 218.035 36.2696 218.541 36.2696 219.192V223H34.5736ZM44.2949 223.192C43.5376 223.192 42.8549 223.021 42.2469 222.68C41.6496 222.328 41.1749 221.843 40.8229 221.224C40.4709 220.595 40.2949 219.864 40.2949 219.032C40.2949 218.2 40.4709 217.475 40.8229 216.856C41.1856 216.227 41.6709 215.741 42.2789 215.4C42.8869 215.048 43.5643 214.872 44.3109 214.872C45.0683 214.872 45.7456 215.048 46.3429 215.4C46.9509 215.741 47.4309 216.227 47.7829 216.856C48.1456 217.475 48.3269 218.2 48.3269 219.032C48.3269 219.864 48.1456 220.595 47.7829 221.224C47.4309 221.843 46.9509 222.328 46.3429 222.68C45.7349 223.021 45.0523 223.192 44.2949 223.192ZM44.2949 221.736C44.7003 221.736 45.0736 221.635 45.4149 221.432C45.7669 221.229 46.0496 220.931 46.2629 220.536C46.4763 220.131 46.5829 219.629 46.5829 219.032C46.5829 218.435 46.4763 217.939 46.2629 217.544C46.0603 217.139 45.7829 216.835 45.4309 216.632C45.0896 216.429 44.7163 216.328 44.3109 216.328C43.9056 216.328 43.5269 216.429 43.1749 216.632C42.8336 216.835 42.5563 217.139 42.3429 217.544C42.1296 217.939 42.0229 218.435 42.0229 219.032C42.0229 219.629 42.1296 220.131 42.3429 220.536C42.5563 220.931 42.8336 221.229 43.1749 221.432C43.5163 221.635 43.8896 221.736 44.2949 221.736ZM53.2391 223.192C52.2791 223.192 51.5217 222.893 50.9671 222.296C50.4231 221.699 50.1511 220.808 50.1511 219.624V215.064H51.8471V219.448C51.8471 220.984 52.4764 221.752 53.7351 221.752C54.3644 221.752 54.8817 221.528 55.2871 221.08C55.6924 220.632 55.8951 219.992 55.8951 219.16V215.064H57.5911V223H56.0871L55.9591 221.608C55.7137 222.099 55.3511 222.488 54.8711 222.776C54.4017 223.053 53.8577 223.192 53.2391 223.192ZM59.8986 226.52V215.064H61.4186L61.5946 216.296C61.8506 215.923 62.2026 215.592 62.6506 215.304C63.0986 215.016 63.6746 214.872 64.3786 214.872C65.1466 214.872 65.8239 215.053 66.4106 215.416C66.9972 215.779 67.4559 216.275 67.7866 216.904C68.1279 217.533 68.2986 218.248 68.2986 219.048C68.2986 219.848 68.1279 220.563 67.7866 221.192C67.4559 221.811 66.9972 222.301 66.4106 222.664C65.8239 223.016 65.1412 223.192 64.3626 223.192C63.7439 223.192 63.1946 223.069 62.7146 222.824C62.2452 222.579 61.8719 222.232 61.5946 221.784V226.52H59.8986ZM64.0746 221.72C64.7999 221.72 65.3972 221.475 65.8666 220.984C66.3359 220.483 66.5706 219.832 66.5706 219.032C66.5706 218.509 66.4639 218.045 66.2506 217.64C66.0372 217.235 65.7439 216.92 65.3706 216.696C64.9972 216.461 64.5652 216.344 64.0746 216.344C63.3492 216.344 62.7519 216.595 62.2826 217.096C61.8239 217.597 61.5946 218.243 61.5946 219.032C61.5946 219.832 61.8239 220.483 62.2826 220.984C62.7519 221.475 63.3492 221.72 64.0746 221.72ZM74.4642 223V215.064H75.9842L76.1282 216.568C76.4055 216.045 76.7895 215.635 77.2802 215.336C77.7815 215.027 78.3842 214.872 79.0882 214.872V216.648H78.6242C78.1549 216.648 77.7335 216.728 77.3602 216.888C76.9975 217.037 76.7042 217.299 76.4802 217.672C76.2669 218.035 76.1602 218.541 76.1602 219.192V223H74.4642ZM81.6523 213.56C81.3323 213.56 81.0656 213.464 80.8523 213.272C80.6496 213.069 80.5483 212.819 80.5483 212.52C80.5483 212.221 80.6496 211.976 80.8523 211.784C81.0656 211.581 81.3323 211.48 81.6523 211.48C81.9723 211.48 82.2336 211.581 82.4363 211.784C82.6496 211.976 82.7563 212.221 82.7563 212.52C82.7563 212.819 82.6496 213.069 82.4363 213.272C82.2336 213.464 81.9723 213.56 81.6523 213.56ZM80.8043 223V215.064H82.5003V223H80.8043ZM88.5052 223.192C87.7372 223.192 87.0599 223.011 86.4732 222.648C85.8865 222.285 85.4279 221.789 85.0972 221.16C84.7665 220.531 84.6012 219.816 84.6012 219.016C84.6012 218.216 84.7665 217.507 85.0972 216.888C85.4279 216.259 85.8865 215.768 86.4732 215.416C87.0705 215.053 87.7532 214.872 88.5212 214.872C89.1505 214.872 89.6999 214.995 90.1692 215.24C90.6492 215.485 91.0225 215.832 91.2892 216.28V211.48H92.9852V223H91.4652L91.2892 221.768C91.0332 222.141 90.6812 222.472 90.2332 222.76C89.7852 223.048 89.2092 223.192 88.5052 223.192ZM88.8092 221.72C89.5345 221.72 90.1265 221.469 90.5852 220.968C91.0545 220.467 91.2892 219.821 91.2892 219.032C91.2892 218.232 91.0545 217.587 90.5852 217.096C90.1265 216.595 89.5345 216.344 88.8092 216.344C88.0839 216.344 87.4865 216.595 87.0172 217.096C86.5479 217.587 86.3132 218.232 86.3132 219.032C86.3132 219.555 86.4199 220.019 86.6332 220.424C86.8465 220.829 87.1399 221.149 87.5132 221.384C87.8972 221.608 88.3292 221.72 88.8092 221.72ZM98.9856 223.192C98.2069 223.192 97.5136 223.021 96.9056 222.68C96.3082 222.328 95.8389 221.843 95.4976 221.224C95.1562 220.605 94.9856 219.885 94.9856 219.064C94.9856 218.232 95.1509 217.501 95.4816 216.872C95.8229 216.243 96.2922 215.752 96.8896 215.4C97.4976 215.048 98.2016 214.872 99.0016 214.872C99.7802 214.872 100.458 215.048 101.034 215.4C101.61 215.741 102.058 216.2 102.378 216.776C102.698 217.352 102.858 217.987 102.858 218.68C102.858 218.787 102.852 218.904 102.842 219.032C102.842 219.149 102.836 219.283 102.826 219.432H96.6496C96.7029 220.2 96.9536 220.787 97.4016 221.192C97.8602 221.587 98.3882 221.784 98.9856 221.784C99.4656 221.784 99.8656 221.677 100.186 221.464C100.516 221.24 100.762 220.941 100.922 220.568H102.618C102.404 221.315 101.978 221.939 101.338 222.44C100.708 222.941 99.9242 223.192 98.9856 223.192ZM98.9856 216.264C98.4202 216.264 97.9189 216.435 97.4816 216.776C97.0442 217.107 96.7776 217.608 96.6816 218.28H101.162C101.13 217.661 100.911 217.171 100.506 216.808C100.1 216.445 99.5936 216.264 98.9856 216.264ZM107.935 223.192C106.933 223.192 106.106 222.947 105.455 222.456C104.805 221.965 104.431 221.315 104.335 220.504H106.047C106.133 220.867 106.335 221.181 106.655 221.448C106.975 221.704 107.397 221.832 107.919 221.832C108.431 221.832 108.805 221.725 109.039 221.512C109.274 221.299 109.391 221.053 109.391 220.776C109.391 220.371 109.226 220.099 108.895 219.96C108.575 219.811 108.127 219.677 107.551 219.56C107.103 219.464 106.655 219.336 106.207 219.176C105.77 219.016 105.402 218.792 105.103 218.504C104.815 218.205 104.671 217.805 104.671 217.304C104.671 216.611 104.938 216.035 105.471 215.576C106.005 215.107 106.751 214.872 107.711 214.872C108.597 214.872 109.311 215.085 109.855 215.512C110.41 215.939 110.735 216.541 110.831 217.32H109.199C109.146 216.979 108.986 216.712 108.719 216.52C108.463 216.328 108.117 216.232 107.679 216.232C107.253 216.232 106.922 216.323 106.687 216.504C106.453 216.675 106.335 216.899 106.335 217.176C106.335 217.453 106.495 217.672 106.815 217.832C107.146 217.992 107.578 218.136 108.111 218.264C108.645 218.381 109.135 218.52 109.583 218.68C110.042 218.829 110.41 219.053 110.687 219.352C110.965 219.651 111.103 220.088 111.103 220.664C111.114 221.389 110.831 221.992 110.255 222.472C109.69 222.952 108.917 223.192 107.935 223.192Z" fill="#001F30"/>
<path d="M273.303 253V241.8H275.303L279.095 249.256L282.871 241.8H284.871V253H283.175V244.728L279.751 251.4H278.439L274.999 244.744V253H273.303ZM290.945 253.192C290.188 253.192 289.505 253.021 288.897 252.68C288.3 252.328 287.825 251.843 287.473 251.224C287.121 250.595 286.945 249.864 286.945 249.032C286.945 248.2 287.121 247.475 287.473 246.856C287.836 246.227 288.321 245.741 288.929 245.4C289.537 245.048 290.214 244.872 290.961 244.872C291.718 244.872 292.396 245.048 292.993 245.4C293.601 245.741 294.081 246.227 294.433 246.856C294.796 247.475 294.977 248.2 294.977 249.032C294.977 249.864 294.796 250.595 294.433 251.224C294.081 251.843 293.601 252.328 292.993 252.68C292.385 253.021 291.702 253.192 290.945 253.192ZM290.945 251.736C291.35 251.736 291.724 251.635 292.065 251.432C292.417 251.229 292.7 250.931 292.913 250.536C293.126 250.131 293.233 249.629 293.233 249.032C293.233 248.435 293.126 247.939 292.913 247.544C292.71 247.139 292.433 246.835 292.081 246.632C291.74 246.429 291.366 246.328 290.961 246.328C290.556 246.328 290.177 246.429 289.825 246.632C289.484 246.835 289.206 247.139 288.993 247.544C288.78 247.939 288.673 248.435 288.673 249.032C288.673 249.629 288.78 250.131 288.993 250.536C289.206 250.931 289.484 251.229 289.825 251.432C290.166 251.635 290.54 251.736 290.945 251.736ZM296.961 253V245.064H298.465L298.593 246.456C298.838 245.965 299.196 245.581 299.665 245.304C300.145 245.016 300.694 244.872 301.313 244.872C302.273 244.872 303.025 245.171 303.569 245.768C304.124 246.365 304.401 247.256 304.401 248.44V253H302.721V248.616C302.721 247.08 302.092 246.312 300.833 246.312C300.204 246.312 299.681 246.536 299.265 246.984C298.86 247.432 298.657 248.072 298.657 248.904V253H296.961ZM310.261 253.192C309.482 253.192 308.789 253.021 308.181 252.68C307.583 252.328 307.114 251.843 306.773 251.224C306.431 250.605 306.261 249.885 306.261 249.064C306.261 248.232 306.426 247.501 306.757 246.872C307.098 246.243 307.567 245.752 308.165 245.4C308.773 245.048 309.477 244.872 310.277 244.872C311.055 244.872 311.733 245.048 312.309 245.4C312.885 245.741 313.333 246.2 313.653 246.776C313.973 247.352 314.133 247.987 314.133 248.68C314.133 248.787 314.127 248.904 314.117 249.032C314.117 249.149 314.111 249.283 314.101 249.432H307.925C307.978 250.2 308.229 250.787 308.677 251.192C309.135 251.587 309.663 251.784 310.261 251.784C310.741 251.784 311.141 251.677 311.461 251.464C311.791 251.24 312.037 250.941 312.197 250.568H313.893C313.679 251.315 313.253 251.939 312.613 252.44C311.983 252.941 311.199 253.192 310.261 253.192ZM310.261 246.264C309.695 246.264 309.194 246.435 308.757 246.776C308.319 247.107 308.053 247.608 307.957 248.28H312.437C312.405 247.661 312.186 247.171 311.781 246.808C311.375 246.445 310.869 246.264 310.261 246.264ZM316.611 256.52L318.515 252.344H318.051L314.915 245.064H316.755L319.187 250.936L321.731 245.064H323.523L318.403 256.52H316.611ZM332.417 253.192C331.414 253.192 330.587 252.947 329.937 252.456C329.286 251.965 328.913 251.315 328.817 250.504H330.529C330.614 250.867 330.817 251.181 331.137 251.448C331.457 251.704 331.878 251.832 332.401 251.832C332.913 251.832 333.286 251.725 333.521 251.512C333.755 251.299 333.873 251.053 333.873 250.776C333.873 250.371 333.707 250.099 333.377 249.96C333.057 249.811 332.609 249.677 332.033 249.56C331.585 249.464 331.137 249.336 330.689 249.176C330.251 249.016 329.883 248.792 329.585 248.504C329.297 248.205 329.153 247.805 329.153 247.304C329.153 246.611 329.419 246.035 329.953 245.576C330.486 245.107 331.233 244.872 332.193 244.872C333.078 244.872 333.793 245.085 334.337 245.512C334.891 245.939 335.217 246.541 335.313 247.32H333.681C333.627 246.979 333.467 246.712 333.201 246.52C332.945 246.328 332.598 246.232 332.161 246.232C331.734 246.232 331.403 246.323 331.169 246.504C330.934 246.675 330.817 246.899 330.817 247.176C330.817 247.453 330.977 247.672 331.297 247.832C331.627 247.992 332.059 248.136 332.593 248.264C333.126 248.381 333.617 248.52 334.065 248.68C334.523 248.829 334.891 249.053 335.169 249.352C335.446 249.651 335.585 250.088 335.585 250.664C335.595 251.389 335.313 251.992 334.737 252.472C334.171 252.952 333.398 253.192 332.417 253.192ZM340.274 253.192C339.602 253.192 339.047 253.08 338.61 252.856C338.173 252.632 337.847 252.339 337.634 251.976C337.421 251.603 337.314 251.197 337.314 250.76C337.314 249.992 337.613 249.384 338.21 248.936C338.807 248.488 339.661 248.264 340.77 248.264H342.85V248.12C342.85 247.501 342.679 247.037 342.338 246.728C342.007 246.419 341.575 246.264 341.042 246.264C340.573 246.264 340.162 246.381 339.81 246.616C339.469 246.84 339.261 247.176 339.186 247.624H337.49C337.543 247.048 337.735 246.557 338.066 246.152C338.407 245.736 338.834 245.421 339.346 245.208C339.869 244.984 340.439 244.872 341.058 244.872C342.167 244.872 343.026 245.165 343.634 245.752C344.242 246.328 344.546 247.117 344.546 248.12V253H343.074L342.93 251.64C342.706 252.077 342.381 252.445 341.954 252.744C341.527 253.043 340.967 253.192 340.274 253.192ZM340.61 251.816C341.069 251.816 341.453 251.709 341.762 251.496C342.082 251.272 342.327 250.979 342.498 250.616C342.679 250.253 342.791 249.853 342.834 249.416H340.946C340.274 249.416 339.794 249.533 339.506 249.768C339.229 250.003 339.09 250.296 339.09 250.648C339.09 251.011 339.223 251.299 339.49 251.512C339.767 251.715 340.141 251.816 340.61 251.816ZM348.632 253L345.656 245.064H347.432L349.64 251.384L351.848 245.064H353.608L350.648 253H348.632ZM356.112 243.56C355.792 243.56 355.525 243.464 355.312 243.272C355.109 243.069 355.008 242.819 355.008 242.52C355.008 242.221 355.109 241.976 355.312 241.784C355.525 241.581 355.792 241.48 356.112 241.48C356.432 241.48 356.693 241.581 356.896 241.784C357.109 241.976 357.216 242.221 357.216 242.52C357.216 242.819 357.109 243.069 356.896 243.272C356.693 243.464 356.432 243.56 356.112 243.56ZM355.264 253V245.064H356.96V253H355.264ZM359.349 253V245.064H360.853L360.981 246.456C361.226 245.965 361.583 245.581 362.053 245.304C362.533 245.016 363.082 244.872 363.701 244.872C364.661 244.872 365.413 245.171 365.957 245.768C366.511 246.365 366.789 247.256 366.789 248.44V253H365.109V248.616C365.109 247.08 364.479 246.312 363.221 246.312C362.591 246.312 362.069 246.536 361.653 246.984C361.247 247.432 361.045 248.072 361.045 248.904V253H359.349ZM372.184 250.568C371.768 250.568 371.384 250.52 371.032 250.424L370.344 251.096C370.461 251.171 370.605 251.235 370.776 251.288C370.947 251.341 371.187 251.389 371.496 251.432C371.805 251.475 372.227 251.517 372.76 251.56C373.816 251.656 374.579 251.912 375.048 252.328C375.517 252.733 375.752 253.277 375.752 253.96C375.752 254.429 375.624 254.872 375.368 255.288C375.123 255.715 374.733 256.056 374.2 256.312C373.677 256.579 373.005 256.712 372.184 256.712C371.075 256.712 370.173 256.499 369.48 256.072C368.797 255.656 368.456 255.021 368.456 254.168C368.456 253.837 368.541 253.507 368.712 253.176C368.893 252.856 369.176 252.552 369.56 252.264C369.336 252.168 369.139 252.067 368.968 251.96C368.808 251.843 368.664 251.725 368.536 251.608V251.224L369.912 249.816C369.293 249.283 368.984 248.584 368.984 247.72C368.984 247.197 369.107 246.723 369.352 246.296C369.608 245.859 369.976 245.512 370.456 245.256C370.936 245 371.512 244.872 372.184 244.872C372.632 244.872 373.048 244.936 373.432 245.064H376.392V246.184L374.984 246.264C375.24 246.701 375.368 247.187 375.368 247.72C375.368 248.253 375.24 248.733 374.984 249.16C374.739 249.587 374.376 249.928 373.896 250.184C373.427 250.44 372.856 250.568 372.184 250.568ZM372.184 249.24C372.675 249.24 373.069 249.112 373.368 248.856C373.677 248.589 373.832 248.216 373.832 247.736C373.832 247.245 373.677 246.872 373.368 246.616C373.069 246.36 372.675 246.232 372.184 246.232C371.683 246.232 371.277 246.36 370.968 246.616C370.669 246.872 370.52 247.245 370.52 247.736C370.52 248.216 370.669 248.589 370.968 248.856C371.277 249.112 371.683 249.24 372.184 249.24ZM370.056 254.008C370.056 254.467 370.259 254.808 370.664 255.032C371.069 255.267 371.576 255.384 372.184 255.384C372.771 255.384 373.245 255.256 373.608 255C373.971 254.755 374.152 254.424 374.152 254.008C374.152 253.699 374.029 253.432 373.784 253.208C373.539 252.995 373.075 252.861 372.392 252.808C371.88 252.776 371.427 252.728 371.032 252.664C370.659 252.867 370.403 253.085 370.264 253.32C370.125 253.555 370.056 253.784 370.056 254.008Z" fill="#001F30"/>
<defs>
<clipPath id="clip0_1545_74186">
<rect width="20" height="20" fill="white" transform="translate(184.5 245.904)"/>
</clipPath>
</defs>
</svg>
