<svg width="24" height="25" viewBox="0 0 24 25" fill="none" xmlns="http://www.w3.org/2000/svg">
<path d="M12 22.5C17.5228 22.5 22 18.0228 22 12.5C22 6.97715 17.5228 2.5 12 2.5C6.47715 2.5 2 6.97715 2 12.5C2 14.0997 2.37562 15.6116 3.04346 16.9525C3.22094 17.3088 3.28001 17.7161 3.17712 18.1006L2.58151 20.3267C2.32295 21.293 3.20701 22.177 4.17335 21.9185L6.39939 21.3229C6.78393 21.22 7.19121 21.2791 7.54753 21.4565C8.88837 22.1244 10.4003 22.5 12 22.5Z" stroke="#001F30" stroke-width="1.5"/>
<path d="M8 11H16" stroke="#001F30" stroke-width="1.5" stroke-linecap="round"/>
<path d="M8 14.5H13.5" stroke="#001F30" stroke-width="1.5" stroke-linecap="round"/>
</svg>
