<svg width="32" height="31" viewBox="0 0 32 31" fill="none" xmlns="http://www.w3.org/2000/svg">
<rect x="1.25" y="0.75" width="29.5" height="29.5" rx="14.75" fill="white"/>
<rect x="1.25" y="0.75" width="29.5" height="29.5" rx="14.75" stroke="#001F30" stroke-width="1.5"/>
<path d="M17.8724 5.65224C17.4826 5.5 16.9884 5.5 16 5.5C15.0116 5.5 14.5174 5.5 14.1276 5.65224C13.6078 5.85523 13.1948 6.24458 12.9795 6.73463C12.8813 6.95834 12.8428 7.2185 12.8277 7.59799C12.8056 8.15568 12.5023 8.67189 11.9896 8.95093C11.477 9.22996 10.8512 9.21954 10.3279 8.95876C9.97177 8.7813 9.71357 8.68262 9.45894 8.65102C8.90115 8.58178 8.33703 8.72429 7.89069 9.0472C7.55593 9.28938 7.30883 9.6929 6.81463 10.4999C6.32044 11.307 6.07334 11.7105 6.01826 12.1049C5.94483 12.6308 6.09598 13.1627 6.43847 13.5835C6.5948 13.7756 6.8145 13.937 7.15548 14.139C7.65675 14.436 7.97929 14.9419 7.97925 15.5C7.97922 16.0581 7.6567 16.5639 7.15548 16.8608C6.81444 17.0629 6.59471 17.2244 6.43837 17.4165C6.09588 17.8373 5.94472 18.3691 6.01816 18.895C6.07323 19.2894 6.32033 19.693 6.81453 20.5C7.30873 21.307 7.55583 21.7106 7.89059 21.9527C8.33693 22.2756 8.90104 22.4181 9.45883 22.3489C9.71345 22.3173 9.97164 22.2186 10.3277 22.0412C10.8511 21.7804 11.4769 21.77 11.9896 22.049C12.5023 22.3281 12.8056 22.8443 12.8277 23.4021C12.8428 23.7815 12.8813 24.0417 12.9795 24.2654C13.1948 24.7554 13.6078 25.1448 14.1276 25.3478C14.5174 25.5 15.0116 25.5 16 25.5C16.9884 25.5 17.4826 25.5 17.8724 25.3478C18.3922 25.1448 18.8052 24.7554 19.0205 24.2654C19.1188 24.0417 19.1572 23.7815 19.1723 23.402C19.1944 22.8443 19.4977 22.3281 20.0103 22.049C20.5229 21.7699 21.1488 21.7804 21.6722 22.0412C22.0283 22.2186 22.2865 22.3172 22.5411 22.3488C23.0989 22.4181 23.663 22.2756 24.1093 21.9527C24.4441 21.7105 24.6912 21.307 25.1854 20.4999C25.6796 19.6929 25.9267 19.2894 25.9817 18.895C26.0552 18.3691 25.904 17.8372 25.5615 17.4164C25.4052 17.2243 25.1855 17.0628 24.8445 16.8608C24.3432 16.5639 24.0207 16.058 24.0207 15.4999C24.0208 14.9418 24.3433 14.4361 24.8445 14.1392C25.1855 13.9371 25.4053 13.7757 25.5616 13.5835C25.9041 13.1627 26.0553 12.6309 25.9818 12.105C25.9268 11.7106 25.6797 11.307 25.1855 10.5C24.6913 9.69297 24.4442 9.28945 24.1094 9.04727C23.6631 8.72436 23.099 8.58185 22.5412 8.65109C22.2866 8.68269 22.0284 8.78136 21.6723 8.9588C21.1489 9.21959 20.523 9.23002 20.0104 8.95096C19.4977 8.67191 19.1944 8.15566 19.1723 7.59794C19.1572 7.21848 19.1187 6.95833 19.0205 6.73463C18.8052 6.24458 18.3922 5.85523 17.8724 5.65224Z" fill="#114469" stroke="#001F30" stroke-width="1.5"/>
<ellipse cx="16.1148" cy="15.5" rx="3.61483" ry="3.5" fill="white" stroke="#001F30" stroke-width="1.5"/>
</svg>
