<svg width="393" height="153" viewBox="0 0 393 153" fill="none" xmlns="http://www.w3.org/2000/svg">
<path d="M170 26.2527C170.5 29.7527 171 36.2527 166.5 35.7527C166.157 35.7146 165.823 35.6702 165.5 35.6205M159.5 33.7527L158.5 36.7527M159.5 33.7527C160.254 34.2051 162.427 35.1486 165.5 35.6205M159.5 33.7527L158.5 31.2529C158.5 30.9196 159.1 29.9529 161.5 28.7529C164.5 27.2529 162.5 21.2529 162.5 22.7529C162.5 23.9529 160.167 24.2529 159 24.2529C159.167 24.9195 160.241 26.2527 163.205 26.2527C166.91 26.2527 166.5 22.7529 167.461 22.2529C168.421 21.7529 170.295 29.2529 172.5 29.2529C174.705 29.2529 173.5 27.7529 174.5 24.7529C175.5 21.7529 174.5 19.2529 170.5 17.7529M159.5 33.7527C159.167 34.2528 158.1 35.3264 156.5 35.6205C154.5 35.988 156 35.7527 154 35.7527M158.5 36.7527L162.5 39.2527L164 37.4366M158.5 36.7527C156.333 38.9195 152.7 43.3529 155.5 43.7529C159 44.2529 164 43.2525 164 42.7527C164 42.3529 163.47 40.2528 163.205 39.2527M165.5 35.6205L164 37.4366M164 37.4366C165.5 36.9807 168.7 36.2056 169.5 36.7527C170.3 37.2998 172.167 40.9807 173 42.7527L171 47.7527M171 47.7527C170.583 46.2221 169.1 42.6792 166.5 40.7527C165.779 40.2188 164.607 39.7143 163.205 39.2527M171 47.7527L171.259 48.7529M177.5 69.2529C173.833 72.7529 166.2 78.6529 165 74.2529C163.868 70.1037 166.152 59.9787 167.127 53.7529M177.5 69.2529L174.5 61.2529L171.259 48.7529M177.5 69.2529C176.327 69.0724 174.755 68.7771 173 68.3709M163.205 39.2527C159.548 38.0488 154.331 37.1363 151.5 36.7527L147.928 33.7527M163.205 39.2527C164.47 41.4195 167.1 46.4529 167.5 49.2529C167.566 49.7174 167.545 50.402 167.461 51.2529M167.127 53.7529L173 68.3709M167.127 53.7529C167.272 52.8212 167.389 51.9769 167.461 51.2529M173 68.3709C168.272 67.2768 162.209 65.3783 159 62.7529C154.6 59.1529 151.5 60.9196 150.5 62.2529C151.833 59.2529 154.3 53.2529 153.5 53.2529C152.7 53.2529 149.5 44.9195 148 40.7527C147.017 39.8488 145.798 38.6984 144.502 37.4366M147.928 33.7527L139 26.2527L138 12.7527C139 9.75272 140.8 3.95272 140 4.75272C139 5.75272 138.5 -1.24683 136 1.75294C134 4.15276 134.833 8.75286 135.5 10.7529C135.167 14.9195 134.6 23.8525 135 26.2527C135.306 28.0869 140.303 33.3471 144.502 37.4366M147.928 33.7527L144.502 37.4366M171.259 48.7529L167.461 51.2529M171 17.7529C170.833 15.4196 169.5 11.0529 165.5 12.2529C160.5 13.7529 150 17.2531 151.5 21.7529C153 26.2527 151.5 23.7529 152.5 27.7529C153.5 31.7529 150 29.7529 154.5 31.2529C159 32.7529 157.5 32.7525 158.5 33.7527C159.5 34.7529 155 21.7529 151.5 23.2529C148 24.7529 152 35.7527 154 35.7527M154 35.7527C153.333 35.7086 151.8 35.547 151 35.2529C150 34.8854 147.928 31.2529 147.5 28.7529C147.157 26.7529 150.691 26.9196 152.5 27.2529" stroke="#001F30"/>
<path d="M138.501 44.7529C138.842 44.8383 139.175 44.922 139.5 45.0045M139.5 45.0045C144.883 46.3716 147.915 47.3952 146.501 49.7529C145.301 51.7529 144.334 52.2529 144.001 52.2529L142.501 49.7529C141.001 49.7529 137.701 50.2529 136.501 52.2529C135.001 54.7529 136.501 55.2529 134.501 56.7529C132.901 57.9529 135.834 59.2529 137.501 59.7529L133.501 61.7529C131.001 60.5863 126.201 57.7529 127.001 55.7529C128.001 53.2529 126.499 45.2529 131.5 44.7529C135.5 44.3529 138.5 44.754 139.5 45.0045ZM142.501 59.7529C143.334 60.9196 144.6 63.1529 143 62.7529C141 62.2529 144.499 60.2529 145.5 60.7529C146.501 61.2529 147.5 58.7529 150.5 63.2529C153.5 67.7529 162 77.7529 161 77.2529" stroke="#001F30"/>
<path d="M206.5 37.7528C208 41.4195 210.4 49.2528 208 51.2528C205.6 53.2528 201 51.4195 199 50.2528L201.5 52.2528V56.2528C203.667 58.2528 207.9 62.7528 207.5 64.7528C207.1 66.7528 207.333 67.9195 207.5 68.2528L208.5 70.2528L221 66.7528C219.833 64.4195 218.1 60.1528 220.5 61.7528C222.9 63.3528 224.167 64.0861 224.5 64.2528C225.833 64.4195 228.3 65.5528 227.5 68.7528C226.7 71.9528 227.167 71.7528 227.5 71.2528L223.5 70.2528C222.167 68.7528 220 65.8528 222 66.2528C224.5 66.7528 226 69.2528 225.5 70.2528C225.1 71.0528 229.333 73.2528 231.5 74.2528C233 91.2528 235.9 125.353 235.5 125.753C235 126.253 180.5 128.753 180 126.753C179.5 124.753 174.5 81.2528 178 79.7528C180.8 78.5528 201.5 78.5861 211.499 78.7528C205.499 81.4195 192.899 86.0528 190.499 83.2528C188.449 80.8605 187.8 79.169 187.754 78.0186M206.5 37.7528C207.167 37.7528 208.5 37.4528 208.5 36.2528C208.5 34.7528 205.499 31.7528 203.999 32.2528C202.499 32.7528 198.499 28.2528 194.499 32.2528C190.499 36.2528 186.999 28.7527 185.999 36.2528C184.999 43.7529 187.499 42.253 185.999 48.2529C184.799 53.0528 181.833 53.5862 180.499 53.2529C179.666 53.2529 178 53.9529 178 56.7529C178 60.2529 175.999 65.253 178.999 60.7529C181.399 57.1528 184.666 57.5862 185.999 58.2529C186.333 59.5863 186.799 62.3529 185.999 62.7529C184.999 63.2529 187.499 67.2529 188.999 62.7529C190.499 58.2529 188.999 50.7529 193.499 51.7529C193.865 51.8342 194.198 51.8923 194.499 51.9295M206.5 37.7528C204.833 37.5862 201.5 37.8529 201.5 40.2529C201.5 43.2529 197.499 42.7529 197.499 45.7529C197.499 48.7529 194.499 46.2529 195.999 48.2529C197.378 50.0904 197.912 52.35 194.499 51.9295M243.459 74.1588C243.472 74.1902 243.486 74.2215 243.499 74.2528C243.491 74.2197 243.478 74.1882 243.459 74.1588ZM243.459 74.1588C238.275 62.131 227.293 38.8591 224.5 41.2528C221.7 43.6528 230.667 64.2528 235.5 74.2528C232 65.9195 225.5 49.6528 227.5 51.2528C229.5 52.8528 238.972 67.1901 243.459 74.1588ZM243.459 74.1588C243.098 73.5957 240.722 73.811 233.499 78.7528C223.999 85.2528 218.499 76.7528 217.999 73.2528C217.599 70.4528 220.5 70.0861 222 70.2528C216.333 72.4195 204.799 76.7528 203.999 76.7528C202.999 76.7528 186.499 51.2528 192.499 61.7528C197.299 70.1528 202.833 67.2528 204.999 64.7528C202.333 61.4195 196.499 54.6528 194.499 54.2528C191.999 53.7528 190.999 56.7528 190.499 64.7528C189.999 72.7528 188.499 75.7528 187.999 76.7528C187.841 77.0693 187.733 77.4859 187.754 78.0186M194.499 51.9295C195.989 52.5373 199.275 54.0529 200.499 55.2529C202.03 56.7529 194.689 52.253 192.499 53.2529C190.31 54.2528 187.499 56.753 187.499 59.2529C187.499 61.7528 187.001 66.2528 187.999 70.2528C188.798 73.4528 186.666 74.9196 185.499 75.2529L186.499 66.7528C182.666 59.4196 174.699 46.453 173.499 53.2529C172.299 60.0528 178.999 71.7528 182.499 76.7528L187.754 78.0186" stroke="#001F30"/>
<path d="M244 73.7529C263 73.7529 303.8 77.4529 315 92.2529C326.2 107.053 323 98.4196 320 92.2529C318.5 90.4196 315.8 88.8529 317 97.2529C318.2 105.653 318.833 109.42 319 110.253C319.333 102.086 320.5 91.4529 322.5 114.253C326.5 110.753 336 114.253 336 115.753C336 117.253 340 129.753 336 130.253C332 130.753 326.5 131.753 324 130.253C321.5 128.753 319.5 90.7529 289.5 92.2529C259.5 93.7529 248.5 107.753 240.5 130.253C240.5 133.453 253.167 132.92 259.5 132.253C259.667 123.086 265.3 105.053 286.5 106.253C296 106.253 309 112.753 311.5 130.253" stroke="#001F30"/>
<path d="M311.5 130.253H293.5C294 133.253 293.2 139.553 286 140.753C282.5 141.753 286.5 144.253 288 144.253C289.5 144.253 305.5 127.753 291.5 121.753C277.5 115.753 262.5 127.253 282.5 144.253C286 148.753 271 154.253 266.5 140.753C262 127.253 269.5 106.753 289 110.253C308.5 113.753 306.5 134.753 304.5 137.753C302.5 140.753 300.5 150.253 279.5 150.753C262.7 151.153 349.833 149.253 395.5 148.253" stroke="#001F30"/>
<path d="M142.5 49.7529C143.834 52.4196 145.9 58.0529 143.5 59.2529C141.1 60.4529 138.834 60.4196 138 60.2529C138.5 60.9196 139.5 62.3529 139.5 62.7529C139.5 63.2529 134 60.7529 133 63.7529C132 66.7529 124 80.2529 124.5 81.2529C124.9 82.0529 139.667 79.2529 147.001 77.7529C148.834 78.5863 152.501 79.7529 152.501 77.7529C152.501 75.2529 149.501 72.7529 147.001 73.2529C145.001 73.6529 137.501 75.0863 134.001 75.7529C131.667 79.2529 126.499 85.6529 124.5 83.2529C122.001 80.2529 134.001 75.2529 134.001 74.2529C134.001 73.4529 135.333 71.2529 136 70.2529L141 62.7529C142.776 64.2311 146.362 67.8006 146.5 70.2529C146.637 72.7053 144.557 77.2747 143.5 79.2529C135.5 75.2529 119.4 66.5529 119 63.7529C118.5 60.2529 112.5 68.2529 113.5 69.7529C114.5 71.2529 125.501 77.2529 125.501 75.7529C125.501 74.2529 114.001 68.7529 112.501 72.7529C111.301 75.9529 162.001 77.4196 187.501 77.7529L174.999 80.2529C175.999 95.5863 177.699 126.253 176.499 126.253C174.999 126.253 130.999 83.7529 99.9992 96.2529C87.7935 97.6613 74.2653 109.207 76.3826 126.753M76.3826 126.753C76.5203 127.895 76.7243 129.062 76.9992 130.253C76.9992 132.253 81.3331 133.086 83.5 133.253C83.5 123.42 90.7 104.653 119.5 108.253C125.501 109.003 132 118.753 132.5 133.253C167.833 134.086 238.5 135.253 238.5 133.253C238.5 131.253 164.167 131.42 127 131.753C127.059 124.086 122.242 109.253 102.5 111.253C89.7 113.253 86.5 125.753 86.5 131.753C86.3333 139.253 90.4 153.853 108 152.253C130 150.253 125 131.253 124 129.753C123 128.253 120.5 128.253 119.5 130.253C118.5 132.253 115.5 150.753 97 137.753C89 130.253 98.5 116.253 109 117.753C117.4 118.953 118.5 124.253 118 126.753C114.833 121.753 106.3 115.253 97.5 129.253C97 131.753 72.5 132.253 72.5 129.253C72.5 126.853 75.0884 126.586 76.3826 126.753Z" stroke="#001F30"/>
<path d="M105.501 152.253C99.6675 149.42 87.5009 144.253 89.0008 127.253C89.4009 124.853 78.5009 123.586 73.0009 123.253C75.3342 109.086 80.3009 82.1529 81.5009 87.7529C81.9793 89.9853 81.2551 93.1925 80 96.5699M80 96.5699C78.1067 101.664 75.0054 107.146 73.0009 110.253C70.5009 97.9196 73.9009 74.2529 107.501 78.2529C110.7 79.4529 97.8333 81.0863 91 81.7529C95.8333 86.7976 100.4 96.8234 80 96.5699Z" stroke="#001F30"/>
<path d="M105 152.253H-1" stroke="#001F30"/>
<path d="M252.756 66.485L252.756 66.985H252.756L252.756 66.485ZM251.555 66.485L251.555 65.985H251.555L251.555 66.485ZM249.795 65.041L249.306 65.1444L249.795 65.041ZM249.405 63.1969L249.894 63.0936L249.405 63.1969ZM247.645 61.7529L247.645 61.2529L247.645 61.7529ZM244.666 61.7529L244.666 62.2529L244.666 61.7529ZM243.211 62.5966L243.652 62.832V62.832L243.211 62.5966ZM242 66.485H242.5H242ZM253.4 66.6551L253.687 66.2459L253.687 66.2459L253.4 66.6551ZM243.861 67.1881L244.078 67.6384L244.071 67.6421L244.063 67.6456L243.861 67.1881ZM245.784 66.8924L245.709 67.3867L245.784 66.8924ZM248.452 69.4552L247.963 69.5594L248.452 69.4552ZM248.298 71.4498L247.83 71.2738L248.298 71.4498ZM247.108 73.0427L246.808 72.6427L247.108 73.0427ZM245.266 73.718L245.292 74.2173L245.266 73.718ZM243.376 67.4017L243.578 67.8593L243.578 67.8593L243.376 67.4017ZM253.017 73.9066C252.781 74.0499 252.474 73.9747 252.33 73.7387C252.187 73.5026 252.262 73.1951 252.498 73.0518L253.017 73.9066ZM246.155 61.7529L246.155 61.2529L246.155 61.7529ZM242.5 70.4442C242.5 71.0161 242.955 71.4669 243.5 71.4669V72.4669C242.388 72.4669 241.5 71.5542 241.5 70.4442H242.5ZM243.5 71.4669C244.045 71.4669 244.5 71.0161 244.5 70.4442H245.5C245.5 71.5542 244.612 72.4669 243.5 72.4669V71.4669ZM244.5 70.4442C244.5 69.8722 244.045 69.4214 243.5 69.4214V68.4214C244.612 68.4214 245.5 69.3341 245.5 70.4442H244.5ZM243.5 69.4214C242.955 69.4214 242.5 69.8722 242.5 70.4442H241.5C241.5 69.3341 242.388 68.4214 243.5 68.4214V69.4214ZM250.9 72.2302C250.9 72.8022 251.354 73.2529 251.9 73.2529V74.2529C250.788 74.2529 249.9 73.3402 249.9 72.2302H250.9ZM251.9 73.2529C252.445 73.2529 252.9 72.8022 252.9 72.2302H253.9C253.9 73.3402 253.011 74.2529 251.9 74.2529V73.2529ZM252.9 72.2302C252.9 71.6582 252.445 71.2074 251.9 71.2074V70.2074C253.011 70.2074 253.9 71.1202 253.9 72.2302H252.9ZM251.9 71.2074C251.354 71.2074 250.9 71.6582 250.9 72.2302H249.9C249.9 71.1202 250.788 70.2074 251.9 70.2074V71.2074ZM252.756 66.985L251.555 66.985L251.555 65.985L252.756 65.985L252.756 66.985ZM249.306 65.1444L248.916 63.3003L249.894 63.0936L250.284 64.9376L249.306 65.1444ZM243.652 62.832C243.153 63.7673 242.5 65.2429 242.5 66.485H241.5C241.5 64.9749 242.264 63.308 242.769 62.3612L243.652 62.832ZM253.687 66.2459C254.003 66.468 254.5 66.9383 254.5 67.7032H253.5C253.5 67.4183 253.32 67.21 253.112 67.0642L253.687 66.2459ZM244.666 62.2529C244.229 62.2529 243.844 62.472 243.652 62.832L242.769 62.3612C243.152 61.6444 243.896 61.2529 244.666 61.2529L244.666 62.2529ZM248.916 63.3003C248.786 62.6843 248.253 62.2529 247.645 62.2529L247.645 61.2529C248.735 61.2529 249.669 62.025 249.894 63.0936L248.916 63.3003ZM251.555 66.985C250.465 66.985 249.531 66.213 249.306 65.1444L250.284 64.9376C250.414 65.5537 250.947 65.985 251.555 65.985L251.555 66.985ZM252.756 65.985C253.031 65.985 253.38 66.0301 253.687 66.2459L253.112 67.0642C253.046 67.0175 252.936 66.985 252.756 66.985L252.756 65.985ZM243.644 66.7377C244.337 66.4032 245.108 66.2836 245.859 66.3981L245.709 67.3867C245.162 67.3033 244.594 67.3895 244.078 67.6384L243.644 66.7377ZM245.859 66.3981C246.611 66.5126 247.305 66.8557 247.855 67.3831L247.162 68.1044C246.761 67.7194 246.256 67.47 245.709 67.3867L245.859 66.3981ZM247.855 67.3831C248.403 67.9103 248.78 68.596 248.941 69.3509L247.963 69.5594C247.843 68.995 247.563 68.4895 247.162 68.1044L247.855 67.3831ZM248.941 69.3509C249.102 70.1056 249.041 70.897 248.766 71.6259L247.83 71.2738C248.038 70.721 248.084 70.1241 247.963 69.5594L248.941 69.3509ZM248.766 71.6259C248.492 72.3547 248.027 72.9789 247.408 73.4428L246.808 72.6427C247.272 72.2946 247.622 71.8267 247.83 71.2738L248.766 71.6259ZM247.408 73.4428C246.789 73.9067 246.053 74.1777 245.292 74.2173L245.24 73.2187C245.798 73.1897 246.344 72.9907 246.808 72.6427L247.408 73.4428ZM243.175 66.9441L243.66 66.7305L244.063 67.6456L243.578 67.8593L243.175 66.9441ZM245.292 74.2173C243.047 74.3341 241.5 72.5108 241.5 70.4442H242.5C242.5 72.0321 243.656 73.301 245.24 73.2187L245.292 74.2173ZM243.578 67.8593C242.586 68.2958 241.5 67.5536 241.5 66.485H242.5C242.5 66.855 242.866 67.0801 243.175 66.9441L243.578 67.8593ZM254.5 67.7032C254.5 69.1247 254.501 70.4247 254.339 71.4626C254.177 72.4913 253.834 73.4105 253.017 73.9066L252.498 73.0518C252.923 72.7938 253.201 72.2606 253.351 71.3077C253.499 70.364 253.5 69.1531 253.5 67.7032H254.5ZM247.645 62.2529L246.155 62.2529L246.155 61.2529L247.645 61.2529L247.645 62.2529ZM246.155 62.2529L244.666 62.2529L244.666 61.2529L246.155 61.2529L246.155 62.2529Z" fill="#001F30"/>
<path d="M105.747 91.8129C105.49 91.8129 105.265 91.7679 105.072 91.6779C104.878 91.5879 104.727 91.4596 104.617 91.2929C104.51 91.1263 104.455 90.9279 104.452 90.6979H105.012C105.015 90.8846 105.08 91.0429 105.207 91.1729C105.333 91.3029 105.512 91.3679 105.742 91.3679C105.945 91.3679 106.103 91.3196 106.217 91.2229C106.333 91.1229 106.392 90.9963 106.392 90.8429C106.392 90.7196 106.363 90.6196 106.307 90.5429C106.253 90.4663 106.178 90.4029 106.082 90.3529C105.988 90.3029 105.88 90.2579 105.757 90.2179C105.633 90.1779 105.503 90.1346 105.367 90.0879C105.097 89.9979 104.893 89.8813 104.757 89.7379C104.623 89.5946 104.557 89.4063 104.557 89.1729C104.553 88.9763 104.598 88.8046 104.692 88.6579C104.788 88.5113 104.922 88.3979 105.092 88.3179C105.265 88.2346 105.467 88.1929 105.697 88.1929C105.923 88.1929 106.122 88.2346 106.292 88.3179C106.465 88.4013 106.6 88.5179 106.697 88.6679C106.793 88.8146 106.843 88.9863 106.847 89.1829H106.287C106.287 89.0929 106.263 89.0079 106.217 88.9279C106.17 88.8446 106.102 88.7763 106.012 88.7229C105.922 88.6696 105.812 88.6429 105.682 88.6429C105.515 88.6396 105.377 88.6813 105.267 88.7679C105.16 88.8546 105.107 88.9746 105.107 89.1279C105.107 89.2646 105.147 89.3696 105.227 89.4429C105.307 89.5163 105.417 89.5779 105.557 89.6279C105.697 89.6746 105.857 89.7296 106.037 89.7929C106.21 89.8496 106.365 89.9179 106.502 89.9979C106.638 90.0779 106.747 90.1829 106.827 90.3129C106.91 90.4429 106.952 90.6079 106.952 90.8079C106.952 90.9846 106.907 91.1496 106.817 91.3029C106.727 91.4529 106.592 91.5763 106.412 91.6729C106.232 91.7663 106.01 91.8129 105.747 91.8129ZM108.751 91.7529C108.508 91.7529 108.315 91.6946 108.171 91.5779C108.028 91.4579 107.956 91.2463 107.956 90.9429V89.7179H107.531V89.2729H107.956L108.021 88.6429H108.486V89.2729H109.186V89.7179H108.486V90.9429C108.486 91.0796 108.515 91.1746 108.571 91.2279C108.631 91.2779 108.733 91.3029 108.876 91.3029H109.161V91.7529H108.751ZM110.848 91.8129C110.548 91.8129 110.311 91.7196 110.138 91.5329C109.968 91.3463 109.883 91.0679 109.883 90.6979V89.2729H110.413V90.6429C110.413 91.1229 110.609 91.3629 111.003 91.3629C111.199 91.3629 111.361 91.2929 111.488 91.1529C111.614 91.0129 111.678 90.8129 111.678 90.5529V89.2729H112.208V91.7529H111.738L111.698 91.3179C111.621 91.4713 111.508 91.5929 111.358 91.6829C111.211 91.7696 111.041 91.8129 110.848 91.8129ZM114.622 91.8129C114.292 91.8129 114.004 91.7379 113.757 91.5879C113.51 91.4379 113.319 91.2279 113.182 90.9579C113.045 90.6879 112.977 90.3729 112.977 90.0129C112.977 89.6563 113.047 89.3413 113.187 89.0679C113.327 88.7946 113.525 88.5813 113.782 88.4279C114.042 88.2713 114.349 88.1929 114.702 88.1929C115.102 88.1929 115.435 88.2896 115.702 88.4829C115.969 88.6763 116.142 88.9429 116.222 89.2829H115.622C115.569 89.0963 115.464 88.9496 115.307 88.8429C115.15 88.7363 114.949 88.6829 114.702 88.6829C114.335 88.6829 114.047 88.8013 113.837 89.0379C113.627 89.2746 113.522 89.6013 113.522 90.0179C113.522 90.4346 113.625 90.7596 113.832 90.9929C114.039 91.2263 114.314 91.3429 114.657 91.3429C115.004 91.3429 115.264 91.2446 115.437 91.0479C115.614 90.8513 115.717 90.5896 115.747 90.2629H114.797V89.8529H116.282V91.7529H115.797L115.752 91.2379C115.635 91.4213 115.489 91.5629 115.312 91.6629C115.135 91.7629 114.905 91.8129 114.622 91.8129ZM118.265 91.8129C118.028 91.8129 117.815 91.7596 117.625 91.6529C117.438 91.5429 117.29 91.3913 117.18 91.1979C117.07 91.0013 117.015 90.7729 117.015 90.5129C117.015 90.2529 117.07 90.0263 117.18 89.8329C117.293 89.6363 117.445 89.4846 117.635 89.3779C117.825 89.2679 118.037 89.2129 118.27 89.2129C118.507 89.2129 118.718 89.2679 118.905 89.3779C119.095 89.4846 119.245 89.6363 119.355 89.8329C119.468 90.0263 119.525 90.2529 119.525 90.5129C119.525 90.7729 119.468 91.0013 119.355 91.1979C119.245 91.3913 119.095 91.5429 118.905 91.6529C118.715 91.7596 118.502 91.8129 118.265 91.8129ZM118.265 91.3579C118.392 91.3579 118.508 91.3263 118.615 91.2629C118.725 91.1996 118.813 91.1063 118.88 90.9829C118.947 90.8563 118.98 90.6996 118.98 90.5129C118.98 90.3263 118.947 90.1713 118.88 90.0479C118.817 89.9213 118.73 89.8263 118.62 89.7629C118.513 89.6996 118.397 89.6679 118.27 89.6679C118.143 89.6679 118.025 89.6996 117.915 89.7629C117.808 89.8263 117.722 89.9213 117.655 90.0479C117.588 90.1713 117.555 90.3263 117.555 90.5129C117.555 90.6996 117.588 90.8563 117.655 90.9829C117.722 91.1063 117.808 91.1996 117.915 91.2629C118.022 91.3263 118.138 91.3579 118.265 91.3579Z" fill="#001F30"/>
</svg>
