<svg width="16" height="16" viewBox="0 0 16 16" fill="none" xmlns="http://www.w3.org/2000/svg">
<g id="icon">
<g id="icon_2">
<path d="M7.99967 1.33301C4.31967 1.33301 1.33301 4.31967 1.33301 7.99967C1.33301 11.6797 4.31967 14.6663 7.99967 14.6663C11.6797 14.6663 14.6663 11.6797 14.6663 7.99967C14.6663 4.31967 11.6797 1.33301 7.99967 1.33301ZM7.99967 13.333C5.05301 13.333 2.66634 10.9463 2.66634 7.99967C2.66634 5.05301 5.05301 2.66634 7.99967 2.66634C10.9463 2.66634 13.333 5.05301 13.333 7.99967C13.333 10.9463 10.9463 13.333 7.99967 13.333Z" fill="#114469"/>
<path d="M7.99967 11.333C9.84062 11.333 11.333 9.84062 11.333 7.99967C11.333 6.15873 9.84062 4.66634 7.99967 4.66634C6.15873 4.66634 4.66634 6.15873 4.66634 7.99967C4.66634 9.84062 6.15873 11.333 7.99967 11.333Z" fill="#114469"/>
</g>
</g>
</svg>
