<svg width="16" height="16" viewBox="0 0 16 16" fill="none" xmlns="http://www.w3.org/2000/svg">
<g id="Bold / Messages, Coversation /  Chat Round Unread">
<path id="Vector" d="M7.99967 14.6668C11.6816 14.6668 14.6663 11.6821 14.6663 8.00016C14.6663 7.47107 14.6047 6.95638 14.4882 6.46287C14.4132 6.14499 14.0422 6.02017 13.7371 6.13678C13.4045 6.26387 13.0436 6.3335 12.6663 6.3335C11.0095 6.3335 9.66634 4.99035 9.66634 3.3335C9.66634 2.95627 9.73596 2.59531 9.86306 2.26276C9.97966 1.95767 9.85485 1.58664 9.53697 1.51161C9.04346 1.39513 8.52876 1.3335 7.99967 1.3335C4.31778 1.3335 1.33301 4.31826 1.33301 8.00016C1.33301 9.06662 1.58342 10.0746 2.02865 10.9685C2.14697 11.206 2.18635 11.4775 2.11775 11.7339L1.72068 13.2179C1.54831 13.8622 2.13768 14.4515 2.78191 14.2792L4.26593 13.8821C4.5223 13.8135 4.79381 13.8529 5.03136 13.9712C5.92525 14.4164 6.93322 14.6668 7.99967 14.6668Z" fill="#353535"/>
<circle id="Vector_2" cx="12.667" cy="3.3335" r="2" fill="#353535"/>
</g>
</svg>
