<svg width="19" height="18" viewBox="0 0 19 18" fill="none" xmlns="http://www.w3.org/2000/svg">
<g id="Linear / Map &#38; Location / Streets Map Point">
<path id="Vector" d="M9.33301 16.5C5.79747 16.5 4.02971 16.5 2.93136 15.4017C1.83301 14.3033 1.83301 12.5355 1.83301 9C1.83301 5.46447 1.83301 3.6967 2.93136 2.59835C4.02971 1.5 5.79747 1.5 9.33301 1.5C12.8685 1.5 14.6363 1.5 15.7347 2.59835C16.833 3.6967 16.833 5.46447 16.833 9C16.833 12.5355 16.833 14.3033 15.7347 15.4017C14.6363 16.5 12.8685 16.5 9.33301 16.5Z" stroke="#001F30" stroke-width="1.5"/>
<path id="Vector_2" d="M4.45801 6.56799C4.45801 5.21876 5.63326 4.125 7.08301 4.125C8.53276 4.125 9.70801 5.21876 9.70801 6.56799C9.70801 7.90664 8.8702 9.46872 7.56303 10.0273C7.25831 10.1576 6.9077 10.1576 6.60298 10.0273C5.29582 9.46872 4.45801 7.90664 4.45801 6.56799Z" stroke="#001F30" stroke-width="1.5"/>
<path id="Vector_3" d="M10.8333 10.5L15.7083 15.375M10.8333 10.5L5.12891 16.2044M10.8333 10.5L16.5384 4.79492" stroke="#001F30" stroke-width="1.5" stroke-linecap="round"/>
<path id="Vector_4" d="M7.83301 6.75C7.83301 7.16421 7.49722 7.5 7.08301 7.5C6.66879 7.5 6.33301 7.16421 6.33301 6.75C6.33301 6.33579 6.66879 6 7.08301 6C7.49722 6 7.83301 6.33579 7.83301 6.75Z" fill="black"/>
</g>
</svg>
