<svg width="393" height="28" viewBox="0 0 393 28" fill="none" xmlns="http://www.w3.org/2000/svg">
<circle cx="100.5" cy="24" r="4" fill="#B0BCC4"/>
<circle cx="132.5" cy="24" r="4" fill="#B0BCC4"/>
<circle cx="164.5" cy="24" r="4" fill="#B0BCC4"/>
<circle cx="196.5" cy="24" r="4" fill="#B0BCC4"/>
<circle cx="228.5" cy="24" r="4" fill="#B0BCC4"/>
<circle cx="260.5" cy="24" r="4" fill="#114469"/>
<circle cx="292.5" cy="24" r="3.5" stroke="#114469"/>
<path d="M265.756 7.73206L265.756 8.23206H265.756L265.756 7.73206ZM264.555 7.73207L264.555 7.23207H264.555L264.555 7.73207ZM262.795 6.28806L262.306 6.39144L262.795 6.28806ZM262.405 4.44402L262.894 4.34064L262.405 4.44402ZM260.645 3L260.645 2.5L260.645 3ZM257.666 3.00001L257.666 3.50001L257.666 3.00001ZM256.211 3.84363L256.652 4.07903V4.07903L256.211 3.84363ZM255 7.7321H255.5H255ZM266.4 7.90216L266.687 7.49301L266.687 7.49301L266.4 7.90216ZM256.861 8.43512L257.078 8.88545L257.071 8.88921L257.063 8.8927L256.861 8.43512ZM258.784 8.13944L258.709 8.63374L258.784 8.13944ZM261.452 10.7022L260.963 10.8065L261.452 10.7022ZM261.298 12.6969L260.83 12.5209L261.298 12.6969ZM260.108 14.2898L259.808 13.8897L260.108 14.2898ZM258.266 14.9651L258.292 15.4644L258.266 14.9651ZM256.376 8.64874L256.578 9.10632L256.578 9.10632L256.376 8.64874ZM266.017 15.1537C265.781 15.297 265.474 15.2218 265.33 14.9857C265.187 14.7497 265.262 14.4422 265.498 14.2989L266.017 15.1537ZM259.155 3L259.155 2.5L259.155 3ZM255.5 11.6912C255.5 12.2632 255.955 12.714 256.5 12.714V13.714C255.388 13.714 254.5 12.8012 254.5 11.6912H255.5ZM256.5 12.714C257.045 12.714 257.5 12.2632 257.5 11.6912H258.5C258.5 12.8012 257.612 13.714 256.5 13.714V12.714ZM257.5 11.6912C257.5 11.1192 257.045 10.6685 256.5 10.6685V9.66847C257.612 9.66847 258.5 10.5812 258.5 11.6912H257.5ZM256.5 10.6685C255.955 10.6685 255.5 11.1192 255.5 11.6912H254.5C254.5 10.5812 255.388 9.66847 256.5 9.66847V10.6685ZM263.9 13.4772C263.9 14.0492 264.354 14.5 264.9 14.5V15.5C263.788 15.5 262.9 14.5873 262.9 13.4772H263.9ZM264.9 14.5C265.445 14.5 265.9 14.0492 265.9 13.4772H266.9C266.9 14.5873 266.011 15.5 264.9 15.5V14.5ZM265.9 13.4772C265.9 12.9053 265.445 12.4545 264.9 12.4545V11.4545C266.011 11.4545 266.9 12.3672 266.9 13.4772H265.9ZM264.9 12.4545C264.354 12.4545 263.9 12.9053 263.9 13.4772H262.9C262.9 12.3672 263.788 11.4545 264.9 11.4545V12.4545ZM265.756 8.23206L264.555 8.23207L264.555 7.23207L265.756 7.23206L265.756 8.23206ZM262.306 6.39144L261.916 4.5474L262.894 4.34064L263.284 6.18468L262.306 6.39144ZM256.652 4.07903C256.153 5.01435 255.5 6.48997 255.5 7.7321H254.5C254.5 6.22197 255.264 4.55509 255.769 3.60823L256.652 4.07903ZM266.687 7.49301C267.003 7.71508 267.5 8.1854 267.5 8.95026H266.5C266.5 8.66539 266.32 8.45707 266.112 8.31131L266.687 7.49301ZM257.666 3.50001C257.229 3.50001 256.844 3.71911 256.652 4.07903L255.769 3.60823C256.152 2.89143 256.896 2.50001 257.666 2.50001L257.666 3.50001ZM261.916 4.5474C261.786 3.93135 261.253 3.5 260.645 3.5L260.645 2.5C261.735 2.5 262.669 3.27204 262.894 4.34064L261.916 4.5474ZM264.555 8.23207C263.465 8.23208 262.531 7.46004 262.306 6.39144L263.284 6.18468C263.414 6.80073 263.947 7.23208 264.555 7.23207L264.555 8.23207ZM265.756 7.23206C266.031 7.23206 266.38 7.27718 266.687 7.49301L266.112 8.31131C266.046 8.26453 265.936 8.23206 265.756 8.23206L265.756 7.23206ZM256.644 7.98479C257.337 7.6503 258.108 7.53068 258.859 7.64515L258.709 8.63374C258.162 8.55038 257.594 8.63655 257.078 8.88545L256.644 7.98479ZM258.859 7.64515C259.611 7.75964 260.305 8.10279 260.855 8.63019L260.162 9.35142C259.761 8.96648 259.256 8.71707 258.709 8.63374L258.859 7.64515ZM260.855 8.63019C261.403 9.15739 261.78 9.84303 261.941 10.598L260.963 10.8065C260.843 10.2421 260.563 9.73657 260.162 9.35142L260.855 8.63019ZM261.941 10.598C262.102 11.3527 262.041 12.144 261.766 12.8729L260.83 12.5209C261.038 11.9681 261.084 11.3712 260.963 10.8065L261.941 10.598ZM261.766 12.8729C261.492 13.6018 261.027 14.226 260.408 14.6898L259.808 13.8897C260.272 13.5416 260.622 13.0737 260.83 12.5209L261.766 12.8729ZM260.408 14.6898C259.789 15.1538 259.053 15.4248 258.292 15.4644L258.24 14.4657C258.798 14.4367 259.344 14.2377 259.808 13.8897L260.408 14.6898ZM256.175 8.19116L256.66 7.97754L257.063 8.8927L256.578 9.10632L256.175 8.19116ZM258.292 15.4644C256.047 15.5812 254.5 13.7579 254.5 11.6912H255.5C255.5 13.2791 256.656 14.5481 258.24 14.4657L258.292 15.4644ZM256.578 9.10632C255.586 9.5429 254.5 8.80067 254.5 7.7321H255.5C255.5 8.1021 255.866 8.32715 256.175 8.19115L256.578 9.10632ZM267.5 8.95026C267.5 10.3717 267.501 11.6717 267.339 12.7096C267.177 13.7384 266.834 14.6576 266.017 15.1537L265.498 14.2989C265.923 14.0408 266.201 13.5077 266.351 12.5548C266.499 11.6111 266.5 10.4002 266.5 8.95026H267.5ZM260.645 3.5L259.155 3.5L259.155 2.5L260.645 2.5L260.645 3.5ZM259.155 3.5L257.666 3.50001L257.666 2.50001L259.155 2.5L259.155 3.5Z" fill="#001F30"/>
</svg>
